<svg width="34" height="35" viewBox="0 0 34 35" fill="none" xmlns="http://www.w3.org/2000/svg">
<g clip-path="url(#clip0_4385_14986)">
<path fill-rule="evenodd" clip-rule="evenodd" d="M12.5274 17.2374L6.67742 14.3137L9.50259 11.9431L18.095 12.5657C19.1468 11.6831 20.3318 10.6731 21.3919 9.80051C22.6711 8.80157 25.1128 8.59073 26.0969 9.76354C27.0978 10.9563 26.4448 13.3487 25.2158 14.423L21.9709 17.1459L21.072 25.7325L18.2698 28.0839L16.4002 21.8202L13.7145 24.0738L13.3423 26.9969L10.9277 29.023L9.04953 24.0745L4.49986 21.3625L6.90677 19.3429L9.83858 19.4936L12.5274 17.2374ZM16.1371 16.8193L10.6152 21.4475L7.78711 21.215L10.6794 22.7017L11.6262 25.8261L11.8704 23.0103L17.4212 18.3527L19.2088 24.3288L20.0656 16.1338C21.3165 15.0841 22.7595 13.9739 23.9573 12.8656C24.526 12.3127 24.6745 11.2078 24.5543 11.0645C24.4186 10.9029 23.2138 10.8905 22.6125 11.3858L18.7593 14.619L10.5464 14.024" fill="#F20C02"/>
</g>
<defs>
<clipPath id="clip0_4385_14986">
<rect width="24" height="24" fill="white" transform="translate(0 16) rotate(-40)"/>
</clipPath>
</defs>
</svg>
