<svg width="18" height="9" viewBox="0 0 18 9" fill="none" xmlns="http://www.w3.org/2000/svg">
<path d="M8.99953 8.80014C8.29953 8.80014 7.59953 8.53014 7.06953 8.00014L0.549531 1.48014C0.259531 1.19014 0.259531 0.710137 0.549531 0.420137C0.839531 0.130137 1.31953 0.130137 1.60953 0.420137L8.12953 6.94014C8.60953 7.42014 9.38953 7.42014 9.86953 6.94014L16.3895 0.420137C16.6795 0.130137 17.1595 0.130137 17.4495 0.420137C17.7395 0.710137 17.7395 1.19014 17.4495 1.48014L10.9295 8.00014C10.3995 8.53014 9.69953 8.80014 8.99953 8.80014Z" fill="#1A33B2"/>
<path d="M8.99953 8.80014C8.29953 8.80014 7.59953 8.53014 7.06953 8.00014L0.549531 1.48014C0.259531 1.19014 0.259531 0.710137 0.549531 0.420137C0.839531 0.130137 1.31953 0.130137 1.60953 0.420137L8.12953 6.94014C8.60953 7.42014 9.38953 7.42014 9.86953 6.94014L16.3895 0.420137C16.6795 0.130137 17.1595 0.130137 17.4495 0.420137C17.7395 0.710137 17.7395 1.19014 17.4495 1.48014L10.9295 8.00014C10.3995 8.53014 9.69953 8.80014 8.99953 8.80014Z" fill="black" fill-opacity="0.2"/>
</svg>
