<svg width="17" height="17" fill="none" xmlns="http://www.w3.org/2000/svg"><path d="M8.5 15.64c-.213 0-.425-.05-.602-.148-1.325-.723-3.655-1.488-5.114-1.679l-.206-.028C1.65 13.67.885 12.8.885 11.858V3.301c0-.56.22-1.07.624-1.438a1.915 1.915 0 0 1 1.48-.495c1.558.12 3.91.9 5.242 1.735l.17.1c.05.027.156.027.198.006l.113-.07c1.332-.836 3.684-1.63 5.25-1.764h.084a1.878 1.878 0 0 1 1.445.503c.404.368.623.878.623 1.437v8.55c0 .95-.764 1.813-1.7 1.927l-.233.028c-1.46.191-3.797.963-5.093 1.679-.17.099-.376.141-.588.141ZM2.82 2.423a.866.866 0 0 0-.596.227.876.876 0 0 0-.276.651v8.557c0 .418.361.822.765.878l.212.029c1.594.212 4.038 1.013 5.455 1.785.063.028.155.035.19.02 1.417-.785 3.875-1.593 5.476-1.805l.241-.029c.404-.05.765-.46.765-.878v-8.55c0-.262-.1-.488-.276-.658a.925.925 0 0 0-.68-.227h-.085c-1.353.12-3.535.85-4.725 1.594l-.113.078c-.39.24-.942.24-1.318.007l-.17-.1c-1.21-.743-3.393-1.466-4.78-1.579h-.086Z" fill="#6F757E"/><path d="M8.5 15.045a.535.535 0 0 1-.531-.531V3.889c0-.29.24-.532.531-.532.29 0 .531.241.531.532v10.625a.53.53 0 0 1-.531.53ZM5.49 6.545H3.896a.535.535 0 0 1-.531-.531c0-.29.24-.532.53-.532H5.49c.29 0 .53.241.53.532 0 .29-.24.53-.53.53ZM6.02 8.67H3.897a.535.535 0 0 1-.531-.531c0-.29.24-.532.53-.532h2.126c.29 0 .531.241.531.532 0 .29-.24.53-.531.53Z" fill="#6F757E"/></svg>