<svg width="24" height="24" viewBox="0 0 24 24" fill="none" xmlns="http://www.w3.org/2000/svg">
<g clip-path="url(#clip0_4385_14992)">
<path fill-rule="evenodd" clip-rule="evenodd" d="M19 22H21V10.069C19.84 9.316 18.485 8.56 17.185 8.017C17.514 7.473 17.759 6.828 17.882 6.14C19.703 6.89 21.381 7.893 23 9V22H24V24H0V22H1V9C2.615 7.916 4.298 6.92 6.122 6.17C6.259 6.834 6.509 7.463 6.85 8.033C5.49 8.596 4.236 9.3 3.011 10.073L3 10.08V22H5V17H19V22ZM7 23H10V19H7V23ZM11 23H13V19H11V23ZM14 23H17V19H14V23ZM5 16H7V14H5V16ZM9 16H11V14H9V16ZM13 16H15V14H13V16ZM17 16H19V14H17V16ZM5 13H7V11H5V13ZM9 13H11V11H9V13ZM13 13H15V11H13V13ZM17 13H19V11H17V13ZM12 0C14.76 0 17 2.24 17 5C17 7.76 14.76 10 12 10C9.24 10 7 7.76 7 5C7 2.24 9.24 0 12 0ZM13 4V2H11V4H9V6H11V8H13V6H15V4H13Z" fill="#0B63E6"/>
</g>
<defs>
<clipPath id="clip0_4385_14992">
<rect width="24" height="24" fill="white"/>
</clipPath>
</defs>
</svg>
