<svg width="18" height="17" fill="none" xmlns="http://www.w3.org/2000/svg"><path d="M14.666 8.323H3.333a.513.513 0 0 1-.41-.198.53.53 0 0 1-.107-.446l.8-3.825c.262-1.24.794-2.38 2.897-2.38h4.98c2.104 0 2.635 1.147 2.897 2.38l.8 3.832a.536.536 0 0 1-.106.446.554.554 0 0 1-.418.191ZM3.985 7.261h10.023l-.666-3.188c-.199-.928-.432-1.537-1.856-1.537H6.513c-1.423 0-1.657.61-1.855 1.537l-.673 3.188Z" fill="#292D32"/><path d="M14.638 16.115h-1.332c-1.147 0-1.367-.659-1.508-1.09l-.142-.426c-.184-.538-.206-.61-.843-.61H7.186c-.637 0-.68.121-.843.61l-.141.425c-.149.44-.361 1.09-1.509 1.09H3.361c-.56 0-1.098-.233-1.473-.644a1.933 1.933 0 0 1-.496-1.48l.397-4.314c.106-1.169.418-2.415 2.692-2.415h9.038c2.274 0 2.578 1.246 2.691 2.415l.397 4.314a1.933 1.933 0 0 1-.496 1.48 2 2 0 0 1-1.473.645Zm-7.452-3.188h3.627c1.29 0 1.594.574 1.849 1.325l.148.44c.121.36.121.367.503.367h1.332c.262 0 .51-.106.687-.297a.856.856 0 0 0 .227-.666l-.397-4.314c-.092-.956-.205-1.452-1.629-1.452H4.481c-1.431 0-1.545.496-1.63 1.452l-.396 4.314a.856.856 0 0 0 .226.666.92.92 0 0 0 .687.297H4.7c.383 0 .383-.007.503-.36l.142-.433c.177-.566.439-1.339 1.841-1.339ZM3.333 6.198h-.708a.535.535 0 0 1-.531-.531c0-.29.24-.531.53-.531h.71c.29 0 .53.24.53.531 0 .29-.24.531-.53.531ZM15.375 6.198h-.709a.535.535 0 0 1-.53-.531c0-.29.24-.531.53-.531h.709c.29 0 .531.24.531.531 0 .29-.24.531-.531.531ZM9 4.073a.535.535 0 0 1-.531-.531V2.125c0-.29.24-.531.53-.531.291 0 .532.24.532.531v1.417c0 .29-.24.53-.531.53Z" fill="#292D32"/><path d="M10.062 4.073H7.937a.535.535 0 0 1-.531-.531c0-.29.24-.531.531-.531h2.125c.29 0 .532.24.532.531 0 .29-.241.531-.532.531ZM6.875 11.156H4.75a.535.535 0 0 1-.531-.531c0-.29.24-.531.53-.531h2.126c.29 0 .531.24.531.531 0 .29-.24.531-.531.531ZM13.25 11.156h-2.125a.535.535 0 0 1-.531-.531c0-.29.24-.531.53-.531h2.126c.29 0 .531.24.531.531 0 .29-.24.531-.531.531Z" fill="#292D32"/></svg>