<svg width="23" height="18" viewBox="0 0 23 18" fill="none" xmlns="http://www.w3.org/2000/svg">
<path d="M19.8344 1H3.09271C1.93694 1 1 1.89543 1 3V15C1 16.1046 1.93694 17 3.09271 17H19.8344C20.9901 17 21.9271 16.1046 21.9271 15V3C21.9271 1.89543 20.9901 1 19.8344 1Z" stroke="#F5FAFF" stroke-width="2" stroke-linecap="round" stroke-linejoin="round"/>
<path d="M11.4637 7.016C11.1908 6.69983 10.8484 6.44492 10.4609 6.26934C10.0734 6.09375 9.65023 6.0018 9.22137 6C7.57127 6 6.23193 7.343 6.23193 9C6.23193 10.657 7.57127 12 9.22137 12C10.115 12 10.9165 11.607 11.4637 10.984M16.6955 9C16.6955 10.657 15.3561 12 13.706 12C12.0549 12 10.7166 10.657 10.7166 9C10.7166 7.343 12.0549 6 13.706 6C15.3561 6 16.6955 7.343 16.6955 9Z" stroke="#F5FAFF" stroke-width="2" stroke-linecap="round" stroke-linejoin="round"/>
</svg>
