<svg width="23" height="18" fill="none" xmlns="http://www.w3.org/2000/svg"><path d="M19.834 1H3.093C1.937 1 1 1.895 1 3v12c0 1.105.937 2 2.093 2h16.741c1.156 0 2.093-.895 2.093-2V3c0-1.105-.937-2-2.093-2Z" stroke="#F5FAFF" stroke-width="2" stroke-linecap="round" stroke-linejoin="round"/><path d="M11.464 7.016a2.91 2.91 0 0 0-1.003-.747A3.036 3.036 0 0 0 9.22 6a2.995 2.995 0 0 0-2.99 3c0 1.657 1.34 3 2.99 3 .894 0 1.695-.393 2.243-1.016M16.695 9c0 1.657-1.339 3-2.989 3a2.995 2.995 0 0 1-2.99-3c0-1.657 1.339-3 2.99-3 1.65 0 2.99 1.343 2.99 3Z" stroke="#F5FAFF" stroke-width="2" stroke-linecap="round" stroke-linejoin="round"/></svg>