<svg width="24" height="24" viewBox="0 0 24 24" fill="none" xmlns="http://www.w3.org/2000/svg">
<path d="M20.25 3H0.75V18H20.25V3ZM18.75 16.5H2.25V4.5H18.75V16.5Z" fill="#1A33B2"/>
<path d="M20.25 3H0.75V18H20.25V3ZM18.75 16.5H2.25V4.5H18.75V16.5Z" fill="white" fill-opacity="1"/>
<path d="M21.75 6.75V19.5H4.5V21H23.25V6.75H21.75Z" fill="#1A33B2"/>
<path d="M21.75 6.75V19.5H4.5V21H23.25V6.75H21.75Z" fill="white" fill-opacity="1"/>
<path d="M10.5 14.1778C12.3609 14.1778 13.875 12.5308 13.875 10.5063C13.875 8.4818 12.3609 6.83475 10.5 6.83475C8.63906 6.83475 7.125 8.48175 7.125 10.5063C7.125 12.5308 8.63906 14.1778 10.5 14.1778ZM10.5 8.33475C11.5339 8.33475 12.375 9.30891 12.375 10.5063C12.375 11.7037 11.5339 12.6778 10.5 12.6778C9.46613 12.6778 8.625 11.7037 8.625 10.5063C8.625 9.30891 9.46613 8.33475 10.5 8.33475ZM3.75 6.375H5.25V14.625H3.75V6.375ZM15.75 6.375H17.25V14.625H15.75V6.375Z" fill="#1A33B2"/>
<path d="M10.5 14.1778C12.3609 14.1778 13.875 12.5308 13.875 10.5063C13.875 8.4818 12.3609 6.83475 10.5 6.83475C8.63906 6.83475 7.125 8.48175 7.125 10.5063C7.125 12.5308 8.63906 14.1778 10.5 14.1778ZM10.5 8.33475C11.5339 8.33475 12.375 9.30891 12.375 10.5063C12.375 11.7037 11.5339 12.6778 10.5 12.6778C9.46613 12.6778 8.625 11.7037 8.625 10.5063C8.625 9.30891 9.46613 8.33475 10.5 8.33475ZM3.75 6.375H5.25V14.625H3.75V6.375ZM15.75 6.375H17.25V14.625H15.75V6.375Z" fill="white" fill-opacity="1"/>
</svg>
