<svg width="24" height="24" viewBox="0 0 24 24" fill="none" xmlns="http://www.w3.org/2000/svg">
<g clip-path="url(#clip0_4398_14944)">
<path fill-rule="evenodd" clip-rule="evenodd" d="M14.8 21.314C13.615 21.754 12.337 22 11 22C4.925 22 0 17.076 0 11C0 4.926 4.925 0 11 0C17.074 0 21.999 4.926 21.999 11C21.999 11.463 21.967 11.918 21.909 12.365C22.173 12.647 22.33 13.031 22.33 13.468V13.492L22.451 13.487C23.332 13.487 23.998 14.162 23.998 15.057L24 20.896C24 22.81 22.787 24 20.833 24H18.193C16.123 24 15.433 22.594 15.099 21.916L14.8 21.314ZM20.833 23C22.251 23 23 22.234 23 20.896L22.998 15.057C22.998 14.671 22.724 14.487 22.451 14.487C22.175 14.487 21.902 14.672 21.902 15.022V17.582C21.902 17.757 21.761 17.841 21.621 17.841C21.476 17.841 21.33 17.752 21.33 17.582V13.468C21.33 13.072 21.042 12.879 20.753 12.879C20.46 12.879 20.166 13.078 20.166 13.468V17.352C20.166 17.516 20.035 17.597 19.902 17.597C19.769 17.597 19.634 17.513 19.634 17.347V12.79C19.634 12.399 19.349 12.2 19.021 12.2C18.699 12.2 18.449 12.393 18.449 12.79L18.447 17.399C18.447 17.582 18.304 17.674 18.162 17.674C18.017 17.674 17.875 17.582 17.875 17.399V13.527C17.875 13.158 17.591 12.97 17.31 12.97C17.033 12.97 16.757 13.152 16.757 13.527V18.321C16.757 18.475 16.646 18.555 16.531 18.555C16.447 18.555 16.359 18.513 16.312 18.427L15.527 16.983C15.375 16.691 15.095 16.564 14.818 16.564C14.408 16.564 14 16.841 14 17.275C14 17.386 14.027 17.508 14.085 17.637C14.197 17.902 15.642 20.749 15.998 21.476C16.373 22.238 16.845 23 18.193 23H20.833ZM20.957 11.891C20.984 11.598 20.999 11.301 20.999 11C20.999 5.486 16.513 1 11 1C5.486 1 1 5.486 1 11C1 16.514 5.486 21 11 21C12.176 21 13.301 20.791 14.348 20.413L14.302 20.321C13.584 18.888 13.236 18.194 13.177 18.056C13.06 17.801 13 17.538 13 17.275C13 16.332 13.816 15.564 14.818 15.564C15.162 15.564 15.482 15.653 15.757 15.818V13.527C15.757 12.639 16.425 11.97 17.31 11.97L17.636 12.002C17.894 11.512 18.4 11.2 19.021 11.2C19.611 11.2 20.107 11.48 20.388 11.92C20.505 11.893 20.626 11.879 20.753 11.879L20.957 11.891ZM8.438 17.882C6.449 17.136 4.869 15.553 4.13 13.561L3.195 13.677C4.016 16.086 5.916 17.988 8.321 18.816L8.438 17.882ZM8.676 15.979C7.51 15.432 6.569 14.489 6.022 13.323L5.068 13.444C5.718 15.022 6.978 16.282 8.558 16.933L8.676 15.979ZM11 7.334C13.025 7.334 14.667 8.975 14.667 11C14.667 13.025 13.025 14.667 11 14.667C8.974 14.667 7.333 13.025 7.333 11C7.333 8.975 8.974 7.334 11 7.334ZM11 8.334C9.53 8.334 8.333 9.53 8.333 11C8.333 12.471 9.53 13.667 11 13.667C12.471 13.667 13.667 12.471 13.667 11C13.667 9.53 12.471 8.334 11 8.334ZM10.084 11C10.084 11.506 10.494 11.917 11 11.917C11.506 11.917 11.917 11.506 11.917 11C11.917 10.494 11.506 10.084 11 10.084C10.494 10.084 10.084 10.494 10.084 11ZM16.933 8.557C16.283 6.98 15.021 5.719 13.443 5.069L13.324 6.023C14.49 6.569 15.431 7.511 15.98 8.677L16.933 8.557ZM17.857 8.442C17.111 6.465 15.538 4.895 13.556 4.155L13.675 3.221C16.07 4.043 17.964 5.933 18.792 8.325L17.857 8.442Z" fill="#F89246"/>
</g>
<defs>
<clipPath id="clip0_4398_14944">
<rect width="24" height="24" fill="white"/>
</clipPath>
</defs>
</svg>
