<svg width="24" height="24" viewBox="0 0 24 24" fill="none" xmlns="http://www.w3.org/2000/svg">
<g clip-path="url(#clip0_4385_14964)">
<path fill-rule="evenodd" clip-rule="evenodd" d="M11.342 10.892C11.754 10.378 12.067 9.985 12.23 9.775C12.345 9.627 12.362 9.414 12.318 9.232C12.092 8.396 11.71 6.898 13.157 5.383C14.819 3.642 17.912 0.969 19.023 0L24 3.889C23.348 5.183 21.523 8.846 20.259 10.883C19.107 12.741 17.533 12.696 16.637 12.668C16.448 12.669 16.257 12.747 16.14 12.897C15.892 13.214 15.293 13.961 14.525 14.915L18.496 19.965C19.345 21.05 19.152 22.625 18.066 23.474C17.639 23.807 17.078 24 16.503 24C15.801 24 15.078 23.712 14.555 23.043L11.282 18.936C9.708 20.885 8.323 22.63 8.045 22.987C7.537 23.636 6.806 24 6.056 24C5.545 24 5.026 23.832 4.562 23.469C3.322 22.501 3.248 21.005 4.105 19.909C4.505 19.396 6.268 17.184 8.077 14.943L7.455 14.167L5.449 15.735C3.534 13.107 0 6.146 0 2.434C0 -0.095 1.774 0.001 1.837 0.001C2.38 0.001 2.921 0.249 3.296 0.724C3.72 1.258 7.604 6.167 11.342 10.892ZM7.8 11.361L16.131 21.812C16.362 22.107 16.709 21.996 16.833 21.899L16.834 21.898C17.051 21.728 17.09 21.414 16.92 21.196C16.92 21.196 3.501 4.22 1.961 2.262C1.891 3.688 3.146 7.93 5.963 12.796L7.8 11.361ZM9.357 16.538L5.744 21.059C5.571 21.281 5.419 21.601 5.747 21.857C6.075 22.114 6.348 21.911 6.532 21.675L9.998 17.336L9.357 16.538ZM13.247 13.299L14.672 11.528C15.031 11.067 15.434 10.672 16.443 10.666C17.201 10.662 17.918 10.863 18.561 9.829C19.684 8.016 21.605 4.556 21.605 4.556L21.209 4.246L18.156 8.206L17.498 7.692L20.479 3.676L20.067 3.354L16.88 7.208L16.235 6.705L19.313 2.766L18.938 2.472C18.938 2.472 16.071 5.227 14.604 6.764C13.795 7.611 14.155 8.277 14.326 9.002C14.557 9.982 14.24 10.455 13.886 10.909L12.61 12.495L13.247 13.299Z" fill="#FFF44F"/>
</g>
<defs>
<clipPath id="clip0_4385_14964">
<rect width="24" height="24" fill="white"/>
</clipPath>
</defs>
</svg>
