<svg width="17" height="17" fill="none" xmlns="http://www.w3.org/2000/svg"><path d="M11.312 16.114H5.645c-2.422 0-3.364-.942-3.364-3.364V7.083c0-.29.24-.531.531-.531h11.334c.29 0 .53.24.53.531v5.667c0 2.422-.941 3.364-3.364 3.364Zm-7.969-8.5v5.136c0 1.827.475 2.302 2.302 2.302h5.667c1.828 0 2.302-.475 2.302-2.302V7.614H3.344Z" fill="#6F757E"/><path d="M13.813 7.615H3.188c-1.24 0-1.948-.708-1.948-1.948v-.708c0-1.24.708-1.948 1.948-1.948h10.624c1.205 0 1.949.743 1.949 1.948v.708c0 1.204-.744 1.948-1.948 1.948ZM3.188 4.073c-.645 0-.886.241-.886.886v.708c0 .645.241.885.886.885h10.624c.624 0 .886-.262.886-.885v-.708c0-.624-.262-.886-.886-.886H3.188Z" fill="#6F757E"/><path d="M8.245 4.073h-3.91a.536.536 0 0 1-.39-.17 1.2 1.2 0 0 1 .036-1.658L4.987 1.24a1.214 1.214 0 0 1 1.707 0L8.62 3.166a.533.533 0 0 1-.375.907ZM4.725 3.01H6.97L5.943 1.99a.145.145 0 0 0-.205 0L4.732 2.996c0 .007-.007.007-.007.014Z" fill="#6F757E"/><path d="M12.658 4.073h-3.91a.525.525 0 0 1-.489-.326.536.536 0 0 1 .114-.581l1.926-1.927a1.214 1.214 0 0 1 1.707 0l1.006 1.006c.454.453.475 1.183.036 1.658-.1.106-.241.17-.39.17Zm-2.62-1.063h2.245l-.015-.014-1.005-1.006a.145.145 0 0 0-.206 0l-1.02 1.02ZM7.04 11.97a1.241 1.241 0 0 1-1.24-1.24V7.084c.001-.29.242-.531.533-.531h4.278c.29 0 .531.24.531.531v3.634c0 .46-.248.878-.652 1.09-.403.22-.892.192-1.275-.063l-.63-.425a.17.17 0 0 0-.198 0l-.666.439a1.204 1.204 0 0 1-.68.213Zm-.176-4.356v3.11c0 .092.056.134.092.156a.172.172 0 0 0 .184-.007l.666-.44a1.231 1.231 0 0 1 1.367 0l.63.425c.078.05.15.029.185.008a.172.172 0 0 0 .092-.156V7.607H6.864v.007Z" fill="#6F757E"/></svg>