<svg width="17" height="17" fill="none" xmlns="http://www.w3.org/2000/svg"><path d="M8.5 16.115A7.621 7.621 0 0 1 .885 8.5C.885 4.3 4.3.886 8.5.886A7.62 7.62 0 0 1 16.114 8.5c0 .29-.24.532-.53.532a.535.535 0 0 1-.532-.532A6.56 6.56 0 0 0 8.5 1.948 6.56 6.56 0 0 0 1.948 8.5 6.56 6.56 0 0 0 8.5 15.052c.29 0 .531.241.531.532 0 .29-.24.53-.531.53Z" fill="#6F757E"/><path d="M6.375 15.406h-.708a.535.535 0 0 1-.531-.531c0-.29.226-.524.517-.531a20.889 20.889 0 0 1 0-11.688.532.532 0 0 1-.517-.531c0-.29.24-.531.53-.531h.71a.532.532 0 0 1 .503.701 19.797 19.797 0 0 0 0 12.417.518.518 0 0 1-.503.694ZM11.66 9.031a.535.535 0 0 1-.532-.531c0-2.11-.34-4.2-1.006-6.205a.533.533 0 0 1 .333-.673.533.533 0 0 1 .673.333A20.73 20.73 0 0 1 12.19 8.5c0 .29-.24.531-.53.531Z" fill="#6F757E"/><path d="M8.5 12.19c-1.983 0-3.945-.283-5.844-.843a.532.532 0 0 1-.531.517.535.535 0 0 1-.531-.531v-.708c0-.17.085-.333.22-.432a.532.532 0 0 1 .481-.071A19.66 19.66 0 0 0 8.5 11.127c.29 0 .531.241.531.532 0 .29-.24.531-.531.531ZM14.875 6.906a.477.477 0 0 1-.17-.028 19.796 19.796 0 0 0-12.417 0 .533.533 0 0 1-.673-.333.533.533 0 0 1 .333-.673 20.767 20.767 0 0 1 13.083 0 .533.533 0 0 1 .333.673.502.502 0 0 1-.489.36ZM12.892 15.69a2.8 2.8 0 0 1-2.798-2.798 2.8 2.8 0 0 1 2.798-2.798 2.8 2.8 0 0 1 2.798 2.798 2.8 2.8 0 0 1-2.798 2.798Zm0-4.534c-.957 0-1.736.78-1.736 1.736s.78 1.735 1.736 1.735 1.735-.78 1.735-1.735c0-.957-.78-1.736-1.735-1.736Z" fill="#6F757E"/><path d="M15.583 16.115a.525.525 0 0 1-.375-.156l-.709-.708a.534.534 0 0 1 0-.751.534.534 0 0 1 .751 0l.709.708a.535.535 0 0 1 0 .751.526.526 0 0 1-.376.156Z" fill="#6F757E"/></svg>