<svg width="24" height="22" fill="none" xmlns="http://www.w3.org/2000/svg"><path d="M11.075 1.633c.32-.844 1.53-.844 1.852 0l2.07 5.734a.99.99 0 0 0 .926.633h5.087c.94 0 1.35 1.17.61 1.743L18 13a.967.967 0 0 0-.321 1.092L19 19.695c.322.9-.72 1.673-1.508 1.119l-4.917-3.12a1 1 0 0 0-1.15 0l-4.917 3.12c-.787.554-1.83-.22-1.508-1.12l1.322-5.602A.968.968 0 0 0 6 13L2.38 9.743C1.64 9.17 2.053 8 2.99 8h5.087a.99.99 0 0 0 .926-.633l2.07-5.734h0Z" stroke="#F5FAFF" stroke-width="2" stroke-linecap="round" stroke-linejoin="round"/></svg>