<svg width="13" height="14" fill="none" xmlns="http://www.w3.org/2000/svg"><path d="M12.398 5.996a.1.1 0 0 1 .099.1v1.043a6.171 6.171 0 0 1-6.213 6.17A6.155 6.155 0 0 1 .156 7.124a6.17 6.17 0 0 1 10.46-4.42.1.1 0 0 1 .002.142L9.144 4.322a.099.099 0 0 1-.139.002 3.872 3.872 0 0 0-2.678-1.071 3.874 3.874 0 0 0-3.886 3.859 3.886 3.886 0 0 0 7.6 1.169H6.427a.1.1 0 0 1-.099-.1V6.096a.1.1 0 0 1 .1-.1h5.97Z" fill="#2196F3"/><path d="M12.398 5.997h-.745a.1.1 0 0 1 .1.1v1.042a6.172 6.172 0 0 1-5.798 6.159 6.172 6.172 0 0 0 6.543-6.159V6.096a.1.1 0 0 0-.1-.099Z" fill="#1E88E5"/><path d="M2.798 5.511.924 4.157A6.168 6.168 0 0 1 6.327.97a6.15 6.15 0 0 1 4.29 1.735.1.1 0 0 1 .002.143L9.144 4.322a.099.099 0 0 1-.138.002A3.886 3.886 0 0 0 2.798 5.51Z" fill="#F44336"/><path d="m2.257 5.12.54.391a3.888 3.888 0 0 1 3.126-2.237l.031-.003a3.874 3.874 0 0 0-3.697 1.85ZM9.873 2.704a.1.1 0 0 1 .001.143L8.677 4.044c.115.087.224.18.329.28.039.037.1.036.138-.002l1.475-1.475a.1.1 0 0 0-.002-.143A6.15 6.15 0 0 0 5.955.98c1.519.09 2.89.73 3.918 1.724Z" fill="#E53935"/><path d="M10.853 11.331A6.17 6.17 0 0 1 .808 9.897l1.913-1.31a3.887 3.887 0 0 0 6.258 1.39l1.874 1.354Z" fill="#4CAF50"/><path d="m2.72 8.587-.563.386a3.885 3.885 0 0 0 3.797 2.033 3.889 3.889 0 0 1-3.233-2.42ZM6.327 13.308c1.789 0 3.4-.76 4.526-1.976L10.394 11a6.158 6.158 0 0 1-4.438 2.297c.123.008.246.011.371.011Z" fill="#43A047"/><path d="M2.442 7.14c0 .511.099 1 .279 1.448L.808 9.898a6.141 6.141 0 0 1-.65-2.759c0-1.08.277-2.097.766-2.98l1.874 1.353a3.87 3.87 0 0 0-.356 1.627Z" fill="#FFC107"/><path d="m2.156 8.973.565-.386a3.874 3.874 0 0 1-.28-1.449c0-.58.128-1.132.357-1.627l-.541-.39a3.88 3.88 0 0 0-.56 1.99 3.869 3.869 0 0 0 .46 1.862Z" fill="#FFB300"/></svg>