<svg width="20" height="20" fill="none" xmlns="http://www.w3.org/2000/svg"><path d="M9.29 13.29a1.578 1.578 0 0 0-.12.15.76.76 0 0 0-.09.18.64.64 0 0 0-.06.18 1.36 1.36 0 0 0 0 .2.84.84 0 0 0 .08.38.9.9 0 0 0 .54.54.94.94 0 0 0 .76 0 .9.9 0 0 0 .54-.54A1 1 0 0 0 11 14a1 1 0 0 0-1.71-.71ZM10 0a10 10 0 1 0 0 20 10 10 0 0 0 0-20Zm0 18a8 8 0 1 1 0-16 8 8 0 0 1 0 16Zm0-13a3 3 0 0 0-2.6 1.5 1 1 0 1 0 1.73 1A1 1 0 0 1 10 7a1 1 0 1 1 0 2 1 1 0 0 0-1 1v1a1 1 0 1 0 2 0v-.18A3 3 0 0 0 10 5Z" fill="#F5FAFF"/></svg>