<svg width="17" height="17" fill="none" xmlns="http://www.w3.org/2000/svg"><path d="M15.583 16.114H1.417a.535.535 0 0 1-.532-.531c0-.29.241-.531.532-.531h14.166c.29 0 .531.24.531.531 0 .29-.24.531-.53.531Z" fill="#292D32"/><path d="M2.621 15.583H1.558l.036-8.52c0-.603.276-1.162.75-1.53l4.96-3.861a1.956 1.956 0 0 1 2.393 0l4.959 3.853c.467.368.75.942.75 1.537v8.521h-1.062V7.07a.907.907 0 0 0-.34-.701L9.046 2.515a.893.893 0 0 0-1.091 0l-4.959 3.86a.883.883 0 0 0-.34.694l-.035 8.514Z" fill="#292D32"/><path d="M12.042 16.115H4.958a.535.535 0 0 1-.53-.531v-6.73c0-.878.715-1.593 1.593-1.593h4.958c.879 0 1.594.715 1.594 1.593v6.73c0 .29-.24.53-.531.53ZM5.49 15.052h6.02V8.854c0-.29-.24-.53-.53-.53H6.02c-.29 0-.53.24-.53.53v6.198Z" fill="#292D32"/><path d="M7.083 13.104a.535.535 0 0 1-.53-.53V11.51c0-.29.24-.531.53-.531.29 0 .532.24.532.53v1.063c0 .29-.241.531-.532.531ZM9.563 5.844H7.437a.535.535 0 0 1-.53-.532c0-.29.24-.53.53-.53h2.125c.29 0 .532.24.532.53 0 .29-.241.532-.531.532Z" fill="#292D32"/></svg>