<svg width="19" height="18" fill="none" xmlns="http://www.w3.org/2000/svg"><path d="M1.046 10h6.278c.278 0 .544-.105.74-.293A.978.978 0 0 0 8.371 9V1c0-.265-.11-.52-.307-.707A1.071 1.071 0 0 0 7.324 0H1.046C.77 0 .503.105.306.293A.978.978 0 0 0 0 1v8c0 .265.11.52.306.707.197.188.463.293.74.293ZM0 17c0 .265.11.52.306.707.197.188.463.293.74.293h6.278c.278 0 .544-.105.74-.293A.978.978 0 0 0 8.371 17v-4c0-.265-.11-.52-.307-.707a1.072 1.072 0 0 0-.74-.293H1.046c-.277 0-.543.105-.74.293A.978.978 0 0 0 0 13v4Zm10.463 0c0 .265.11.52.307.707.196.188.462.293.74.293h6.278c.277 0 .544-.105.74-.293a.978.978 0 0 0 .306-.707v-7c0-.265-.11-.52-.306-.707a1.072 1.072 0 0 0-.74-.293H11.51c-.278 0-.544.105-.74.293a.978.978 0 0 0-.306.707v7ZM11.51 7h6.278c.277 0 .544-.105.74-.293A.978.978 0 0 0 18.834 6V1c0-.265-.11-.52-.306-.707a1.071 1.071 0 0 0-.74-.293H11.51c-.278 0-.544.105-.74.293a.978.978 0 0 0-.306.707v5c0 .265.11.52.306.707.196.188.462.293.74.293Z" fill="#fff"/></svg>