<svg width="30" height="30" viewBox="0 0 30 30" fill="none" xmlns="http://www.w3.org/2000/svg">
<circle cx="15" cy="15" r="15" fill="#1A33B2"/>
<circle cx="15" cy="15" r="15" fill="black" fill-opacity="0.2"/>
<path d="M21 15.75H9C8.59 15.75 8.25 15.41 8.25 15C8.25 14.59 8.59 14.25 9 14.25H21C21.41 14.25 21.75 14.59 21.75 15C21.75 15.41 21.41 15.75 21 15.75Z" fill="white"/>
<path d="M15 21.75C14.59 21.75 14.25 21.41 14.25 21V9C14.25 8.59 14.59 8.25 15 8.25C15.41 8.25 15.75 8.59 15.75 9V21C15.75 21.41 15.41 21.75 15 21.75Z" fill="white"/>
</svg>
