<svg width="24" height="24" fill="none" xmlns="http://www.w3.org/2000/svg"><path d="m23.46 15.05-1.835-1.5a9.215 9.215 0 0 0 0-3.096l1.835-1.5a.854.854 0 0 0 .285-.433.823.823 0 0 0-.024-.51l-.025-.07a11.772 11.772 0 0 0-2.234-3.694l-.05-.056a.907.907 0 0 0-.451-.273.94.94 0 0 0-.533.018l-2.279.775a9.998 9.998 0 0 0-2.795-1.543L14.914.89a.847.847 0 0 0-.249-.452.913.913 0 0 0-.474-.237L14.116.19a13.241 13.241 0 0 0-4.457 0l-.076.013A.913.913 0 0 0 9.11.44.847.847 0 0 0 8.86.89l-.443 2.287a9.981 9.981 0 0 0-2.775 1.538l-2.295-.78a.937.937 0 0 0-.534-.019.903.903 0 0 0-.45.274l-.05.056A11.832 11.832 0 0 0 .077 7.941l-.025.07a.836.836 0 0 0 .26.943l1.86 1.516a9.017 9.017 0 0 0-.13 1.53c0 .514.042 1.028.13 1.53l-1.86 1.515a.854.854 0 0 0-.283.433.822.822 0 0 0 .023.51l.025.07a11.801 11.801 0 0 0 2.234 3.694l.05.056a.907.907 0 0 0 .451.273.94.94 0 0 0 .534-.018l2.295-.78a9.912 9.912 0 0 0 2.775 1.538l.443 2.287c.033.172.12.33.25.452.129.123.294.206.473.237l.076.013a13.17 13.17 0 0 0 4.457 0l.075-.013a.912.912 0 0 0 .474-.237.848.848 0 0 0 .25-.452l.44-2.277a9.932 9.932 0 0 0 2.794-1.543l2.279.775a.936.936 0 0 0 .533.019.903.903 0 0 0 .45-.274l.051-.056a11.832 11.832 0 0 0 2.234-3.694l.025-.07a.83.83 0 0 0-.26-.937Zm-3.826-4.28a7.25 7.25 0 0 1 0 2.47l-.184 1.074 2.093 1.712a9.817 9.817 0 0 1-1.194 1.971l-2.6-.881-.881.691a7.926 7.926 0 0 1-2.223 1.227l-1.068.383-.501 2.598c-.792.086-1.591.086-2.383 0l-.502-2.603-1.06-.389A7.934 7.934 0 0 1 6.927 17.8l-.88-.694-2.618.89a10.024 10.024 0 0 1-1.194-1.972l2.116-1.728-.182-1.071a7.379 7.379 0 0 1-.104-1.22c0-.409.034-.819.104-1.218l.182-1.071-2.116-1.728c.317-.7.717-1.358 1.194-1.972l2.618.89.88-.694a7.935 7.935 0 0 1 2.206-1.224l1.062-.384L10.696 2a11.069 11.069 0 0 1 2.383 0l.501 2.598 1.068.383c.805.29 1.553.702 2.223 1.227l.88.691 2.601-.881a10.02 10.02 0 0 1 1.194 1.971l-2.094 1.712.182 1.069ZM11.89 7.022c-2.724 0-4.933 2.111-4.933 4.715 0 2.604 2.209 4.715 4.933 4.715 2.724 0 4.933-2.111 4.933-4.715 0-2.604-2.209-4.715-4.933-4.715Zm2.22 6.837c-.291.279-.637.5-1.018.65-.381.152-.79.229-1.202.228a3.203 3.203 0 0 1-2.22-.878 2.985 2.985 0 0 1-.681-.973 2.875 2.875 0 0 1-.238-1.149c0-.801.328-1.554.92-2.122a3.191 3.191 0 0 1 2.219-.878c.838 0 1.626.31 2.22.878.292.279.524.61.681.973.158.365.239.755.238 1.149 0 .8-.328 1.554-.919 2.122Z" fill="#F5FAFF"/></svg>