<svg width="62" height="68" fill="none" xmlns="http://www.w3.org/2000/svg"><path d="M19.58 12.118a10.072 10.072 0 0 1 7.5-6.25l7.277-1.393-19.839 52.766a10.072 10.072 0 0 1-12.636 6.003L0 62.612l19.58-50.494Z" fill="#F5FAFF"/><rect x="35.973" y="5.601" width="8.507" height="39.283" rx="2.518" transform="rotate(20.478 35.973 5.6)" fill="#F5FAFF"/><rect x="45.744" y="10.776" width="7.512" height="32.232" rx="2.518" transform="rotate(19.996 45.744 10.776)" fill="#F5FAFF"/><path d="M50.746 26.85a2.518 2.518 0 0 1 3.255-1.447l1.88.724a2.518 2.518 0 0 1 1.446 3.254L53.32 39.795a5.036 5.036 0 0 1-6.509 2.892l-1.88-.723 5.815-15.115Z" fill="#F5FAFF"/><ellipse cx="56.844" cy="19.027" rx="3.89" ry="3.525" transform="rotate(21.043 56.844 19.027)" fill="#F5FAFF"/></svg>