<svg width="62" height="68" viewBox="0 0 62 68" fill="none" xmlns="http://www.w3.org/2000/svg">
<path d="M19.5803 12.1185C20.8355 8.88159 23.6692 6.51927 27.0792 5.86707L34.357 4.47511L14.5184 57.241C12.6096 62.3181 7.02322 64.9719 1.88174 63.2441L-0.000348631 62.6117L19.5803 12.1185Z" fill="#F5FAFF"/>
<rect x="35.9727" y="5.60059" width="8.50687" height="39.2828" rx="2.51813" transform="rotate(20.4781 35.9727 5.60059)" fill="#F5FAFF"/>
<rect x="45.7441" y="10.7758" width="7.51236" height="32.2321" rx="2.51813" transform="rotate(19.9961 45.7441 10.7758)" fill="#F5FAFF"/>
<path d="M50.7462 26.8491C51.2456 25.5511 52.7026 24.9037 54.0006 25.4031L55.8807 26.1265C57.1787 26.6258 57.8261 28.0829 57.3268 29.3808L53.3201 39.7952C52.3214 42.3911 49.4073 43.6859 46.8113 42.6872L44.9312 41.9639L50.7462 26.8491Z" fill="#F5FAFF"/>
<ellipse cx="56.8443" cy="19.0269" rx="3.89008" ry="3.52538" transform="rotate(21.043 56.8443 19.0269)" fill="#F5FAFF"/>
</svg>
