<svg width="24" height="20" fill="none" xmlns="http://www.w3.org/2000/svg"><path d="M19.88 0H9.418c-.832 0-1.63.316-2.22.879A2.934 2.934 0 0 0 6.279 3v7c0 .796.33 1.559.92 2.121a3.214 3.214 0 0 0 2.22.879H19.88c.832 0 1.63-.316 2.22-.879.588-.562.919-1.325.919-2.121V3c0-.796-.33-1.559-.92-2.121A3.214 3.214 0 0 0 19.88 0Zm1.047 10c0 .265-.11.52-.306.707a1.072 1.072 0 0 1-.74.293H9.417c-.277 0-.543-.105-.74-.293A.978.978 0 0 1 8.371 10V3c0-.265.11-.52.306-.707.197-.188.463-.293.74-.293h10.464c.277 0 .543.105.74.293a.978.978 0 0 1 .306.707v7Zm-3.662-4a1.6 1.6 0 0 0-1.047.39 1.6 1.6 0 0 0-.804-.37 1.636 1.636 0 0 0-.886.108c-.278.118-.515.31-.68.554a1.452 1.452 0 0 0-.255.818c0 .29.089.575.255.818.165.244.402.436.68.554.278.117.586.155.886.109a1.6 1.6 0 0 0 .804-.371c.19.164.417.282.665.343.247.06.506.063.755.006.248-.056.478-.17.67-.33.192-.161.34-.364.432-.592a1.44 1.44 0 0 0-.175-1.39c-.146-.201-.34-.365-.567-.478A1.628 1.628 0 0 0 17.265 6Zm-1.57 9c-.277 0-.543.105-.74.293a.978.978 0 0 0-.306.707v1c0 .265-.11.52-.306.707a1.072 1.072 0 0 1-.74.293H3.139c-.277 0-.544-.105-.74-.293A.978.978 0 0 1 2.093 17v-4h1.046c.278 0 .544-.105.74-.293A.978.978 0 0 0 4.185 12c0-.265-.11-.52-.306-.707a1.072 1.072 0 0 0-.74-.293H2.093v-1c0-.265.11-.52.306-.707.196-.188.463-.293.74-.293.278 0 .544-.105.74-.293A.978.978 0 0 0 4.185 8c0-.265-.11-.52-.306-.707A1.072 1.072 0 0 0 3.139 7c-.832 0-1.63.316-2.22.879A2.934 2.934 0 0 0 0 10v7c0 .796.33 1.559.92 2.121A3.214 3.214 0 0 0 3.14 20h10.463c.832 0 1.63-.316 2.22-.879.588-.562.919-1.325.919-2.121v-1c0-.265-.11-.52-.307-.707a1.072 1.072 0 0 0-.74-.293ZM5.232 16h1.046c.278 0 .544-.105.74-.293A.978.978 0 0 0 7.324 15c0-.265-.11-.52-.306-.707a1.072 1.072 0 0 0-.74-.293H5.232c-.278 0-.544.105-.74.293a.978.978 0 0 0-.307.707c0 .265.11.52.307.707.196.188.462.293.74.293Z" fill="#F5FAFF"/></svg>