<svg width="21" height="21" viewBox="0 0 21 21" fill="none" xmlns="http://www.w3.org/2000/svg">
<rect width="20.7558" height="20.5009" rx="6.00032" fill="#EFEFEF"/>
<path d="M9.18412 15.501C9.40393 15.501 9.58212 15.2772 9.58212 15.001C9.58212 14.7248 9.40393 14.501 9.18412 14.501C8.96432 14.501 8.78613 14.7248 8.78613 15.001C8.78613 15.2772 8.96432 15.501 9.18412 15.501Z" stroke="#404040" stroke-width="0.996054" stroke-linecap="round" stroke-linejoin="round"/>
<path d="M13.5621 15.501C13.7819 15.501 13.96 15.2772 13.96 15.001C13.96 14.7248 13.7819 14.501 13.5621 14.501C13.3422 14.501 13.1641 14.7248 13.1641 15.001C13.1641 15.2772 13.3422 15.501 13.5621 15.501Z" stroke="#404040" stroke-width="0.996054" stroke-linecap="round" stroke-linejoin="round"/>
<path d="M6 5H7.59197L8.65859 11.6954C8.69498 11.9256 8.79466 12.1324 8.94019 12.2795C9.08571 12.4267 9.26779 12.5049 9.45457 12.5004H13.3231C13.5098 12.5049 13.6919 12.4267 13.8374 12.2795C13.983 12.1324 14.0826 11.9256 14.119 11.6954L14.7558 7.50014H7.98996" stroke="#404040" stroke-width="0.996054" stroke-linecap="round" stroke-linejoin="round"/>
</svg>
