<svg width="24" height="22" viewBox="0 0 24 22" fill="none" xmlns="http://www.w3.org/2000/svg">
<path d="M11.0746 1.63276C11.3946 0.788756 12.6056 0.788756 12.9266 1.63276L14.9966 7.36676C15.0688 7.55354 15.1959 7.71404 15.3613 7.82705C15.5266 7.94006 15.7223 8.00028 15.9226 7.99976H21.0096C21.9496 7.99976 22.3596 9.16976 21.6206 9.74276L18.0006 12.9998C17.8384 13.1244 17.7199 13.2972 17.6621 13.4934C17.6042 13.6896 17.61 13.8991 17.6786 14.0918L19.0006 19.6948C19.3226 20.5948 18.2806 21.3678 17.4926 20.8138L12.5756 17.6938C12.4072 17.5754 12.2064 17.5119 12.0006 17.5119C11.7948 17.5119 11.594 17.5754 11.4256 17.6938L6.50856 20.8138C5.72156 21.3678 4.67856 20.5938 5.00056 19.6948L6.32257 14.0918C6.39114 13.8991 6.39692 13.6896 6.33907 13.4934C6.28122 13.2972 6.16272 13.1244 6.00057 12.9998L2.38056 9.74276C1.64056 9.16976 2.05256 7.99976 2.99056 7.99976H8.07756C8.27786 8.00042 8.47363 7.94026 8.63898 7.82723C8.80433 7.7142 8.93147 7.55362 9.00357 7.36676L11.0736 1.63276H11.0746Z" stroke="#F5FAFF" stroke-width="2" stroke-linecap="round" stroke-linejoin="round"/>
</svg>
