<svg width="411" height="296" viewBox="0 0 411 296" fill="none" xmlns="http://www.w3.org/2000/svg">
<path d="M410.731 260.544H0V260.741H410.731V260.544Z" fill="#9FA3A9"/>
<path d="M70.3006 268.019H43.0938V268.215H70.3006V268.019Z" fill="#9FA3A9"/>
<path d="M147.724 265.891H126.045V266.087H147.724V265.891Z" fill="#9FA3A9"/>
<path d="M111.629 272.651H73.9072V272.847H111.629V272.651Z" fill="#9FA3A9"/>
<path d="M369.576 273.993H351.833V274.189H369.576V273.993Z" fill="#9FA3A9"/>
<path d="M347.84 273.993H321.578V274.189H347.84V273.993Z" fill="#9FA3A9"/>
<path d="M272.997 270.68H227.718V270.876H272.997V270.68Z" fill="#9FA3A9"/>
<path d="M194.686 225.528H36.07C34.8274 225.526 33.6365 225.053 32.7586 224.212C31.8807 223.372 31.3877 222.233 31.3877 221.045V7.94179C31.3985 6.761 31.8963 5.63197 32.773 4.79994C33.6498 3.9679 34.8345 3.50007 36.07 3.49805H194.686C195.93 3.49805 197.123 3.97036 198.003 4.81109C198.883 5.65181 199.377 6.79208 199.377 7.98105V221.045C199.377 222.234 198.883 223.375 198.003 224.215C197.123 225.056 195.93 225.528 194.686 225.528ZM36.07 3.65507C34.8819 3.65715 33.7432 4.1097 32.9038 4.91339C32.0645 5.71708 31.5931 6.80624 31.5931 7.94179V221.045C31.5931 222.181 32.0645 223.27 32.9038 224.074C33.7432 224.877 34.8819 225.33 36.07 225.332H194.686C195.875 225.33 197.015 224.878 197.855 224.074C198.696 223.271 199.169 222.182 199.171 221.045V7.94179C199.169 6.80552 198.696 5.71638 197.855 4.91291C197.015 4.10945 195.875 3.65715 194.686 3.65507H36.07Z" fill="#9FA3A9"/>
<path d="M372.378 225.528H213.753C212.51 225.526 211.318 225.053 210.439 224.213C209.56 223.373 209.065 222.234 209.062 221.045V7.94179C209.075 6.76028 209.575 5.63126 210.453 4.79945C211.331 3.96763 212.517 3.50005 213.753 3.49805H372.378C373.612 3.50213 374.794 3.97088 375.669 4.80269C376.544 5.6345 377.041 6.76236 377.052 7.94179V221.045C377.052 222.232 376.56 223.369 375.684 224.21C374.808 225.05 373.619 225.524 372.378 225.528ZM213.753 3.65507C212.564 3.65715 211.425 4.10945 210.584 4.91291C209.743 5.71638 209.27 6.80552 209.268 7.94179V221.045C209.27 222.182 209.743 223.271 210.584 224.074C211.425 224.878 212.564 225.33 213.753 225.332H372.378C373.566 225.33 374.706 224.878 375.547 224.074C376.387 223.271 376.861 222.182 376.863 221.045V7.94179C376.861 6.80552 376.387 5.71638 375.547 4.91291C374.706 4.10945 373.566 3.65715 372.378 3.65507H213.753Z" fill="#9FA3A9"/>
<path d="M57.806 132.924L280.061 132.924V14.6624L57.806 14.6624L57.806 132.924Z" fill="#E0E0E0"/>
<path d="M45.6078 132.924L278.944 132.924V14.6624L45.6078 14.6624L45.6078 132.924Z" fill="#F5F5F5"/>
<path d="M275.125 129.273V18.3054L49.4112 18.3054V129.273H275.125Z" fill="white"/>
<path d="M183.737 129.281L141.119 18.3054H211.453L254.07 129.281H183.737Z" fill="#F5F5F5"/>
<path d="M116.04 129.281L73.4224 18.3054H126.481L169.09 129.281H116.04Z" fill="#F5F5F5"/>
<path d="M355.283 256.878H367.933V175.516H355.283V256.878Z" fill="#F0F0F0"/>
<path d="M226.576 260.544H365.493V256.878H226.576V260.544Z" fill="#F0F0F0"/>
<path d="M355.283 175.509H224.153V256.87H355.283V175.509Z" fill="#F5F5F5"/>
<path d="M356.597 175.509H369.527V172.305H356.597V175.509Z" fill="#F0F0F0"/>
<path d="M356.588 172.313H222.559V175.517H356.588V172.313Z" fill="#FAFAFA"/>
<path d="M350.822 214.073H228.605V182.143H350.822V214.073ZM229.64 213.123H349.787V183.132H229.64V213.123Z" fill="#E0E0E0"/>
<path d="M350.822 250.244H228.605V218.753H350.822V250.244ZM229.64 249.239H349.787V219.742H229.64V249.239Z" fill="#E0E0E0"/>
<path d="M252.846 188.51H326.581C326.942 188.51 327.289 188.373 327.545 188.128C327.801 187.884 327.944 187.552 327.944 187.207C327.942 186.863 327.798 186.533 327.542 186.29C327.287 186.048 326.941 185.911 326.581 185.911H252.846C252.487 185.911 252.142 186.048 251.888 186.291C251.634 186.534 251.491 186.863 251.491 187.207C251.49 187.378 251.524 187.547 251.592 187.705C251.659 187.863 251.759 188.007 251.885 188.128C252.011 188.249 252.161 188.345 252.326 188.411C252.491 188.476 252.667 188.51 252.846 188.51Z" fill="#E0E0E0"/>
<path d="M252.846 225.128H326.581C326.942 225.126 327.287 224.988 327.542 224.744C327.798 224.5 327.942 224.17 327.944 223.825C327.942 223.48 327.798 223.149 327.542 222.905C327.287 222.661 326.942 222.523 326.581 222.521H252.846C252.486 222.523 252.141 222.662 251.887 222.906C251.633 223.15 251.491 223.48 251.491 223.825C251.491 224.169 251.633 224.499 251.887 224.743C252.141 224.988 252.486 225.126 252.846 225.128Z" fill="#E0E0E0"/>
<path d="M116.327 162.97H95.0924C91.352 163.019 87.7346 164.255 84.8095 166.483C81.8844 168.712 79.8176 171.807 78.9342 175.281L73.3236 197.665L61.8231 197.625C59.1524 197.622 56.5637 198.507 54.5012 200.129C52.4387 201.75 51.0311 204.007 50.5198 206.513L48.9919 214.183C47.8305 214.349 46.747 214.842 45.8795 215.598C45.012 216.355 44.3997 217.341 44.1206 218.431H101.04C104.776 218.381 108.388 217.146 111.31 214.921C114.232 212.695 116.297 209.605 117.182 206.136L125.232 173.993C125.597 172.692 125.643 171.327 125.367 170.005C125.09 168.684 124.497 167.441 123.635 166.374C122.774 165.308 121.666 164.445 120.398 163.855C119.131 163.265 117.737 162.962 116.327 162.97ZM60.5581 214.121H52.0395L53.4689 207.055C53.839 205.21 54.8695 203.546 56.3835 202.348C57.8974 201.15 59.8003 200.494 61.7656 200.491H72.5761L71.2125 205.94C70.6358 208.239 69.2766 210.29 67.3482 211.77C65.4197 213.251 63.0314 214.078 60.5581 214.121Z" fill="#E6E6E6"/>
<path d="M99.6436 218.431H102.075L111.645 260.544H109.214L99.6436 218.431Z" fill="#E0E0E0"/>
<path d="M90.5171 218.431H92.9486L102.519 260.544H100.087L90.5171 218.431Z" fill="#E0E0E0"/>
<path d="M54.693 218.431H52.2614L42.6914 260.544H45.1229L54.693 218.431Z" fill="#E0E0E0"/>
<path d="M63.8194 218.431H61.3879L51.8179 260.544H54.2494L63.8194 218.431Z" fill="#E0E0E0"/>
<path d="M195.163 162.97H173.937C170.196 163.019 166.579 164.255 163.654 166.483C160.729 168.712 158.662 171.807 157.778 175.281L152.168 197.665L140.667 197.625C138.004 197.626 135.424 198.513 133.371 200.135C131.319 201.757 129.922 204.013 129.422 206.513L127.885 214.183C126.725 214.352 125.643 214.846 124.776 215.602C123.909 216.358 123.296 217.342 123.014 218.431H179.9C183.637 218.381 187.251 217.147 190.174 214.922C193.097 212.696 195.164 209.606 196.05 206.136L204.101 173.993C204.467 172.689 204.513 171.322 204.234 169.998C203.955 168.674 203.36 167.429 202.494 166.362C201.629 165.294 200.517 164.433 199.245 163.844C197.973 163.256 196.576 162.957 195.163 162.97ZM139.394 214.121H130.876L132.305 207.055C132.677 205.209 133.709 203.545 135.224 202.347C136.74 201.15 138.644 200.494 140.61 200.491H151.429L150.057 205.94C149.482 208.241 148.123 210.295 146.192 211.776C144.261 213.257 141.87 214.082 139.394 214.121Z" fill="#E6E6E6"/>
<path d="M178.479 218.431H180.919L190.489 260.544H188.057L178.479 218.431Z" fill="#E0E0E0"/>
<path d="M169.353 218.431H171.785L181.363 260.544H178.931L169.353 218.431Z" fill="#E0E0E0"/>
<path d="M133.537 218.431H131.106L121.536 260.544H123.967L133.537 218.431Z" fill="#E0E0E0"/>
<path d="M142.663 218.431H140.232L130.662 260.544H133.093L142.663 218.431Z" fill="#E0E0E0"/>
<path d="M295.85 172.282H335.527L338.747 138.475H299.07L295.85 172.282Z" fill="#E6E6E6"/>
<path d="M294.503 172.282H334.18L337.391 138.475H297.723L294.503 172.282Z" fill="#F0F0F0"/>
<path d="M330.614 168.537L333.12 142.212H301.28L298.774 168.537H330.614Z" fill="white"/>
<path d="M286.666 147.59L284.316 172.282H303.325L305.683 147.59H286.666Z" fill="#E6E6E6"/>
<path d="M285.68 147.59L283.331 172.282H302.347L304.697 147.59H285.68Z" fill="#F0F0F0"/>
<path d="M288.284 150.322L286.452 169.542H299.743L301.575 150.322H288.284Z" fill="white"/>
<path d="M205.366 296C293.33 296 364.639 292.021 364.639 287.112C364.639 282.204 293.33 278.225 205.366 278.225C117.401 278.225 46.0923 282.204 46.0923 287.112C46.0923 292.021 117.401 296 205.366 296Z" fill="#F5F5F5"/>
<path d="M334.836 205.61H118.439C117.165 205.619 115.904 205.377 114.733 204.9C113.562 204.423 112.506 203.721 111.63 202.838C110.755 201.954 110.079 200.908 109.645 199.764C109.211 198.62 109.028 197.403 109.107 196.189L117.182 38.3806C117.331 35.8554 118.478 33.4785 120.39 31.7299C122.302 29.9812 124.837 28.991 127.483 28.9593H343.881C345.154 28.9493 346.416 29.1901 347.588 29.6667C348.76 30.1432 349.816 30.8453 350.692 31.7292C351.567 32.6131 352.243 33.6598 352.677 34.8041C353.11 35.9485 353.293 37.1659 353.213 38.3806L345.138 196.189C344.986 198.713 343.839 201.089 341.927 202.837C340.016 204.586 337.482 205.576 334.836 205.61Z" fill="#1A33B2"/>
<path d="M334.836 205.61H118.439C117.165 205.619 115.904 205.377 114.733 204.9C113.562 204.423 112.506 203.721 111.63 202.838C110.755 201.954 110.079 200.908 109.645 199.764C109.211 198.62 109.028 197.403 109.107 196.189L117.182 38.3806C117.331 35.8554 118.478 33.4785 120.39 31.7299C122.302 29.9812 124.837 28.991 127.483 28.9593H343.881C345.154 28.9493 346.416 29.1901 347.588 29.6667C348.76 30.1432 349.816 30.8453 350.692 31.7292C351.567 32.6131 352.243 33.6598 352.677 34.8041C353.11 35.9485 353.293 37.1659 353.213 38.3806L345.138 196.189C344.986 198.713 343.839 201.089 341.927 202.837C340.016 204.586 337.482 205.576 334.836 205.61Z" fill="black" fill-opacity="0.2"/>
<path opacity="0.7" d="M334.836 205.61H118.439C117.165 205.619 115.904 205.377 114.733 204.9C113.562 204.423 112.506 203.721 111.63 202.838C110.755 201.954 110.079 200.908 109.645 199.764C109.211 198.62 109.028 197.403 109.107 196.189L117.182 38.3806C117.331 35.8554 118.478 33.4785 120.39 31.7299C122.302 29.9812 124.837 28.991 127.483 28.9593H343.881C345.154 28.9493 346.416 29.1901 347.588 29.6667C348.76 30.1432 349.816 30.8453 350.692 31.7292C351.567 32.6131 352.243 33.6598 352.677 34.8041C353.11 35.9485 353.293 37.1659 353.213 38.3806L345.138 196.189C344.986 198.713 343.839 201.089 341.927 202.837C340.016 204.586 337.482 205.576 334.836 205.61Z" fill="white"/>
<path d="M352.26 30.6629C351.107 29.4426 349.669 28.5009 348.062 27.915L348.358 27.177C350.079 27.8154 351.623 28.8257 352.868 30.129L352.26 30.6629Z" fill="#1A33B2"/>
<path d="M352.26 30.6629C351.107 29.4426 349.669 28.5009 348.062 27.915L348.358 27.177C350.079 27.8154 351.623 28.8257 352.868 30.129L352.26 30.6629Z" fill="black" fill-opacity="0.2"/>
<path d="M343.988 26.4155H326.688V27.2006H343.988V26.4155Z" fill="#1A33B2"/>
<path d="M343.988 26.4155H326.688V27.2006H343.988V26.4155Z" fill="black" fill-opacity="0.2"/>
<path d="M343.881 29.0063H127.483C124.837 29.038 122.302 30.0282 120.39 31.7769C118.478 33.5256 117.331 35.9025 117.182 38.4277H353.229C353.309 37.2116 353.126 35.9928 352.692 34.8474C352.257 33.702 351.58 32.6545 350.703 31.7704C349.825 30.8863 348.767 30.1845 347.593 29.7089C346.419 29.2334 345.156 28.9942 343.881 29.0063Z" fill="#1A33B2"/>
<path d="M343.881 29.0063H127.483C124.837 29.038 122.302 30.0282 120.39 31.7769C118.478 33.5256 117.331 35.9025 117.182 38.4277H353.229C353.309 37.2116 353.126 35.9928 352.692 34.8474C352.257 33.702 351.58 32.6545 350.703 31.7704C349.825 30.8863 348.767 30.1845 347.593 29.7089C346.419 29.2334 345.156 28.9942 343.881 29.0063Z" fill="black" fill-opacity="0.2"/>
<path d="M115.711 194.964L123.219 49.0345C123.29 47.8581 123.826 46.7513 124.718 45.938C125.61 45.1247 126.792 44.6656 128.025 44.6536H341.728C342.322 44.6471 342.911 44.7577 343.458 44.9784C344.005 45.199 344.498 45.5251 344.908 45.9362C345.317 46.3472 345.633 46.8345 345.837 47.3676C346.04 47.9007 346.127 48.4681 346.09 49.0345L338.623 194.971C338.553 196.15 338.016 197.259 337.122 198.074C336.229 198.888 335.045 199.348 333.81 199.36H120.073C119.478 199.366 118.889 199.254 118.341 199.032C117.793 198.81 117.3 198.482 116.89 198.07C116.481 197.657 116.165 197.169 115.962 196.634C115.759 196.1 115.674 195.531 115.711 194.964Z" fill="white"/>
<g opacity="0.3">
<path d="M146.039 94.681H136.182C135.968 94.6835 135.757 94.644 135.56 94.5652C135.363 94.4863 135.185 94.3697 135.037 94.2225C134.89 94.0753 134.775 93.9007 134.7 93.7095C134.626 93.5183 134.593 93.3145 134.605 93.1108L135.426 76.6234C135.455 76.1998 135.651 75.8025 135.974 75.5112C136.297 75.2199 136.724 75.0563 137.168 75.0532H147.025C147.239 75.0497 147.452 75.0883 147.65 75.1667C147.848 75.2451 148.026 75.3616 148.175 75.5088C148.324 75.6561 148.439 75.8311 148.514 76.0228C148.589 76.2146 148.622 76.419 148.611 76.6234L147.789 93.1108C147.76 93.5357 147.563 93.9342 147.238 94.2257C146.914 94.5172 146.485 94.68 146.039 94.681Z" fill="#1A33B2"/>
<path d="M146.039 94.681H136.182C135.968 94.6835 135.757 94.644 135.56 94.5652C135.363 94.4863 135.185 94.3697 135.037 94.2225C134.89 94.0753 134.775 93.9007 134.7 93.7095C134.626 93.5183 134.593 93.3145 134.605 93.1108L135.426 76.6234C135.455 76.1998 135.651 75.8025 135.974 75.5112C136.297 75.2199 136.724 75.0563 137.168 75.0532H147.025C147.239 75.0497 147.452 75.0883 147.65 75.1667C147.848 75.2451 148.026 75.3616 148.175 75.5088C148.324 75.6561 148.439 75.8311 148.514 76.0228C148.589 76.2146 148.622 76.419 148.611 76.6234L147.789 93.1108C147.76 93.5357 147.563 93.9342 147.238 94.2257C146.914 94.5172 146.485 94.68 146.039 94.681Z" fill="black" fill-opacity="0.2"/>
</g>
<g opacity="0.3">
<path d="M165.771 94.6811H155.913C155.7 94.6824 155.488 94.6422 155.292 94.563C155.095 94.4838 154.917 94.3673 154.769 94.2205C154.621 94.0737 154.505 93.8996 154.429 93.7089C154.354 93.5182 154.319 93.3147 154.328 93.1109L155.322 73.6401C155.355 73.2165 155.553 72.8201 155.877 72.5293C156.201 72.2386 156.627 72.0746 157.072 72.0699H166.929C167.143 72.0686 167.354 72.1088 167.551 72.188C167.748 72.2672 167.926 72.3837 168.074 72.5305C168.222 72.6773 168.338 72.8513 168.413 73.0421C168.489 73.2328 168.524 73.4362 168.515 73.6401L167.521 93.1109C167.488 93.5345 167.29 93.9309 166.966 94.2217C166.642 94.5124 166.215 94.6764 165.771 94.6811Z" fill="#1A33B2"/>
<path d="M165.771 94.6811H155.913C155.7 94.6824 155.488 94.6422 155.292 94.563C155.095 94.4838 154.917 94.3673 154.769 94.2205C154.621 94.0737 154.505 93.8996 154.429 93.7089C154.354 93.5182 154.319 93.3147 154.328 93.1109L155.322 73.6401C155.355 73.2165 155.553 72.8201 155.877 72.5293C156.201 72.2386 156.627 72.0746 157.072 72.0699H166.929C167.143 72.0686 167.354 72.1088 167.551 72.188C167.748 72.2672 167.926 72.3837 168.074 72.5305C168.222 72.6773 168.338 72.8513 168.413 73.0421C168.489 73.2328 168.524 73.4362 168.515 73.6401L167.521 93.1109C167.488 93.5345 167.29 93.9309 166.966 94.2217C166.642 94.5124 166.215 94.6764 165.771 94.6811Z" fill="black" fill-opacity="0.2"/>
</g>
<g opacity="0.3">
<path d="M185.503 94.6811H175.645C175.432 94.6824 175.22 94.6422 175.024 94.563C174.827 94.4838 174.649 94.3673 174.501 94.2205C174.353 94.0737 174.237 93.8996 174.161 93.7089C174.086 93.5182 174.051 93.3147 174.06 93.1109L175.161 71.6066C175.194 71.183 175.392 70.7866 175.716 70.4959C176.04 70.2051 176.466 70.0411 176.91 70.0364H186.768C186.981 70.0352 187.193 70.0753 187.39 70.1545C187.586 70.2337 187.764 70.3502 187.913 70.497C188.061 70.6439 188.176 70.8179 188.252 71.0086C188.328 71.1993 188.362 71.4028 188.353 71.6066L187.294 93.0874C187.266 93.5219 187.065 93.9298 186.732 94.2265C186.398 94.5232 185.958 94.6859 185.503 94.6811Z" fill="#1A33B2"/>
<path d="M185.503 94.6811H175.645C175.432 94.6824 175.22 94.6422 175.024 94.563C174.827 94.4838 174.649 94.3673 174.501 94.2205C174.353 94.0737 174.237 93.8996 174.161 93.7089C174.086 93.5182 174.051 93.3147 174.06 93.1109L175.161 71.6066C175.194 71.183 175.392 70.7866 175.716 70.4959C176.04 70.2051 176.466 70.0411 176.91 70.0364H186.768C186.981 70.0352 187.193 70.0753 187.39 70.1545C187.586 70.2337 187.764 70.3502 187.913 70.497C188.061 70.6439 188.176 70.8179 188.252 71.0086C188.328 71.1993 188.362 71.4028 188.353 71.6066L187.294 93.0874C187.266 93.5219 187.065 93.9298 186.732 94.2265C186.398 94.5232 185.958 94.6859 185.503 94.6811Z" fill="black" fill-opacity="0.2"/>
</g>
<g opacity="0.3">
<path d="M205.242 94.6812H195.385C195.172 94.6825 194.96 94.6423 194.764 94.563C194.568 94.4837 194.39 94.3671 194.243 94.2201C194.095 94.0732 193.981 93.8991 193.906 93.7084C193.831 93.5177 193.797 93.3144 193.807 93.111L194.999 69.7617C195.031 69.3381 195.229 68.9417 195.553 68.6509C195.877 68.3601 196.304 68.1962 196.748 68.1914H206.606C206.819 68.1902 207.031 68.2304 207.227 68.3096C207.424 68.3887 207.602 68.5053 207.75 68.6521C207.899 68.7989 208.014 68.9729 208.09 69.1636C208.166 69.3544 208.2 69.5578 208.191 69.7617L207.008 93.0874C206.985 93.5192 206.789 93.9259 206.46 94.2227C206.131 94.5196 205.695 94.6838 205.242 94.6812Z" fill="#1A33B2"/>
<path d="M205.242 94.6812H195.385C195.172 94.6825 194.96 94.6423 194.764 94.563C194.568 94.4837 194.39 94.3671 194.243 94.2201C194.095 94.0732 193.981 93.8991 193.906 93.7084C193.831 93.5177 193.797 93.3144 193.807 93.111L194.999 69.7617C195.031 69.3381 195.229 68.9417 195.553 68.6509C195.877 68.3601 196.304 68.1962 196.748 68.1914H206.606C206.819 68.1902 207.031 68.2304 207.227 68.3096C207.424 68.3887 207.602 68.5053 207.75 68.6521C207.899 68.7989 208.014 68.9729 208.09 69.1636C208.166 69.3544 208.2 69.5578 208.191 69.7617L207.008 93.0874C206.985 93.5192 206.789 93.9259 206.46 94.2227C206.131 94.5196 205.695 94.6838 205.242 94.6812Z" fill="black" fill-opacity="0.2"/>
</g>
<path d="M224.974 94.6811H215.117C214.903 94.6823 214.692 94.6421 214.495 94.5629C214.298 94.4838 214.12 94.3672 213.972 94.2204C213.824 94.0736 213.708 93.8996 213.633 93.7089C213.557 93.5181 213.522 93.3147 213.531 93.1108L215.092 62.6406C215.123 62.2163 215.32 61.8189 215.645 61.5277C215.969 61.2366 216.397 61.0733 216.842 61.0703H226.699C226.913 61.0691 227.124 61.1093 227.321 61.1885C227.518 61.2676 227.696 61.3842 227.844 61.531C227.992 61.6778 228.107 61.8518 228.183 62.0426C228.259 62.2333 228.294 62.4367 228.285 62.6406L226.724 93.0873C226.697 93.5151 226.501 93.9173 226.177 94.213C225.852 94.5086 225.423 94.6759 224.974 94.6811Z" fill="#1A33B2"/>
<path d="M224.974 94.6811H215.117C214.903 94.6823 214.692 94.6421 214.495 94.5629C214.298 94.4838 214.12 94.3672 213.972 94.2204C213.824 94.0736 213.708 93.8996 213.633 93.7089C213.557 93.5181 213.522 93.3147 213.531 93.1108L215.092 62.6406C215.123 62.2163 215.32 61.8189 215.645 61.5277C215.969 61.2366 216.397 61.0733 216.842 61.0703H226.699C226.913 61.0691 227.124 61.1093 227.321 61.1885C227.518 61.2676 227.696 61.3842 227.844 61.531C227.992 61.6778 228.107 61.8518 228.183 62.0426C228.259 62.2333 228.294 62.4367 228.285 62.6406L226.724 93.0873C226.697 93.5151 226.501 93.9173 226.177 94.213C225.852 94.5086 225.423 94.6759 224.974 94.6811Z" fill="black" fill-opacity="0.2"/>
<path d="M222.403 57.7966L223.339 56.3677C223.391 56.2904 223.42 56.2013 223.423 56.1097C223.426 56.0181 223.403 55.9273 223.357 55.847C223.311 55.7666 223.243 55.6997 223.16 55.6532C223.077 55.6066 222.983 55.5823 222.887 55.5826H221.154C221.057 55.5794 220.96 55.6016 220.875 55.647C220.79 55.6923 220.72 55.759 220.672 55.8399C220.623 55.9207 220.599 56.0126 220.602 56.1057C220.604 56.1987 220.633 56.2893 220.686 56.3677L221.507 57.7966C221.554 57.8697 221.62 57.93 221.699 57.9718C221.777 58.0137 221.865 58.0357 221.955 58.0357C222.045 58.0357 222.133 58.0137 222.211 57.9718C222.29 57.93 222.356 57.8697 222.403 57.7966Z" fill="#263238"/>
<g opacity="0.3">
<path d="M244.705 94.6811H234.848C234.634 94.6823 234.423 94.6422 234.226 94.563C234.029 94.4838 233.851 94.3673 233.703 94.2205C233.555 94.0737 233.439 93.8996 233.363 93.7089C233.288 93.5182 233.253 93.3147 233.262 93.1109L234.576 67.4455C234.609 67.0219 234.807 66.6255 235.131 66.3347C235.455 66.044 235.882 65.88 236.326 65.8753H246.184C246.397 65.874 246.609 65.9142 246.805 65.9934C247.002 66.0726 247.18 66.1891 247.328 66.3359C247.476 66.4827 247.592 66.6568 247.668 66.8475C247.744 67.0382 247.778 67.2417 247.769 67.4455L246.438 93.0873C246.414 93.5131 246.221 93.9141 245.899 94.2098C245.578 94.5054 245.151 94.6738 244.705 94.6811Z" fill="#1A33B2"/>
<path d="M244.705 94.6811H234.848C234.634 94.6823 234.423 94.6422 234.226 94.563C234.029 94.4838 233.851 94.3673 233.703 94.2205C233.555 94.0737 233.439 93.8996 233.363 93.7089C233.288 93.5182 233.253 93.3147 233.262 93.1109L234.576 67.4455C234.609 67.0219 234.807 66.6255 235.131 66.3347C235.455 66.044 235.882 65.88 236.326 65.8753H246.184C246.397 65.874 246.609 65.9142 246.805 65.9934C247.002 66.0726 247.18 66.1891 247.328 66.3359C247.476 66.4827 247.592 66.6568 247.668 66.8475C247.744 67.0382 247.778 67.2417 247.769 67.4455L246.438 93.0873C246.414 93.5131 246.221 93.9141 245.899 94.2098C245.578 94.5054 245.151 94.6738 244.705 94.6811Z" fill="black" fill-opacity="0.2"/>
</g>
<path opacity="0.1" d="M245.568 99.8001H134.826C134.756 99.8013 134.686 99.7886 134.621 99.7627C134.556 99.7367 134.497 99.6982 134.449 99.6495C134.4 99.6008 134.362 99.543 134.338 99.4797C134.314 99.4165 134.304 99.3491 134.309 99.2819C134.319 99.1423 134.384 99.0116 134.49 98.9156C134.597 98.8196 134.737 98.7654 134.884 98.7638H245.617C245.687 98.7625 245.757 98.7753 245.822 98.8012C245.887 98.8271 245.946 98.8656 245.995 98.9143C246.043 98.963 246.081 99.0208 246.105 99.0841C246.129 99.1474 246.139 99.2147 246.134 99.2819C246.128 99.4215 246.066 99.5533 245.96 99.6499C245.854 99.7464 245.714 99.8002 245.568 99.8001Z" fill="#263238"/>
<path opacity="0.1" d="M253.454 191.596L260.584 52.3949C260.59 52.2615 260.65 52.1357 260.751 52.0436C260.852 51.9514 260.987 51.9001 261.126 51.9002H261.175C261.243 51.899 261.309 51.9111 261.371 51.9359C261.433 51.9606 261.489 51.9974 261.536 52.0439C261.582 52.0904 261.618 52.1456 261.641 52.2061C261.663 52.2665 261.673 52.3308 261.668 52.3949L254.546 191.596C254.538 191.729 254.478 191.855 254.378 191.948C254.277 192.041 254.144 192.094 254.004 192.098H253.947C253.879 192.097 253.813 192.083 253.752 192.057C253.69 192.031 253.635 191.994 253.589 191.947C253.543 191.9 253.507 191.845 253.484 191.784C253.461 191.724 253.45 191.66 253.454 191.596Z" fill="#263238"/>
<path d="M290.017 78.3193C289.267 82.0906 289.967 85.9938 291.989 89.3109L287.109 92.2158C284.435 87.8079 283.505 82.6286 284.489 77.6206C285.502 72.4936 288.286 67.8399 292.395 64.4049C296.505 60.97 301.701 58.9526 307.153 58.6758V64.0303C303.032 64.2241 299.099 65.7397 295.99 68.3323C292.881 70.9249 290.777 74.4432 290.017 78.3193Z" fill="#1A33B2"/>
<path d="M290.017 78.3193C289.267 82.0906 289.967 85.9938 291.989 89.3109L287.109 92.2158C284.435 87.8079 283.505 82.6286 284.489 77.6206C285.502 72.4936 288.286 67.8399 292.395 64.4049C296.505 60.97 301.701 58.9526 307.153 58.6758V64.0303C303.032 64.2241 299.099 65.7397 295.99 68.3323C292.881 70.9249 290.777 74.4432 290.017 78.3193Z" fill="black" fill-opacity="0.2"/>
<g opacity="0.3">
<path d="M328.585 72.1641L323.295 74.2053C322.281 71.5382 320.518 69.1895 318.2 67.4168C315.881 65.6441 313.097 64.5159 310.152 64.1559C309.161 64.0257 308.161 63.981 307.162 64.0224V58.6679C311.767 58.4636 316.321 59.6598 320.171 62.0848C324.02 64.5097 326.966 68.0385 328.585 72.1641Z" fill="#1A33B2"/>
<path d="M328.585 72.1641L323.295 74.2053C322.281 71.5382 320.518 69.1895 318.2 67.4168C315.881 65.6441 313.097 64.5159 310.152 64.1559C309.161 64.0257 308.161 63.981 307.162 64.0224V58.6679C311.767 58.4636 316.321 59.6598 320.171 62.0848C324.02 64.5097 326.966 68.0385 328.585 72.1641Z" fill="black" fill-opacity="0.2"/>
</g>
<path d="M329.522 83.3753C327.254 95.2619 315.228 103.733 302.873 102.155C299.627 101.756 296.519 100.653 293.787 98.9299C291.055 97.2073 288.771 94.9107 287.109 92.2156L291.989 89.3421C293.239 91.3792 294.961 93.115 297.024 94.4162C299.086 95.7174 301.432 96.5493 303.884 96.8478C308.485 97.3655 313.121 96.1943 316.854 93.5711C320.586 90.9478 323.138 87.068 323.993 82.7158C324.549 79.8836 324.3 76.9607 323.27 74.2522L328.56 72.2109C329.909 75.7854 330.241 79.6381 329.522 83.3753Z" fill="#263238"/>
<path d="M289.878 62.1617C289.822 62.1626 289.766 62.1526 289.713 62.1324C289.661 62.1121 289.614 62.082 289.574 62.0439L285.935 58.3774H273.432C273.323 58.3774 273.219 58.336 273.142 58.2624C273.065 58.1888 273.021 58.089 273.021 57.9848C273.021 57.8807 273.065 57.7809 273.142 57.7073C273.219 57.6336 273.323 57.5923 273.432 57.5923H286.107C286.163 57.592 286.218 57.6031 286.269 57.6248C286.32 57.6464 286.366 57.6782 286.403 57.7179L290.174 61.5022C290.232 61.5564 290.271 61.6262 290.287 61.7023C290.303 61.7785 290.294 61.8574 290.262 61.9287C290.23 62.0001 290.176 62.0605 290.108 62.1021C290.039 62.1436 289.959 62.1644 289.878 62.1617Z" fill="#263238"/>
<g opacity="0.3">
<path d="M313.659 124.217C310.227 122.187 306.139 121.42 302.159 122.058L301.551 116.758C306.814 115.941 312.209 116.955 316.756 119.616C325.948 125.065 329.423 136.324 324.971 146.177L319.837 144.261C323.18 136.967 320.74 128.41 313.659 124.217Z" fill="#1A33B2"/>
<path d="M313.659 124.217C310.227 122.187 306.139 121.42 302.159 122.058L301.551 116.758C306.814 115.941 312.209 116.955 316.756 119.616C325.948 125.065 329.423 136.324 324.971 146.177L319.837 144.261C323.18 136.967 320.74 128.41 313.659 124.217Z" fill="black" fill-opacity="0.2"/>
</g>
<path d="M302.52 160.183L302.898 154.821C305.976 154.85 309.011 154.132 311.721 152.736C314.43 151.34 316.725 149.31 318.391 146.836C318.952 146.019 319.438 145.158 319.845 144.261L324.979 146.177C324.441 147.368 323.798 148.513 323.057 149.6C320.843 152.874 317.8 155.561 314.21 157.411C310.62 159.261 306.599 160.215 302.52 160.183Z" fill="#263238"/>
<path d="M291.299 157.066C280.866 150.887 278.04 137.344 285.031 127.075C286.881 124.344 289.311 122.015 292.162 120.238C295.013 118.461 298.223 117.276 301.583 116.759L302.191 122.058C299.654 122.445 297.231 123.338 295.078 124.678C292.926 126.019 291.092 127.777 289.697 129.839C284.39 137.643 286.51 147.778 294.428 152.473C296.974 153.982 299.903 154.796 302.898 154.829L302.52 160.191C298.552 160.139 294.674 159.059 291.299 157.066Z" fill="#1A33B2"/>
<path d="M291.299 157.066C280.866 150.887 278.04 137.344 285.031 127.075C286.881 124.344 289.311 122.015 292.162 120.238C295.013 118.461 298.223 117.276 301.583 116.759L302.191 122.058C299.654 122.445 297.231 123.338 295.078 124.678C292.926 126.019 291.092 127.777 289.697 129.839C284.39 137.643 286.51 147.778 294.428 152.473C296.974 153.982 299.903 154.796 302.898 154.829L302.52 160.191C298.552 160.139 294.674 159.059 291.299 157.066Z" fill="black" fill-opacity="0.2"/>
<path d="M286.912 120.017C286.8 120.013 286.694 119.968 286.616 119.891L282.969 116.225H270.466C270.357 116.225 270.253 116.183 270.176 116.11C270.099 116.036 270.056 115.936 270.056 115.832C270.056 115.728 270.099 115.628 270.176 115.554C270.253 115.481 270.357 115.439 270.466 115.439H283.15C283.262 115.443 283.368 115.488 283.445 115.565L287.208 119.349C287.246 119.386 287.277 119.429 287.298 119.477C287.319 119.525 287.329 119.576 287.329 119.628C287.329 119.68 287.319 119.731 287.298 119.779C287.277 119.827 287.246 119.87 287.208 119.907C287.127 119.977 287.021 120.016 286.912 120.017Z" fill="#263238"/>
<path d="M276.061 179.685H271.904C271.342 179.694 270.804 179.905 270.397 180.276C269.991 180.647 269.746 181.151 269.711 181.687L269.505 185.668C269.49 185.927 269.53 186.186 269.623 186.43C269.716 186.673 269.861 186.896 270.048 187.083C270.236 187.271 270.461 187.42 270.711 187.521C270.961 187.622 271.23 187.673 271.501 187.67H275.658C276.222 187.663 276.762 187.453 277.17 187.082C277.578 186.71 277.824 186.206 277.86 185.668L278.065 181.687C278.08 181.428 278.038 181.169 277.944 180.925C277.85 180.682 277.704 180.459 277.516 180.272C277.328 180.084 277.102 179.935 276.852 179.834C276.602 179.734 276.332 179.683 276.061 179.685Z" fill="#1A33B2"/>
<path d="M276.061 179.685H271.904C271.342 179.694 270.804 179.905 270.397 180.276C269.991 180.647 269.746 181.151 269.711 181.687L269.505 185.668C269.49 185.927 269.53 186.186 269.623 186.43C269.716 186.673 269.861 186.896 270.048 187.083C270.236 187.271 270.461 187.42 270.711 187.521C270.961 187.622 271.23 187.673 271.501 187.67H275.658C276.222 187.663 276.762 187.453 277.17 187.082C277.578 186.71 277.824 186.206 277.86 185.668L278.065 181.687C278.08 181.428 278.038 181.169 277.944 180.925C277.85 180.682 277.704 180.459 277.516 180.272C277.328 180.084 277.102 179.935 276.852 179.834C276.602 179.734 276.332 179.683 276.061 179.685Z" fill="black" fill-opacity="0.2"/>
<path d="M299.374 179.685H295.217C294.648 179.693 294.104 179.907 293.695 180.285C293.285 180.663 293.043 181.176 293.015 181.719L292.818 185.699C292.803 185.957 292.842 186.216 292.935 186.459C293.028 186.702 293.172 186.924 293.359 187.112C293.545 187.299 293.77 187.448 294.019 187.55C294.267 187.651 294.536 187.703 294.806 187.701H299.012C299.574 187.692 300.112 187.481 300.519 187.11C300.925 186.739 301.17 186.235 301.205 185.699L301.411 181.719C301.432 181.454 301.394 181.188 301.3 180.938C301.207 180.688 301.059 180.46 300.867 180.268C300.674 180.076 300.442 179.925 300.185 179.825C299.928 179.724 299.651 179.677 299.374 179.685Z" fill="#263238"/>
<g opacity="0.3">
<path d="M322.695 179.685H318.53C317.968 179.694 317.43 179.905 317.023 180.276C316.617 180.647 316.372 181.151 316.337 181.687L316.131 185.668C316.116 185.926 316.155 186.185 316.248 186.428C316.341 186.671 316.485 186.893 316.672 187.08C316.858 187.268 317.083 187.417 317.332 187.518C317.58 187.62 317.849 187.671 318.119 187.67H322.284C322.851 187.663 323.393 187.449 323.801 187.073C324.208 186.696 324.45 186.185 324.477 185.644L324.683 181.664C324.695 181.407 324.653 181.151 324.558 180.911C324.464 180.671 324.319 180.452 324.133 180.267C323.947 180.082 323.724 179.935 323.476 179.835C323.229 179.735 322.963 179.684 322.695 179.685Z" fill="#1A33B2"/>
<path d="M322.695 179.685H318.53C317.968 179.694 317.43 179.905 317.023 180.276C316.617 180.647 316.372 181.151 316.337 181.687L316.131 185.668C316.116 185.926 316.155 186.185 316.248 186.428C316.341 186.671 316.485 186.893 316.672 187.08C316.858 187.268 317.083 187.417 317.332 187.518C317.58 187.62 317.849 187.671 318.119 187.67H322.284C322.851 187.663 323.393 187.449 323.801 187.073C324.208 186.696 324.45 186.185 324.477 185.644L324.683 181.664C324.695 181.407 324.653 181.151 324.558 180.911C324.464 180.671 324.319 180.452 324.133 180.267C323.947 180.082 323.724 179.935 323.476 179.835C323.229 179.735 322.963 179.684 322.695 179.685Z" fill="black" fill-opacity="0.2"/>
</g>
<path d="M163.883 128.328C163.919 127.638 164.097 127.127 164.416 126.794C164.738 126.462 165.159 126.295 165.678 126.295C166.214 126.295 166.625 126.462 166.909 126.794C167.197 127.123 167.323 127.635 167.286 128.328C167.25 129.018 167.071 129.529 166.748 129.862C166.429 130.195 166.01 130.361 165.491 130.361C164.955 130.361 164.543 130.197 164.255 129.867C163.971 129.535 163.847 129.022 163.883 128.328ZM165.035 128.318C165.009 128.818 165.05 129.155 165.156 129.326C165.237 129.452 165.355 129.515 165.509 129.515C165.667 129.515 165.793 129.452 165.888 129.326C166.009 129.155 166.082 128.818 166.109 128.318C166.135 127.817 166.096 127.482 165.993 127.314C165.912 127.185 165.793 127.12 165.635 127.12C165.48 127.12 165.356 127.183 165.262 127.309C165.137 127.481 165.062 127.817 165.035 128.318ZM166.378 134.422H165.284L169.818 126.295H170.88L166.378 134.422ZM168.872 132.399C168.909 131.709 169.086 131.198 169.405 130.865C169.728 130.533 170.152 130.366 170.678 130.366C171.207 130.366 171.614 130.533 171.898 130.865C172.186 131.198 172.312 131.709 172.276 132.399C172.24 133.093 172.06 133.606 171.738 133.939C171.419 134.271 171 134.438 170.481 134.438C169.944 134.438 169.532 134.271 169.244 133.939C168.96 133.606 168.836 133.093 168.872 132.399ZM170.025 132.394C169.999 132.895 170.039 133.229 170.146 133.398C170.227 133.527 170.344 133.592 170.499 133.592C170.656 133.592 170.781 133.529 170.871 133.403C170.996 133.231 171.072 132.895 171.098 132.394C171.124 131.893 171.086 131.557 170.982 131.386C170.901 131.259 170.782 131.196 170.624 131.196C170.466 131.196 170.342 131.259 170.251 131.386C170.126 131.557 170.051 131.893 170.025 132.394Z" fill="#263238"/>
<path d="M177.23 144.654H177.132C177.079 144.643 177.029 144.621 176.985 144.592C176.941 144.562 176.904 144.524 176.875 144.48C176.847 144.436 176.828 144.387 176.82 144.336C176.812 144.285 176.815 144.233 176.828 144.182C179.605 133.026 185.494 121.595 192.436 121.226C197.077 120.975 199.722 124.68 202.786 128.959C205.004 132.045 207.51 135.538 211.182 138.176C213.712 139.99 216.291 140.461 218.854 139.582C224.563 137.611 230.026 128.731 233.115 116.413C233.128 116.361 233.151 116.313 233.184 116.27C233.216 116.227 233.257 116.191 233.305 116.163C233.352 116.135 233.404 116.117 233.459 116.108C233.514 116.1 233.57 116.102 233.624 116.115C233.678 116.127 233.729 116.149 233.774 116.181C233.818 116.212 233.856 116.251 233.885 116.296C233.914 116.341 233.934 116.392 233.943 116.444C233.951 116.496 233.949 116.55 233.936 116.601C230.741 129.36 225.212 138.231 219.15 140.32C216.307 141.293 213.465 140.783 210.705 138.804C206.926 136.096 204.38 132.524 202.129 129.383C199.073 125.128 196.674 121.775 192.501 121.987C186.02 122.333 180.393 133.466 177.715 144.34C177.705 144.391 177.685 144.44 177.655 144.483C177.625 144.527 177.587 144.564 177.542 144.594C177.497 144.623 177.446 144.643 177.392 144.653C177.339 144.664 177.284 144.664 177.23 144.654Z" fill="#1A33B2"/>
<path d="M177.23 144.654H177.132C177.079 144.643 177.029 144.621 176.985 144.592C176.941 144.562 176.904 144.524 176.875 144.48C176.847 144.436 176.828 144.387 176.82 144.336C176.812 144.285 176.815 144.233 176.828 144.182C179.605 133.026 185.494 121.595 192.436 121.226C197.077 120.975 199.722 124.68 202.786 128.959C205.004 132.045 207.51 135.538 211.182 138.176C213.712 139.99 216.291 140.461 218.854 139.582C224.563 137.611 230.026 128.731 233.115 116.413C233.128 116.361 233.151 116.313 233.184 116.27C233.216 116.227 233.257 116.191 233.305 116.163C233.352 116.135 233.404 116.117 233.459 116.108C233.514 116.1 233.57 116.102 233.624 116.115C233.678 116.127 233.729 116.149 233.774 116.181C233.818 116.212 233.856 116.251 233.885 116.296C233.914 116.341 233.934 116.392 233.943 116.444C233.951 116.496 233.949 116.55 233.936 116.601C230.741 129.36 225.212 138.231 219.15 140.32C216.307 141.293 213.465 140.783 210.705 138.804C206.926 136.096 204.38 132.524 202.129 129.383C199.073 125.128 196.674 121.775 192.501 121.987C186.02 122.333 180.393 133.466 177.715 144.34C177.705 144.391 177.685 144.44 177.655 144.483C177.625 144.527 177.587 144.564 177.542 144.594C177.497 144.623 177.446 144.643 177.392 144.653C177.339 144.664 177.284 144.664 177.23 144.654Z" fill="black" fill-opacity="0.2"/>
<path opacity="0.1" d="M237.403 150.086H137.882C137.032 150.092 136.19 149.931 135.407 149.613C134.624 149.296 133.918 148.828 133.331 148.24C132.745 147.651 132.291 146.954 131.997 146.192C131.703 145.429 131.576 144.617 131.623 143.806L133.077 116.107C133.175 114.423 133.938 112.837 135.213 111.671C136.489 110.505 138.18 109.845 139.944 109.826H239.423C240.274 109.82 241.116 109.981 241.899 110.299C242.682 110.616 243.388 111.084 243.975 111.672C244.561 112.261 245.015 112.958 245.309 113.721C245.603 114.483 245.73 115.295 245.683 116.107L244.27 143.798C244.174 145.483 243.411 147.071 242.136 148.239C240.861 149.406 239.169 150.067 237.403 150.086ZM139.903 110.635C138.356 110.652 136.872 111.228 135.75 112.247C134.629 113.267 133.953 114.654 133.857 116.13L132.444 143.821C132.396 144.53 132.501 145.24 132.753 145.908C133.004 146.576 133.398 147.187 133.909 147.703C134.419 148.219 135.035 148.629 135.719 148.907C136.403 149.184 137.139 149.324 137.882 149.317H237.403C238.95 149.3 240.434 148.724 241.555 147.704C242.677 146.685 243.353 145.298 243.449 143.821L244.87 116.13C244.916 115.422 244.809 114.711 244.556 114.044C244.302 113.376 243.908 112.766 243.397 112.25C242.886 111.735 242.27 111.325 241.586 111.047C240.903 110.769 240.166 110.629 239.423 110.635H139.903Z" fill="#263238"/>
<path opacity="0.1" d="M159.413 117.701H143.329C143.084 117.701 142.842 117.654 142.617 117.562C142.392 117.469 142.189 117.334 142.021 117.164C141.852 116.995 141.722 116.794 141.638 116.574C141.553 116.355 141.517 116.121 141.53 115.887C141.557 115.409 141.773 114.959 142.135 114.628C142.497 114.297 142.976 114.11 143.477 114.105H159.553C159.798 114.104 160.042 114.15 160.268 114.242C160.493 114.334 160.697 114.469 160.867 114.639C161.036 114.808 161.167 115.01 161.252 115.23C161.337 115.45 161.374 115.684 161.36 115.919C161.331 116.396 161.114 116.845 160.753 117.175C160.392 117.506 159.913 117.694 159.413 117.701ZM143.477 114.89C143.189 114.895 142.913 115.004 142.704 115.195C142.496 115.385 142.37 115.644 142.352 115.919C142.341 116.047 142.36 116.177 142.405 116.298C142.45 116.42 142.521 116.531 142.614 116.625C142.708 116.716 142.819 116.789 142.941 116.839C143.064 116.889 143.196 116.915 143.329 116.916H159.413C159.701 116.909 159.976 116.799 160.184 116.609C160.392 116.419 160.518 116.162 160.539 115.887C160.547 115.758 160.528 115.628 160.481 115.507C160.434 115.385 160.362 115.274 160.268 115.181C160.177 115.087 160.066 115.013 159.943 114.963C159.82 114.913 159.687 114.888 159.553 114.89H143.477Z" fill="#263238"/>
<path d="M144.824 141.05H140.651L140.445 145.038H144.618L144.824 141.05Z" fill="#1A33B2"/>
<path d="M144.824 141.05H140.651L140.445 145.038H144.618L144.824 141.05Z" fill="black" fill-opacity="0.2"/>
<g opacity="0.3">
<path d="M149.4 192.059H140.889C140.521 192.061 140.157 191.992 139.818 191.855C139.479 191.717 139.173 191.515 138.919 191.261C138.665 191.006 138.468 190.705 138.341 190.375C138.213 190.045 138.158 189.693 138.178 189.342L138.597 181.201C138.643 180.471 138.976 179.784 139.529 179.279C140.082 178.773 140.814 178.487 141.579 178.476H150.098C150.466 178.473 150.831 178.543 151.17 178.681C151.509 178.819 151.815 179.021 152.069 179.277C152.322 179.533 152.518 179.835 152.644 180.166C152.77 180.497 152.823 180.849 152.8 181.201L152.39 189.342C152.34 190.071 152.005 190.756 151.451 191.259C150.896 191.763 150.164 192.048 149.4 192.059Z" fill="#1A33B2"/>
<path d="M149.4 192.059H140.889C140.521 192.061 140.157 191.992 139.818 191.855C139.479 191.717 139.173 191.515 138.919 191.261C138.665 191.006 138.468 190.705 138.341 190.375C138.213 190.045 138.158 189.693 138.178 189.342L138.597 181.201C138.643 180.471 138.976 179.784 139.529 179.279C140.082 178.773 140.814 178.487 141.579 178.476H150.098C150.466 178.473 150.831 178.543 151.17 178.681C151.509 178.819 151.815 179.021 152.069 179.277C152.322 179.533 152.518 179.835 152.644 180.166C152.77 180.497 152.823 180.849 152.8 181.201L152.39 189.342C152.34 190.071 152.005 190.756 151.451 191.259C150.896 191.763 150.164 192.048 149.4 192.059Z" fill="black" fill-opacity="0.2"/>
</g>
<path opacity="0.1" d="M182.052 187.615H160.095C159.776 187.618 159.459 187.558 159.165 187.439C158.872 187.32 158.606 187.145 158.386 186.924C158.166 186.703 157.995 186.442 157.885 186.155C157.775 185.869 157.727 185.564 157.745 185.26C157.777 184.63 158.059 184.035 158.534 183.597C159.008 183.16 159.64 182.912 160.3 182.904H182.25C182.569 182.903 182.885 182.964 183.179 183.083C183.472 183.202 183.738 183.377 183.958 183.598C184.179 183.818 184.35 184.079 184.462 184.365C184.573 184.65 184.623 184.955 184.607 185.26C184.576 185.89 184.294 186.484 183.819 186.922C183.344 187.36 182.712 187.608 182.052 187.615ZM160.3 183.689C159.857 183.696 159.433 183.861 159.111 184.152C158.788 184.442 158.591 184.837 158.559 185.26C158.549 185.459 158.581 185.658 158.653 185.846C158.725 186.033 158.835 186.205 158.978 186.351C159.122 186.494 159.296 186.607 159.488 186.684C159.68 186.761 159.887 186.8 160.095 186.798H182.052C182.496 186.795 182.921 186.631 183.243 186.34C183.565 186.048 183.759 185.651 183.786 185.228C183.8 185.028 183.771 184.828 183.698 184.64C183.626 184.452 183.513 184.28 183.367 184.137C183.223 183.992 183.05 183.876 182.858 183.798C182.666 183.72 182.459 183.68 182.25 183.682L160.3 183.689Z" fill="#263238"/>
<path d="M145.399 187.615C145.345 187.613 145.292 187.601 145.243 187.579C145.194 187.558 145.15 187.527 145.113 187.489C145.077 187.451 145.048 187.407 145.03 187.358C145.011 187.31 145.003 187.258 145.005 187.207L145.185 183.729C145.185 183.677 145.196 183.625 145.218 183.578C145.24 183.53 145.272 183.488 145.313 183.453C145.353 183.418 145.401 183.392 145.452 183.376C145.504 183.36 145.559 183.354 145.613 183.36C145.667 183.362 145.72 183.374 145.769 183.396C145.818 183.417 145.862 183.448 145.898 183.486C145.935 183.524 145.963 183.568 145.982 183.617C146.001 183.665 146.009 183.716 146.007 183.768L145.826 187.246C145.82 187.349 145.771 187.445 145.692 187.514C145.612 187.583 145.507 187.619 145.399 187.615Z" fill="#1A33B2"/>
<path d="M145.399 187.615C145.345 187.613 145.292 187.601 145.243 187.579C145.194 187.558 145.15 187.527 145.113 187.489C145.077 187.451 145.048 187.407 145.03 187.358C145.011 187.31 145.003 187.258 145.005 187.207L145.185 183.729C145.185 183.677 145.196 183.625 145.218 183.578C145.24 183.53 145.272 183.488 145.313 183.453C145.353 183.418 145.401 183.392 145.452 183.376C145.504 183.36 145.559 183.354 145.613 183.36C145.667 183.362 145.72 183.374 145.769 183.396C145.818 183.417 145.862 183.448 145.898 183.486C145.935 183.524 145.963 183.568 145.982 183.617C146.001 183.665 146.009 183.716 146.007 183.768L145.826 187.246C145.82 187.349 145.771 187.445 145.692 187.514C145.612 187.583 145.507 187.619 145.399 187.615Z" fill="black" fill-opacity="0.2"/>
<path d="M143.83 185.315C143.718 185.311 143.612 185.266 143.534 185.189C143.496 185.153 143.465 185.109 143.444 185.061C143.423 185.013 143.413 184.962 143.413 184.91C143.413 184.859 143.423 184.807 143.444 184.759C143.465 184.712 143.496 184.668 143.534 184.632L145.292 183.061C145.372 182.989 145.478 182.95 145.588 182.951C145.696 182.958 145.799 183.003 145.875 183.077L147.469 184.647C147.544 184.723 147.585 184.825 147.581 184.929C147.578 185.034 147.532 185.133 147.452 185.205C147.373 185.277 147.267 185.315 147.157 185.312C147.048 185.309 146.944 185.265 146.869 185.189L145.563 183.87L144.101 185.205C144.026 185.27 143.931 185.309 143.83 185.315Z" fill="#1A33B2"/>
<path d="M143.83 185.315C143.718 185.311 143.612 185.266 143.534 185.189C143.496 185.153 143.465 185.109 143.444 185.061C143.423 185.013 143.413 184.962 143.413 184.91C143.413 184.859 143.423 184.807 143.444 184.759C143.465 184.712 143.496 184.668 143.534 184.632L145.292 183.061C145.372 182.989 145.478 182.95 145.588 182.951C145.696 182.958 145.799 183.003 145.875 183.077L147.469 184.647C147.544 184.723 147.585 184.825 147.581 184.929C147.578 185.034 147.532 185.133 147.452 185.205C147.373 185.277 147.267 185.315 147.157 185.312C147.048 185.309 146.944 185.265 146.869 185.189L145.563 183.87L144.101 185.205C144.026 185.27 143.931 185.309 143.83 185.315Z" fill="black" fill-opacity="0.2"/>
<path d="M141.74 169.488L141.856 167.287C141.178 167.091 140.689 166.795 140.387 166.399C140.089 166 139.954 165.516 139.984 164.949C140.014 164.375 140.22 163.893 140.602 163.504C140.987 163.112 141.483 162.886 142.089 162.827L142.116 162.307H142.879L142.852 162.827C143.406 162.893 143.839 163.084 144.153 163.399C144.466 163.711 144.654 164.13 144.718 164.655L143.378 164.828C143.319 164.415 143.123 164.135 142.791 163.988L142.683 166.042C143.513 166.269 144.071 166.565 144.357 166.929C144.643 167.29 144.772 167.754 144.742 168.322C144.709 168.955 144.488 169.49 144.079 169.924C143.674 170.358 143.128 170.624 142.439 170.722L142.387 171.705H141.624L141.674 170.749C141.072 170.675 140.591 170.449 140.232 170.071C139.873 169.693 139.659 169.159 139.59 168.469L140.97 168.322C141.012 168.602 141.104 168.843 141.248 169.046C141.392 169.25 141.556 169.397 141.74 169.488ZM142.029 163.972C141.818 164.042 141.647 164.161 141.516 164.329C141.384 164.497 141.313 164.683 141.303 164.886C141.293 165.072 141.34 165.245 141.444 165.406C141.548 165.564 141.711 165.691 141.934 165.79L142.029 163.972ZM142.499 169.561C142.765 169.512 142.985 169.391 143.16 169.199C143.335 169.003 143.43 168.773 143.443 168.511C143.456 168.276 143.396 168.075 143.264 167.907C143.137 167.735 142.917 167.604 142.606 167.513L142.499 169.561ZM145.617 168.584L147.057 168.411C147.084 168.775 147.192 169.053 147.382 169.246C147.571 169.439 147.808 169.535 148.092 169.535C148.398 169.535 148.66 169.419 148.879 169.188C149.101 168.957 149.223 168.646 149.243 168.253C149.263 167.882 149.178 167.588 148.989 167.371C148.801 167.154 148.563 167.045 148.275 167.045C148.086 167.045 147.858 167.082 147.591 167.155L147.817 165.952C148.216 165.963 148.526 165.877 148.746 165.695C148.966 165.509 149.084 165.264 149.1 164.96C149.113 164.7 149.047 164.494 148.901 164.34C148.755 164.186 148.553 164.109 148.297 164.109C148.045 164.109 147.825 164.196 147.637 164.371C147.449 164.546 147.327 164.802 147.27 165.138L145.92 164.907C146.039 164.441 146.201 164.07 146.404 163.793C146.612 163.513 146.89 163.294 147.238 163.137C147.59 162.976 147.979 162.895 148.403 162.895C149.129 162.895 149.699 163.126 150.113 163.588C150.455 163.967 150.613 164.394 150.588 164.87C150.553 165.546 150.154 166.085 149.393 166.488C149.83 166.583 150.172 166.795 150.417 167.124C150.667 167.453 150.779 167.851 150.755 168.316C150.719 168.992 150.442 169.568 149.923 170.045C149.403 170.521 148.775 170.759 148.039 170.759C147.341 170.759 146.773 170.559 146.334 170.16C145.896 169.757 145.657 169.232 145.617 168.584ZM156.624 169.257L156.552 170.628H151.37C151.454 170.109 151.648 169.619 151.952 169.157C152.257 168.691 152.844 168.075 153.711 167.308C154.41 166.688 154.841 166.268 155.003 166.047C155.222 165.742 155.34 165.441 155.355 165.143C155.372 164.814 155.296 164.562 155.127 164.387C154.961 164.208 154.722 164.119 154.409 164.119C154.101 164.119 153.85 164.212 153.658 164.397C153.466 164.583 153.345 164.891 153.294 165.322L151.829 165.175C151.959 164.362 152.265 163.779 152.747 163.426C153.228 163.072 153.816 162.895 154.51 162.895C155.271 162.895 155.858 163.1 156.272 163.51C156.685 163.919 156.876 164.429 156.844 165.038C156.826 165.385 156.746 165.716 156.603 166.031C156.464 166.343 156.25 166.67 155.962 167.014C155.772 167.241 155.432 167.569 154.943 167.996C154.454 168.423 154.143 168.707 154.01 168.847C153.879 168.987 153.772 169.124 153.688 169.257H156.624ZM157.611 168.584L159.051 168.411C159.077 168.775 159.185 169.053 159.375 169.246C159.565 169.439 159.802 169.535 160.086 169.535C160.391 169.535 160.653 169.419 160.872 169.188C161.095 168.957 161.216 168.646 161.237 168.253C161.256 167.882 161.172 167.588 160.983 167.371C160.795 167.154 160.556 167.045 160.269 167.045C160.08 167.045 159.851 167.082 159.585 167.155L159.811 165.952C160.21 165.963 160.519 165.877 160.739 165.695C160.959 165.509 161.077 165.264 161.093 164.96C161.107 164.7 161.041 164.494 160.894 164.34C160.748 164.186 160.547 164.109 160.291 164.109C160.039 164.109 159.818 164.196 159.63 164.371C159.442 164.546 159.32 164.802 159.264 165.138L157.914 164.907C158.033 164.441 158.194 164.07 158.398 163.793C158.606 163.513 158.884 163.294 159.232 163.137C159.584 162.976 159.972 162.895 160.397 162.895C161.123 162.895 161.693 163.126 162.107 163.588C162.448 163.967 162.606 164.394 162.582 164.87C162.546 165.546 162.148 166.085 161.387 166.488C161.824 166.583 162.165 166.795 162.411 167.124C162.66 167.453 162.773 167.851 162.748 168.316C162.713 168.992 162.436 169.568 161.916 170.045C161.397 170.521 160.769 170.759 160.033 170.759C159.335 170.759 158.766 170.559 158.328 170.16C157.89 169.757 157.651 169.232 157.611 168.584ZM163.909 169.152H165.388L165.332 170.207C165.31 170.635 165.256 170.971 165.169 171.216C165.082 171.465 164.93 171.687 164.713 171.883C164.5 172.079 164.232 172.233 163.911 172.345L163.653 171.736C163.956 171.638 164.176 171.503 164.311 171.332C164.446 171.16 164.525 170.925 164.548 170.628H163.832L163.909 169.152ZM169.455 162.895C170.202 162.895 170.772 163.161 171.165 163.694C171.633 164.324 171.829 165.369 171.753 166.83C171.677 168.287 171.37 169.334 170.831 169.971C170.386 170.496 169.791 170.759 169.044 170.759C168.293 170.759 167.703 170.472 167.274 169.898C166.845 169.32 166.669 168.292 166.746 166.814C166.822 165.364 167.129 164.32 167.667 163.683C168.112 163.158 168.708 162.895 169.455 162.895ZM169.391 164.119C169.212 164.119 169.049 164.177 168.903 164.292C168.757 164.404 168.638 164.608 168.545 164.902C168.423 165.283 168.339 165.926 168.292 166.83C168.244 167.733 168.258 168.355 168.331 168.695C168.405 169.031 168.507 169.255 168.638 169.367C168.772 169.479 168.929 169.535 169.108 169.535C169.286 169.535 169.449 169.479 169.595 169.367C169.741 169.251 169.861 169.046 169.953 168.752C170.075 168.374 170.159 167.733 170.206 166.83C170.254 165.926 170.241 165.306 170.167 164.97C170.094 164.63 169.99 164.404 169.855 164.292C169.725 164.177 169.57 164.119 169.391 164.119ZM172.874 164.403L172.946 163.032H178.001L177.945 164.103C177.506 164.513 177.051 165.101 176.58 165.868C176.108 166.635 175.736 167.451 175.463 168.316C175.193 169.178 175.042 169.948 175.01 170.628H173.585C173.665 169.563 173.941 168.477 174.413 167.371C174.888 166.264 175.496 165.275 176.236 164.403H172.874ZM180.03 166.472C179.657 166.311 179.389 166.091 179.229 165.811C179.072 165.527 179.002 165.217 179.02 164.881C179.05 164.306 179.274 163.832 179.694 163.457C180.117 163.082 180.698 162.895 181.438 162.895C182.171 162.895 182.729 163.082 183.113 163.457C183.5 163.832 183.679 164.306 183.649 164.881C183.63 165.238 183.52 165.557 183.32 165.837C183.12 166.113 182.847 166.325 182.503 166.472C182.922 166.644 183.233 166.894 183.437 167.224C183.644 167.553 183.736 167.933 183.714 168.364C183.677 169.075 183.418 169.652 182.939 170.097C182.464 170.542 181.849 170.764 181.095 170.764C180.393 170.764 179.819 170.58 179.372 170.213C178.844 169.778 178.6 169.183 178.639 168.427C178.661 168.01 178.785 167.628 179.01 167.281C179.235 166.931 179.575 166.662 180.03 166.472ZM180.413 164.986C180.398 165.28 180.468 165.509 180.625 165.674C180.784 165.839 181.003 165.921 181.28 165.921C181.56 165.921 181.789 165.839 181.966 165.674C182.143 165.506 182.239 165.275 182.255 164.981C182.269 164.704 182.197 164.483 182.037 164.319C181.881 164.151 181.666 164.066 181.393 164.066C181.108 164.066 180.878 164.151 180.701 164.319C180.524 164.487 180.428 164.709 180.413 164.986ZM180.104 168.285C180.083 168.691 180.17 169.008 180.365 169.236C180.563 169.463 180.818 169.577 181.131 169.577C181.436 169.577 181.694 169.468 181.905 169.251C182.117 169.031 182.233 168.714 182.255 168.301C182.274 167.94 182.187 167.651 181.995 167.434C181.803 167.213 181.551 167.103 181.239 167.103C180.878 167.103 180.601 167.227 180.409 167.476C180.221 167.724 180.119 167.994 180.104 168.285ZM139.255 182.611L139.332 181.135H140.81L140.733 182.611H139.255ZM144.841 174.879C145.588 174.879 146.158 175.145 146.551 175.677C147.019 176.307 147.215 177.353 147.139 178.813C147.063 180.27 146.755 181.317 146.217 181.955C145.772 182.48 145.176 182.743 144.429 182.743C143.679 182.743 143.089 182.455 142.66 181.881C142.23 181.303 142.055 180.275 142.132 178.798C142.208 177.348 142.515 176.304 143.053 175.667C143.498 175.141 144.094 174.879 144.841 174.879ZM144.777 176.103C144.598 176.103 144.435 176.16 144.289 176.276C144.143 176.388 144.023 176.591 143.931 176.885C143.809 177.267 143.725 177.91 143.678 178.813C143.63 179.717 143.643 180.338 143.717 180.678C143.79 181.014 143.893 181.238 144.023 181.351C144.158 181.463 144.315 181.519 144.493 181.519C144.672 181.519 144.835 181.463 144.981 181.351C145.127 181.235 145.247 181.03 145.339 180.736C145.461 180.358 145.545 179.717 145.592 178.813C145.64 177.91 145.626 177.29 145.553 176.954C145.479 176.614 145.376 176.388 145.241 176.276C145.11 176.16 144.956 176.103 144.777 176.103ZM150.838 174.879C151.585 174.879 152.155 175.145 152.548 175.677C153.016 176.307 153.212 177.353 153.136 178.813C153.059 180.27 152.752 181.317 152.214 181.955C151.769 182.48 151.173 182.743 150.426 182.743C149.676 182.743 149.086 182.455 148.656 181.881C148.227 181.303 148.051 180.275 148.129 178.798C148.204 177.348 148.512 176.304 149.05 175.667C149.495 175.141 150.091 174.879 150.838 174.879ZM150.774 176.103C150.595 176.103 150.432 176.16 150.286 176.276C150.14 176.388 150.02 176.591 149.928 176.885C149.806 177.267 149.722 177.91 149.674 178.813C149.627 179.717 149.64 180.338 149.714 180.678C149.787 181.014 149.889 181.238 150.02 181.351C150.155 181.463 150.311 181.519 150.49 181.519C150.669 181.519 150.832 181.463 150.978 181.351C151.124 181.235 151.243 181.03 151.336 180.736C151.457 180.358 151.542 179.717 151.589 178.813C151.636 177.91 151.623 177.29 151.55 176.954C151.476 176.614 151.372 176.388 151.238 176.276C151.107 176.16 150.952 176.103 150.774 176.103Z" fill="#263238"/>
<path opacity="0.4" d="M205.555 178.476H197.045C196.279 178.487 195.545 178.773 194.991 179.278C194.436 179.783 194.102 180.47 194.054 181.2L193.644 189.342C193.622 189.693 193.677 190.044 193.803 190.374C193.929 190.704 194.125 191.006 194.379 191.26C194.632 191.515 194.937 191.717 195.276 191.855C195.614 191.992 195.979 192.061 196.346 192.059H204.865C205.629 192.048 206.36 191.763 206.913 191.259C207.466 190.755 207.799 190.071 207.847 189.342L208.266 181.2C208.287 180.849 208.233 180.496 208.106 180.165C207.979 179.835 207.782 179.532 207.528 179.277C207.274 179.021 206.968 178.818 206.629 178.681C206.289 178.543 205.924 178.473 205.555 178.476Z" fill="#263238"/>
<path opacity="0.1" d="M237.51 187.615H215.56C215.241 187.616 214.925 187.556 214.631 187.437C214.337 187.317 214.072 187.142 213.851 186.922C213.631 186.701 213.46 186.44 213.348 186.155C213.236 185.869 213.187 185.564 213.203 185.26C213.234 184.63 213.516 184.035 213.991 183.597C214.466 183.159 215.098 182.912 215.757 182.904H237.715C238.034 182.904 238.349 182.965 238.643 183.085C238.936 183.205 239.201 183.38 239.421 183.6C239.641 183.82 239.813 184.081 239.925 184.366C240.037 184.651 240.087 184.955 240.073 185.26C240.039 185.89 239.755 186.485 239.279 186.923C238.803 187.36 238.17 187.608 237.51 187.615ZM215.757 183.689C215.315 183.696 214.892 183.861 214.571 184.152C214.25 184.443 214.055 184.838 214.024 185.26C214.014 185.459 214.046 185.658 214.118 185.846C214.19 186.033 214.301 186.205 214.443 186.351C214.587 186.494 214.761 186.608 214.953 186.685C215.145 186.762 215.352 186.801 215.56 186.798H237.51C237.954 186.795 238.38 186.632 238.703 186.34C239.026 186.049 239.222 185.652 239.251 185.228C239.267 185.027 239.239 184.824 239.169 184.634C239.099 184.443 238.988 184.268 238.844 184.121C238.699 183.973 238.524 183.856 238.33 183.776C238.136 183.697 237.926 183.656 237.715 183.658L215.757 183.689Z" fill="#263238"/>
<path d="M200.873 187.215C200.819 187.213 200.766 187.2 200.717 187.179C200.668 187.157 200.624 187.127 200.587 187.089C200.55 187.051 200.522 187.006 200.503 186.958C200.485 186.909 200.476 186.858 200.478 186.806L200.659 183.328C200.659 183.276 200.67 183.224 200.692 183.176C200.714 183.129 200.746 183.086 200.786 183.05C200.826 183.015 200.874 182.988 200.925 182.971C200.977 182.954 201.032 182.947 201.086 182.952C201.196 182.958 201.299 183.005 201.372 183.082C201.446 183.16 201.485 183.263 201.481 183.368L201.3 186.838C201.298 186.889 201.285 186.94 201.262 186.987C201.24 187.034 201.208 187.076 201.168 187.111C201.128 187.146 201.082 187.173 201.031 187.191C200.98 187.209 200.927 187.217 200.873 187.215Z" fill="white"/>
<path d="M200.856 187.615C200.748 187.611 200.645 187.569 200.568 187.497L198.975 185.927C198.936 185.891 198.905 185.847 198.885 185.799C198.864 185.751 198.853 185.7 198.853 185.648C198.853 185.597 198.864 185.545 198.885 185.497C198.905 185.45 198.936 185.406 198.975 185.37C199.013 185.333 199.058 185.304 199.108 185.284C199.158 185.264 199.212 185.254 199.266 185.254C199.32 185.254 199.374 185.264 199.424 185.284C199.474 185.304 199.52 185.333 199.558 185.37L200.864 186.689L202.326 185.354C202.364 185.317 202.41 185.288 202.46 185.268C202.51 185.248 202.563 185.238 202.618 185.238C202.672 185.238 202.726 185.248 202.776 185.268C202.826 185.288 202.871 185.317 202.909 185.354C202.948 185.39 202.978 185.433 202.999 185.48C203.019 185.527 203.03 185.578 203.03 185.629C203.03 185.68 203.019 185.731 202.999 185.778C202.978 185.825 202.948 185.868 202.909 185.903L201.151 187.513C201.07 187.581 200.964 187.617 200.856 187.615Z" fill="white"/>
<path d="M92.0944 50.6048C88.8085 54.6952 88.2006 60.3323 88.3896 63.2137C88.6196 66.786 83.7319 66.9508 85.1037 73.1689C86.2784 78.5548 82.8529 80.235 82.935 84.451C83.1158 94.2257 92.2915 97.1149 109.403 94.2257C126.514 91.3365 116.237 76.4036 118.521 70.5231C120.804 64.6426 118.997 50.856 114.414 51.4762C114.915 41.097 98.6907 42.4474 92.0944 50.6048Z" fill="#263238"/>
<path d="M97.8773 94.5712C97.7623 96.5576 97.5405 98.3476 97.2694 100.224C96.9983 102.1 96.6451 103.922 96.2097 105.759C95.7743 107.596 95.2814 109.449 94.6736 111.255C94.054 113.132 93.3049 114.968 92.431 116.751L92.242 117.143C91.803 118.055 91.0151 118.772 90.0403 119.146C89.0655 119.519 87.9779 119.522 87.0011 119.153C85.8767 118.711 84.7796 118.208 83.7152 117.646C82.672 117.112 81.7109 116.515 80.7415 115.934C79.7722 115.353 78.8604 114.702 77.9568 114.042C77.0532 113.383 76.1824 112.707 75.3199 111.938C74.958 111.572 74.7255 111.107 74.6553 110.608C74.585 110.109 74.6806 109.601 74.9284 109.157C75.1763 108.713 75.5639 108.354 76.0365 108.132C76.5092 107.91 77.043 107.835 77.5625 107.918H77.6446C78.6961 108.146 79.7558 108.444 80.7908 108.703L83.8713 109.567L86.8697 110.407C87.839 110.674 88.8083 110.902 89.6709 111.082L84.2328 113.485C84.7667 112.024 85.2021 110.462 85.6128 108.86C86.0236 107.259 86.3275 105.602 86.6314 103.938C86.9354 102.273 87.19 100.585 87.4529 98.8894C87.7158 97.1935 87.8965 95.4506 88.0854 93.8725V93.7861C88.1944 92.5368 88.8181 91.38 89.8195 90.5701C90.8208 89.7603 92.1177 89.3639 93.4249 89.468C94.7321 89.5721 95.9425 90.1683 96.7898 91.1253C97.6371 92.0824 98.0519 93.3219 97.943 94.5712H97.8773Z" fill="#B55B52"/>
<path d="M74.6711 105.209L72.6503 104.526C72.4023 104.442 72.1394 104.407 71.8768 104.421C71.6142 104.435 71.3572 104.5 71.1209 104.61C70.8846 104.72 70.6737 104.875 70.5004 105.064C70.3272 105.253 70.1951 105.473 70.112 105.712L69.3398 107.918C69.1911 108.344 69.2062 108.806 69.3824 109.222C69.5585 109.638 69.8843 109.98 70.3009 110.187L72.831 111.459C72.831 111.459 76.9383 114.474 79.0002 112.629L80.1256 109.488L77.078 106.654C76.3931 106.013 75.5723 105.521 74.6711 105.209Z" fill="#B55B52"/>
<path d="M96.8753 83.7681C90.8211 84.8594 89.5396 87.2226 85.0791 96.008C86.4263 101.786 97.9186 106.866 97.9186 106.866C97.9186 106.866 106.856 91.2424 96.8753 83.7681Z" fill="#263238"/>
<path d="M107.267 281.986C111.062 277.149 111.374 275.815 113.764 273.271C115.077 271.813 116.566 270.508 118.2 269.385C119.794 268.152 118.841 266.37 117.379 265.616C116.237 265.035 114.98 264.517 113.6 263.748L107.341 268.631C107.957 271.402 106.667 277.181 104.055 281.028C102.141 283.784 105.747 283.917 107.267 281.986Z" fill="#263238"/>
<path d="M88.7837 127.758C88.7837 127.758 82.9513 166.872 78.6058 193.558C77.7205 198.75 78.2525 204.072 80.1501 209.009C87.5843 227.939 106.856 269.094 106.856 269.094C107.743 269.926 113.074 265.082 113.592 263.748C113.592 263.748 106.93 211.734 96.5711 200.075C117.707 158.401 117.379 127.758 117.379 127.758H88.7837Z" fill="#1A33B2"/>
<path d="M88.7837 127.758C88.7837 127.758 82.9513 166.872 78.6058 193.558C77.7205 198.75 78.2525 204.072 80.1501 209.009C87.5843 227.939 106.856 269.094 106.856 269.094C107.743 269.926 113.074 265.082 113.592 263.748C113.592 263.748 106.93 211.734 96.5711 200.075C117.707 158.401 117.379 127.758 117.379 127.758H88.7837Z" fill="black" fill-opacity="0.2"/>
<g opacity="0.2">
<path d="M117.362 128.92L101.754 129.964C101.754 129.964 98.7315 172.926 98.0825 197.013C115.407 161.573 117.182 134.698 117.362 128.92Z" fill="black"/>
<path d="M97.9922 201.943C97.7787 214.293 97.1297 230.364 95.8564 245.211C99.8077 253.902 103.365 261.588 105.311 265.765C107.184 260.591 109.271 254.413 111.152 247.865C108.532 232.751 103.94 210.956 97.9922 201.943Z" fill="black"/>
</g>
<path d="M104.096 267.061C104.572 267.728 105.402 268.929 105.977 269.84C106.029 269.912 106.095 269.973 106.172 270.019C106.248 270.066 106.334 270.097 106.424 270.111C106.514 270.125 106.606 270.121 106.694 270.1C106.783 270.079 106.866 270.042 106.938 269.989C109.569 268.194 112.042 266.196 114.331 264.015C114.441 263.916 114.517 263.789 114.551 263.649C114.585 263.51 114.574 263.363 114.52 263.229L113.263 260.497C113.217 260.409 113.149 260.332 113.067 260.273C112.984 260.213 112.888 260.173 112.786 260.155C112.685 260.137 112.58 260.141 112.48 260.168C112.381 260.194 112.289 260.243 112.212 260.309L104.326 266.126C104.173 266.227 104.065 266.379 104.022 266.551C103.98 266.724 104.006 266.906 104.096 267.061Z" fill="#1A33B2"/>
<path d="M104.096 267.061C104.572 267.728 105.402 268.929 105.977 269.84C106.029 269.912 106.095 269.973 106.172 270.019C106.248 270.066 106.334 270.097 106.424 270.111C106.514 270.125 106.606 270.121 106.694 270.1C106.783 270.079 106.866 270.042 106.938 269.989C109.569 268.194 112.042 266.196 114.331 264.015C114.441 263.916 114.517 263.789 114.551 263.649C114.585 263.51 114.574 263.363 114.52 263.229L113.263 260.497C113.217 260.409 113.149 260.332 113.067 260.273C112.984 260.213 112.888 260.173 112.786 260.155C112.685 260.137 112.58 260.141 112.48 260.168C112.381 260.194 112.289 260.243 112.212 260.309L104.326 266.126C104.173 266.227 104.065 266.379 104.022 266.551C103.98 266.724 104.006 266.906 104.096 267.061Z" fill="black" fill-opacity="0.2"/>
<path opacity="0.3" d="M104.096 267.061C104.572 267.728 105.402 268.929 105.977 269.84C106.029 269.912 106.095 269.973 106.172 270.019C106.248 270.066 106.334 270.097 106.424 270.111C106.514 270.125 106.606 270.121 106.694 270.1C106.783 270.079 106.866 270.042 106.938 269.989C109.569 268.194 112.042 266.196 114.331 264.015C114.441 263.916 114.517 263.789 114.551 263.649C114.585 263.51 114.574 263.363 114.52 263.229L113.263 260.497C113.217 260.409 113.149 260.332 113.067 260.273C112.984 260.213 112.888 260.173 112.786 260.155C112.685 260.137 112.58 260.141 112.48 260.168C112.381 260.194 112.289 260.243 112.212 260.309L104.326 266.126C104.173 266.227 104.065 266.379 104.022 266.551C103.98 266.724 104.006 266.906 104.096 267.061Z" fill="white"/>
<path d="M85.49 283.917C91.4538 285.048 93.7539 285.401 97.1547 285.935C100.063 286.382 100.605 286.846 102.905 287.238C104.844 287.56 105.534 285.864 105.813 283.807C105.961 282.779 106.224 280.243 106.528 278.594L97.2862 278.123C95.0847 280.039 89.2112 280.667 85.6707 280.478C82.3109 280.227 83.1159 283.462 85.49 283.917Z" fill="#263238"/>
<path d="M97.3598 127.758C97.3598 127.758 100.424 178.005 100.991 200.774C101.574 224.68 101.097 262.013 96.563 277.919C97.8034 278.704 103.554 278.704 106.552 277.872C106.552 277.872 125.224 227.232 118.192 201.834C132.346 145.886 123.942 132.673 121.585 127.782L97.3598 127.758Z" fill="#1A33B2"/>
<path d="M97.3598 127.758C97.3598 127.758 100.424 178.005 100.991 200.774C101.574 224.68 101.097 262.013 96.563 277.919C97.8034 278.704 103.554 278.704 106.552 277.872C106.552 277.872 125.224 227.232 118.192 201.834C132.346 145.886 123.942 132.673 121.585 127.782L97.3598 127.758Z" fill="black" fill-opacity="0.2"/>
<path d="M97.3515 274.645C96.9726 275.719 96.5198 276.768 95.9961 277.785C95.9445 277.859 95.9121 277.943 95.9016 278.03C95.8912 278.118 95.903 278.207 95.936 278.289C95.9691 278.371 96.0224 278.445 96.0914 278.504C96.1605 278.562 96.2433 278.604 96.3329 278.625C99.5284 279.411 104.638 279.12 106.273 278.994C106.431 278.979 106.583 278.926 106.713 278.84C106.844 278.753 106.95 278.636 107.02 278.5L108.491 275.563C108.544 275.483 108.575 275.39 108.579 275.295C108.583 275.199 108.56 275.104 108.513 275.02C108.467 274.935 108.397 274.864 108.313 274.813C108.228 274.763 108.13 274.734 108.03 274.731L98.2551 274.056C98.0592 274.053 97.867 274.107 97.7051 274.213C97.5432 274.318 97.4196 274.469 97.3515 274.645Z" fill="#1A33B2"/>
<path d="M97.3515 274.645C96.9726 275.719 96.5198 276.768 95.9961 277.785C95.9445 277.859 95.9121 277.943 95.9016 278.03C95.8912 278.118 95.903 278.207 95.936 278.289C95.9691 278.371 96.0224 278.445 96.0914 278.504C96.1605 278.562 96.2433 278.604 96.3329 278.625C99.5284 279.411 104.638 279.12 106.273 278.994C106.431 278.979 106.583 278.926 106.713 278.84C106.844 278.753 106.95 278.636 107.02 278.5L108.491 275.563C108.544 275.483 108.575 275.39 108.579 275.295C108.583 275.199 108.56 275.104 108.513 275.02C108.467 274.935 108.397 274.864 108.313 274.813C108.228 274.763 108.13 274.734 108.03 274.731L98.2551 274.056C98.0592 274.053 97.867 274.107 97.7051 274.213C97.5432 274.318 97.4196 274.469 97.3515 274.645Z" fill="black" fill-opacity="0.2"/>
<path opacity="0.3" d="M97.3515 274.645C96.9726 275.719 96.5198 276.768 95.9961 277.785C95.9445 277.859 95.9121 277.943 95.9016 278.03C95.8912 278.118 95.903 278.207 95.936 278.289C95.9691 278.371 96.0224 278.445 96.0914 278.504C96.1605 278.562 96.2433 278.604 96.3329 278.625C99.5284 279.411 104.638 279.12 106.273 278.994C106.431 278.979 106.583 278.926 106.713 278.84C106.844 278.753 106.95 278.636 107.02 278.5L108.491 275.563C108.544 275.483 108.575 275.39 108.579 275.295C108.583 275.199 108.56 275.104 108.513 275.02C108.467 274.935 108.397 274.864 108.313 274.813C108.228 274.763 108.13 274.734 108.03 274.731L98.2551 274.056C98.0592 274.053 97.867 274.107 97.7051 274.213C97.5432 274.318 97.4196 274.469 97.3515 274.645Z" fill="white"/>
<path d="M121.354 83.3518C120.048 83.2262 118.677 83.1163 117.247 83.0535C112.289 82.7156 107.312 82.7156 102.354 83.0535C100.711 83.1948 99.0682 83.3911 97.4253 83.6031C94.5931 83.9977 91.9931 85.3223 90.0714 87.3495C88.1497 89.3766 87.0264 91.9799 86.8941 94.7124C86.7955 97.7979 87.4938 102.454 88.1674 109.794C89.0546 119.365 86.6148 124.233 88.7506 127.758C92.9319 131.558 112.129 129.658 121.552 127.758C124.386 124.272 118.841 115.196 127.86 92.8517C129.701 88.3844 126.218 83.8229 121.354 83.3518Z" fill="#263238"/>
<path d="M101.861 90.6929C101.688 91.2817 101.335 91.69 101.04 91.6193C100.744 91.5486 100.686 91.0147 100.859 90.4338C101.031 89.8528 101.393 89.4367 101.68 89.5073C101.968 89.578 102.042 90.1119 101.861 90.6929Z" fill="white"/>
<path d="M100.662 95.537C100.58 96.1415 100.292 96.6047 100.013 96.5654C99.7337 96.5262 99.5777 96.0237 99.6516 95.4192C99.7255 94.8147 100.021 94.3593 100.292 94.3907C100.563 94.4221 100.736 94.9324 100.662 95.537Z" fill="white"/>
<path d="M114.109 67.5164C113.961 72.227 113.329 79.9997 116.442 83.0538C116.442 83.0538 111.9 82.4021 102.264 88.102C99.4708 84.2707 101.541 83.0538 101.541 83.0538C102.28 82.9508 102.984 82.6839 103.596 82.2745C104.209 81.865 104.712 81.3243 105.067 80.6956C105.421 80.0669 105.617 79.3677 105.638 78.6538C105.659 77.9399 105.505 77.2313 105.188 76.5844L114.109 67.5164Z" fill="#B55B52"/>
<path d="M104.326 86.9556C107.505 87.3874 108.499 91.9646 108.499 91.9646C108.499 91.9646 116.122 86.8143 118.537 83.1792C117.578 82.6644 116.648 82.1009 115.752 81.4912C115.752 81.4912 106.141 85.2048 104.326 86.9556Z" fill="white"/>
<path d="M101.27 86.4611C101.27 86.4611 98.7477 86.9871 97.4826 90.3396C96.7597 83.6582 100.07 83.038 100.07 83.038C100.947 82.5769 101.969 82.4373 102.945 82.6454C102.245 82.9952 101.694 83.5679 101.388 84.2646C101.082 84.9612 101.04 85.7381 101.27 86.4611Z" fill="white"/>
<path opacity="0.2" d="M108.532 73.7344L107.275 74.4645L105.188 76.5843C105.729 77.6629 105.8 78.9025 105.386 80.031C107.768 79.1516 110.167 77.3694 110.799 75.4459C110.894 75.1601 110.895 74.8535 110.803 74.5669C110.711 74.2803 110.53 74.0272 110.284 73.8414C110.038 73.6556 109.739 73.5458 109.425 73.5267C109.112 73.5076 108.801 73.58 108.532 73.7344Z" fill="black"/>
<path d="M112.54 56.407C114.832 63.6065 115.957 66.6135 113.764 71.701C110.478 79.3716 100.999 80.9026 96.5709 74.606C92.595 68.9296 89.5145 58.1186 95.4044 52.4186C96.6241 51.1534 98.1761 50.2234 99.899 49.7253C101.622 49.2272 103.453 49.1792 105.202 49.5863C106.951 49.9934 108.554 50.8407 109.844 52.0401C111.135 53.2396 112.066 54.7474 112.54 56.407Z" fill="#B55B52"/>
<path opacity="0.4" d="M104.531 52.175C102.601 57.0898 107.176 63.2058 113.723 62.7348C116.771 57.1683 114.923 52.913 113.296 51.1779C111.67 49.4428 106.741 49.1445 104.531 52.175Z" fill="#263238"/>
<path d="M113.255 52.128C112.376 58.087 92.1351 54.397 91.0344 60.3717C90.9851 52.5676 100.112 42.1413 113.255 52.128Z" fill="#263238"/>
<path d="M102.601 63.7555C102.814 64.3522 102.683 64.9646 102.297 65.1216C101.911 65.2786 101.418 64.9253 101.196 64.3365C100.974 63.7476 101.114 63.1274 101.5 62.9625C101.886 62.7977 102.379 63.1667 102.601 63.7555Z" fill="#263238"/>
<path d="M95.01 66.0246C95.2318 66.6213 95.1003 67.2337 94.7142 67.3907C94.3282 67.5477 93.8353 67.1944 93.6135 66.6056C93.3917 66.0167 93.5313 65.3965 93.9174 65.2395C94.3035 65.0825 94.7964 65.4279 95.01 66.0246Z" fill="#263238"/>
<path d="M94.0983 65.1924L92.5293 65.3651C92.5293 65.3651 93.6465 66.1816 94.0983 65.1924Z" fill="#263238"/>
<path d="M97.1381 65.687C97.1122 67.2666 96.8748 68.8365 96.4316 70.3584C96.8209 70.4491 97.2266 70.4538 97.6181 70.3722C98.0095 70.2905 98.3763 70.1247 98.6907 69.8874L97.1381 65.687Z" fill="#A02724"/>
<path d="M100.662 71.8501C100.324 71.9839 99.9754 72.089 99.6186 72.1642C99.5948 72.1699 99.5699 72.1707 99.5457 72.1665C99.5215 72.1623 99.4985 72.1532 99.4783 72.1398C99.458 72.1265 99.441 72.1091 99.4284 72.0889C99.4158 72.0687 99.4078 72.0462 99.4051 72.0228C99.3975 71.9742 99.4094 71.9246 99.4383 71.8838C99.4672 71.8431 99.511 71.8143 99.5611 71.803C100.365 71.6339 101.119 71.2942 101.768 70.809C102.416 70.3239 102.942 69.7057 103.307 69.0001C103.313 68.9744 103.324 68.9501 103.341 68.9291C103.358 68.9081 103.379 68.8908 103.403 68.8785C103.428 68.8661 103.454 68.859 103.482 68.8577C103.51 68.8563 103.537 68.8607 103.563 68.8706C103.588 68.8805 103.611 68.8956 103.63 68.9149C103.649 68.9342 103.663 68.9571 103.671 68.9822C103.68 69.0073 103.683 69.0338 103.679 69.06C103.676 69.0861 103.667 69.1113 103.652 69.1336C103.041 70.3614 101.976 71.3293 100.662 71.8501Z" fill="#263238"/>
<path d="M117.329 62.5937C117.374 63.3149 117.26 64.037 116.994 64.7133C116.728 65.3895 116.316 66.0048 115.785 66.5193C114.421 67.7284 112.762 66.3387 112.319 64.3288C111.924 62.5231 112.154 59.7124 113.961 59.3041C115.769 58.8958 117.28 60.6545 117.329 62.5937Z" fill="#B55B52"/>
<path d="M102.444 60.3245C102.396 60.3338 102.346 60.333 102.298 60.3221C102.249 60.3113 102.204 60.2907 102.165 60.2617C101.798 59.9818 101.365 59.7937 100.903 59.7142C100.441 59.6347 99.9657 59.6663 99.5199 59.8063C99.4749 59.8248 99.4263 59.834 99.3772 59.8332C99.3282 59.8323 99.28 59.8215 99.2357 59.8015C99.1913 59.7814 99.152 59.7526 99.1203 59.7169C99.0886 59.6811 99.0652 59.6394 99.0517 59.5943C99.0212 59.4994 99.0286 59.397 99.0727 59.3071C99.1167 59.2171 99.1941 59.146 99.2899 59.1075C99.8502 58.924 100.45 58.8774 101.034 58.972C101.618 59.0667 102.168 59.2995 102.633 59.6493C102.713 59.7122 102.764 59.8026 102.775 59.901C102.786 59.9994 102.755 60.098 102.691 60.1753C102.629 60.2502 102.542 60.3027 102.444 60.3245Z" fill="#263238"/>
<path d="M91.5523 64.0225C91.4628 64.0574 91.3625 64.0574 91.273 64.0225C91.2264 64.0052 91.184 63.9792 91.148 63.9461C91.112 63.913 91.0832 63.8734 91.0634 63.8296C91.0435 63.7857 91.0329 63.7386 91.0323 63.6909C91.0316 63.6431 91.0408 63.5957 91.0594 63.5514C91.257 62.9879 91.586 62.4746 92.0214 62.0503C92.4569 61.626 92.9874 61.3017 93.5731 61.1019C93.6212 61.0904 93.6713 61.0885 93.7202 61.0962C93.7691 61.104 93.8158 61.1213 93.8574 61.1471C93.899 61.1729 93.9346 61.2066 93.962 61.2461C93.9894 61.2856 94.008 61.33 94.0167 61.3767C94.0354 61.4731 94.0165 61.5726 93.9635 61.6566C93.9105 61.7405 93.8271 61.8029 93.7292 61.832C93.2654 61.9911 92.8462 62.2502 92.5043 62.5892C92.1624 62.9283 91.9069 63.3382 91.7577 63.787C91.7417 63.8374 91.7153 63.8842 91.68 63.9247C91.6448 63.9652 91.6013 63.9984 91.5523 64.0225Z" fill="#263238"/>
<path d="M101.68 62.9312L100.111 63.096C100.111 63.096 101.253 63.9518 101.68 62.9312Z" fill="#263238"/>
<path d="M126.333 99.9258C126.333 100.342 126.333 100.538 126.333 100.821V101.606C126.333 102.108 126.259 102.603 126.201 103.098C126.09 104.079 125.926 105.054 125.708 106.018C125.28 107.986 124.627 109.902 123.762 111.734C122.871 113.652 121.704 115.441 120.295 117.049C118.85 118.711 117.129 120.136 115.202 121.265L114.906 121.438C114.649 121.583 114.373 121.694 114.085 121.768C112.689 122.152 111.209 122.152 109.813 121.768C108.888 121.518 107.996 121.171 107.152 120.731C105.789 120 104.506 119.14 103.324 118.164C102.235 117.269 101.203 116.312 100.235 115.298C99.2769 114.302 98.38 113.253 97.5487 112.158C97.1846 111.719 96.996 111.171 97.0167 110.611C97.0374 110.051 97.2661 109.517 97.6617 109.104C98.0573 108.691 98.594 108.426 99.1754 108.357C99.7569 108.288 100.345 108.419 100.835 108.727L100.925 108.782L104.211 110.627C105.303 111.224 106.396 111.812 107.497 112.323C108.476 112.809 109.496 113.218 110.544 113.547C110.895 113.668 111.264 113.734 111.637 113.744C111.875 113.744 111.859 113.602 111.292 113.744L110.216 114.246C111.228 113.477 112.116 112.569 112.853 111.553C113.238 111.035 113.581 110.489 113.879 109.92C114.208 109.34 114.496 108.739 114.742 108.122C115.259 106.834 115.658 105.505 115.933 104.15C116.081 103.459 116.188 102.76 116.286 102.061C116.327 101.708 116.368 101.363 116.401 101.017L116.467 100.146V99.7295C116.504 98.4801 117.059 97.296 118.009 96.4376C118.96 95.5792 120.228 95.1169 121.535 95.1523C122.843 95.1877 124.082 95.7179 124.98 96.6264C125.878 97.5348 126.362 98.7471 126.325 99.9964L126.333 99.9258Z" fill="#B55B52"/>
<path d="M95.5606 115.911H77.7677C76.9759 115.922 76.2022 115.684 75.5665 115.232C74.9308 114.781 74.4687 114.142 74.2519 113.414L72.075 102.626C71.7957 101.26 72.8965 100.153 74.5887 100.153H92.3733C93.1626 100.138 93.9352 100.372 94.5711 100.819C95.2069 101.266 95.6703 101.902 95.8892 102.626L98.0743 113.414C98.3454 114.804 97.22 115.911 95.5606 115.911Z" fill="#1A33B2"/>
<path d="M95.5606 115.911H77.7677C76.9759 115.922 76.2022 115.684 75.5665 115.232C74.9308 114.781 74.4687 114.142 74.2519 113.414L72.075 102.626C71.7957 101.26 72.8965 100.153 74.5887 100.153H92.3733C93.1626 100.138 93.9352 100.372 94.5711 100.819C95.2069 101.266 95.6703 101.902 95.8892 102.626L98.0743 113.414C98.3454 114.804 97.22 115.911 95.5606 115.911Z" fill="black" fill-opacity="0.2"/>
<path d="M95.0104 115.212H77.7597C77.1535 115.225 76.5592 115.05 76.066 114.713C75.5727 114.376 75.2072 113.896 75.0242 113.343L72.8966 102.846C72.8571 102.667 72.8603 102.481 72.9057 102.303C72.9512 102.125 73.0379 101.959 73.1595 101.818C73.3503 101.622 73.5838 101.468 73.8435 101.368C74.1033 101.267 74.3829 101.222 74.6627 101.237H91.9135C92.518 101.225 93.1103 101.4 93.6028 101.735C94.0954 102.07 94.4622 102.548 94.6489 103.097L96.7683 113.594C96.8114 113.773 96.8108 113.959 96.7666 114.137C96.7224 114.315 96.6359 114.482 96.5137 114.623C96.3229 114.82 96.0896 114.974 95.83 115.076C95.5704 115.178 95.2907 115.224 95.0104 115.212ZM74.6217 101.433C74.3718 101.42 74.1219 101.458 73.8893 101.546C73.6566 101.635 73.4469 101.77 73.2745 101.943C73.173 102.064 73.1011 102.205 73.0642 102.356C73.0272 102.507 73.0261 102.664 73.0609 102.815L75.1803 113.304C75.3594 113.807 75.7027 114.241 76.1596 114.544C76.6166 114.846 77.163 115.001 77.7186 114.984H94.9693C95.2187 114.998 95.4683 114.959 95.6999 114.869C95.9315 114.78 96.1393 114.642 96.3083 114.466C96.4127 114.348 96.487 114.209 96.5255 114.059C96.564 113.909 96.5656 113.753 96.5301 113.602L94.4682 103.137C94.2949 102.63 93.955 102.19 93.499 101.883C93.0431 101.576 92.4956 101.418 91.9381 101.433H74.6217Z" fill="white"/>
<path d="M95.9387 105.626L93.8522 105.123C93.597 105.063 93.3317 105.051 93.0718 105.09C92.8119 105.128 92.5627 105.216 92.3386 105.347C92.1145 105.479 91.9201 105.652 91.7668 105.856C91.6134 106.06 91.5041 106.291 91.4453 106.536L90.9031 108.805C90.7987 109.242 90.8603 109.7 91.0771 110.097C91.2939 110.494 91.6516 110.804 92.086 110.972L94.7311 112.009C94.7311 112.009 99.1588 114.623 100.999 112.605L101.82 109.371L98.5345 106.827C97.773 106.248 96.8864 105.837 95.9387 105.626Z" fill="#B55B52"/>
<path d="M121.659 83.3911C128.863 83.7994 131.081 90.9832 128.682 104.047C127.516 108.954 113.124 102.25 113.124 102.25C113.124 102.25 112.623 88.2902 121.659 83.3911Z" fill="#263238"/>
<path d="M325.2 222.906C322.58 207.203 329.759 186.61 338.861 188.125C346.402 189.381 326.761 218.109 325.2 222.906Z" fill="#1A33B2"/>
<path d="M325.2 222.906C322.58 207.203 329.759 186.61 338.861 188.125C346.402 189.381 326.761 218.109 325.2 222.906Z" fill="black" fill-opacity="0.2"/>
<path d="M322.334 230.914C330.893 219.287 325.62 195.388 316.583 194.846C307.547 194.304 321.594 225.065 322.334 230.914Z" fill="#263238"/>
<path d="M322.761 237.721C321.783 212.597 337.793 199.965 344.94 202.964C352.292 206.057 328.355 223.817 322.761 237.721Z" fill="#1A33B2"/>
<path d="M322.761 237.721C321.783 212.597 337.793 199.965 344.94 202.964C352.292 206.057 328.355 223.817 322.761 237.721Z" fill="black" fill-opacity="0.2"/>
<path d="M320.609 253.368C329.168 235.68 321.833 208.036 308.221 211.027C296.934 213.508 318.588 245.925 320.609 253.368Z" fill="#1A33B2"/>
<path d="M320.609 253.368C329.168 235.68 321.833 208.036 308.221 211.027C296.934 213.508 318.588 245.925 320.609 253.368Z" fill="black" fill-opacity="0.2"/>
<path d="M321.192 258.66C320.247 241.701 314.866 220.079 303.81 222.081C293.262 223.966 317.906 243.829 321.192 258.66Z" fill="#263238"/>
<path d="M318.481 266.958C321.192 241.937 343.601 227.97 343.371 237.462C343.133 247.598 326.014 254.2 318.481 266.958Z" fill="#1A33B2"/>
<path d="M318.481 266.958C321.192 241.937 343.601 227.97 343.371 237.462C343.133 247.598 326.014 254.2 318.481 266.958Z" fill="black" fill-opacity="0.2"/>
<path d="M320.658 261.659C323.804 252.709 316.411 240.555 308.648 243.154C302.216 245.313 318.637 258.393 320.658 261.659Z" fill="#1A33B2"/>
<path d="M320.658 261.659C323.804 252.709 316.411 240.555 308.648 243.154C302.216 245.313 318.637 258.393 320.658 261.659Z" fill="black" fill-opacity="0.2"/>
<path d="M320.864 258.314C317.479 239.126 334.779 206.104 350.387 213.202C365.551 220.103 328.257 236.268 320.864 258.314Z" fill="#263238"/>
<path d="M328.585 287.277H313.634C312.329 287.28 311.058 286.881 310.008 286.14C308.957 285.4 308.184 284.356 307.802 283.163C305.848 277.454 304.953 271.463 305.157 265.459C305.262 263.566 305.536 261.685 305.978 259.838C306.064 259.468 306.278 259.138 306.585 258.9C306.892 258.661 307.275 258.53 307.671 258.526H334.59C334.985 258.529 335.367 258.66 335.673 258.899C335.98 259.137 336.192 259.468 336.274 259.838C336.716 261.685 336.991 263.566 337.095 265.459C337.299 271.462 336.406 277.453 334.459 283.163C334.072 284.361 333.292 285.408 332.234 286.149C331.176 286.89 329.897 287.286 328.585 287.277Z" fill="#1A33B2"/>
<path d="M328.585 287.277H313.634C312.329 287.28 311.058 286.881 310.008 286.14C308.957 285.4 308.184 284.356 307.802 283.163C305.848 277.454 304.953 271.463 305.157 265.459C305.262 263.566 305.536 261.685 305.978 259.838C306.064 259.468 306.278 259.138 306.585 258.9C306.892 258.661 307.275 258.53 307.671 258.526H334.59C334.985 258.529 335.367 258.66 335.673 258.899C335.98 259.137 336.192 259.468 336.274 259.838C336.716 261.685 336.991 263.566 337.095 265.459C337.299 271.462 336.406 277.453 334.459 283.163C334.072 284.361 333.292 285.408 332.234 286.149C331.176 286.89 329.897 287.286 328.585 287.277Z" fill="black" fill-opacity="0.2"/>
<path opacity="0.5" d="M337.046 265.459H305.157C305.261 263.566 305.536 261.685 305.978 259.838C306.064 259.468 306.277 259.138 306.585 258.9C306.892 258.661 307.275 258.53 307.67 258.526H334.59C334.985 258.529 335.367 258.66 335.673 258.899C335.98 259.137 336.191 259.468 336.274 259.838C336.699 261.687 336.958 263.567 337.046 265.459Z" fill="white"/>
</svg>
