<svg width="340" height="334" viewBox="0 0 340 334" fill="none" xmlns="http://www.w3.org/2000/svg">
<path d="M49.7933 305.556C116.18 343.481 223.822 343.481 290.21 305.556C356.597 267.631 356.597 206.226 290.21 168.335C223.822 130.444 116.18 130.41 49.7933 168.335C-16.5939 206.26 -16.6016 267.673 49.7933 305.556Z" fill="#F5F5F5"/>
<path d="M248.353 271.162C265.774 271.162 279.896 262.254 279.896 251.264C279.896 240.275 265.774 231.366 248.353 231.366C230.933 231.366 216.811 240.275 216.811 251.264C216.811 262.254 230.933 271.162 248.353 271.162Z" fill="#E0E0E0"/>
<path d="M56.2268 240.873C55.7562 235.024 50.9195 223.284 44.756 216.222C38.5924 209.159 29.4204 204.423 23.4034 207.347C17.7953 210.061 19.0836 218.303 26.5354 223.099C33.9871 227.894 45.0491 233.802 48.9061 242.997L56.3039 254.02L56.2268 240.873Z" fill="#0D1D77"/>
<path opacity="0.1" d="M56.2268 240.873C55.7562 235.024 50.9195 223.284 44.756 216.222C38.5924 209.159 29.4204 204.423 23.4034 207.347C17.7953 210.061 19.0836 218.303 26.5354 223.099C33.9871 227.894 45.0491 233.802 48.9061 242.997L56.3039 254.02L56.2268 240.873Z" fill="black"/>
<path d="M57.2601 248.837C57.174 248.84 57.0896 248.811 57.0209 248.754C56.9521 248.697 56.9032 248.617 56.8821 248.525C51.6983 228.905 35.6222 214.098 26.4887 211.35C26.4381 211.335 26.3906 211.31 26.3491 211.275C26.3075 211.24 26.2726 211.196 26.2465 211.146C26.2204 211.097 26.2034 211.042 26.1967 210.985C26.1899 210.928 26.1935 210.87 26.2072 210.815C26.2208 210.76 26.2444 210.708 26.2764 210.663C26.3084 210.617 26.3483 210.579 26.3938 210.55C26.4393 210.522 26.4895 210.503 26.5415 210.496C26.5935 210.489 26.6464 210.493 26.697 210.508C36.0002 213.306 52.3771 228.358 57.6304 248.272C57.6457 248.326 57.6511 248.383 57.6462 248.439C57.6413 248.495 57.6261 248.549 57.6017 248.598C57.5772 248.648 57.544 248.691 57.5039 248.727C57.4638 248.762 57.4176 248.788 57.3681 248.803L57.2601 248.837Z" fill="white"/>
<path d="M55.5559 261.875C54.4297 258.673 50.3258 253.599 43.9848 249.68C37.0422 245.357 28.5104 243.873 26.2425 240.19C23.5657 235.783 26.7979 231.063 33.6249 231.333C40.4518 231.603 53.126 240.536 56.2425 255.512L55.5559 261.875Z" fill="#0D1D77"/>
<path d="M56.5895 258.302C56.5131 258.302 56.4382 258.279 56.3738 258.234C56.3094 258.189 56.2584 258.125 56.2269 258.049C49.2843 241.488 36.8338 236.625 31.2411 236.364C31.1894 236.362 31.1386 236.349 31.0917 236.325C31.0447 236.301 31.0024 236.268 30.9673 236.226C30.9322 236.185 30.905 236.136 30.8871 236.083C30.8692 236.03 30.861 235.974 30.8631 235.917C30.864 235.861 30.8755 235.805 30.8968 235.754C30.9182 235.702 30.949 235.656 30.9873 235.618C31.0256 235.58 31.0707 235.552 31.1196 235.533C31.1686 235.515 31.2204 235.508 31.272 235.513C37.4432 235.791 49.7857 240.78 56.9443 257.695C56.9844 257.798 56.9867 257.914 56.9509 258.019C56.915 258.124 56.8436 258.21 56.7515 258.259C56.7006 258.285 56.6455 258.3 56.5895 258.302Z" fill="white"/>
<path d="M265.717 233.296C265.601 228.585 266.797 220.697 271.04 212.817C275.583 204.389 281.577 198.742 286.614 200.462C291.305 202.063 290.271 209.016 283.22 216.593C278.268 221.911 273.3 228.653 270.986 236.364L267.021 246.292L265.717 233.296Z" fill="#0D1D77"/>
<path d="M265.717 233.296C265.601 228.585 266.797 220.697 271.04 212.817C275.583 204.389 281.577 198.742 286.614 200.462C291.305 202.063 290.271 209.016 283.22 216.593C278.268 221.911 273.3 228.653 270.986 236.364L267.021 246.292L265.717 233.296Z" fill="#0D1D77"/>
<g opacity="0.1">
<path d="M265.717 233.296C265.601 228.585 266.797 220.697 271.04 212.817C275.583 204.389 281.577 198.742 286.614 200.462C291.305 202.063 290.271 209.016 283.22 216.593C278.268 221.911 273.3 228.653 270.986 236.364L267.021 246.292L265.717 233.296Z" fill="black"/>
</g>
<path d="M266.504 236.794C266.567 236.788 266.626 236.76 266.673 236.715C266.721 236.669 266.753 236.608 266.766 236.541C269.79 223.107 277.442 208.965 284.578 203.673C284.634 203.619 284.671 203.544 284.681 203.463C284.691 203.382 284.673 203.3 284.632 203.232C284.59 203.164 284.527 203.115 284.455 203.093C284.383 203.072 284.306 203.08 284.239 203.116C276.995 208.519 269.227 222.821 266.172 236.406C266.163 236.448 266.162 236.492 266.168 236.535C266.174 236.577 266.188 236.618 266.209 236.655C266.23 236.692 266.257 236.724 266.289 236.749C266.321 236.774 266.357 236.792 266.396 236.802C266.432 236.808 266.469 236.805 266.504 236.794Z" fill="white"/>
<path d="M265.679 248.525C268.059 250.833 270.954 252.414 274.071 253.11C279.471 254.4 281.986 251.728 281.986 251.728C281.986 251.728 280.15 246.039 277.165 244.278C280.45 245.309 283.551 246.942 286.337 249.107C286.337 249.107 289.638 249.377 291.258 243.949C291.258 243.949 289.476 240.494 282.997 238.277C286.278 237.85 289.605 238.248 292.724 239.44C293.148 239.659 295.378 232.647 296.118 229.394C296.859 226.141 295.64 226.091 293.333 225.256C291.027 224.422 283.043 223.47 281.5 224.784C279.957 226.099 278.939 230.869 278.939 230.869C278.939 230.869 277.682 228.054 278.168 225.636C276.558 225.017 274.814 224.949 273.169 225.442C270.477 226.284 270.569 227.692 270.454 229.79C270.329 231.901 270.479 234.021 270.901 236.086C270.901 236.086 269.173 234.24 269.458 227.886C269.458 227.886 265.709 230.987 264.12 233.785C262.531 236.583 262.5 244.025 265.679 248.525Z" fill="#0D1D77"/>
<path d="M265.655 248.862C265.712 248.866 265.769 248.852 265.82 248.822C265.87 248.793 265.912 248.748 265.94 248.694C270.854 239.052 287.74 228.577 293.634 227.717C293.673 227.711 293.711 227.696 293.746 227.674C293.78 227.652 293.81 227.623 293.834 227.588C293.858 227.553 293.876 227.513 293.886 227.471C293.896 227.429 293.898 227.385 293.892 227.342C293.887 227.299 293.873 227.257 293.853 227.22C293.833 227.182 293.806 227.149 293.774 227.123C293.742 227.097 293.706 227.078 293.667 227.067C293.629 227.056 293.589 227.054 293.549 227.06C287.563 227.902 270.407 238.572 265.408 248.365C265.369 248.442 265.359 248.533 265.381 248.618C265.403 248.704 265.454 248.776 265.524 248.82C265.564 248.846 265.609 248.86 265.655 248.862Z" fill="white"/>
<path d="M60.3923 268.331L58.2941 267.008C57.3956 266.368 56.648 265.505 56.1118 264.491C55.5757 263.476 55.2662 262.337 55.2085 261.167V60.1727C55.2656 59.0014 55.5748 57.8613 56.111 56.845C56.6471 55.8288 57.3951 54.965 58.2941 54.3238L143.149 0.80735C144.105 0.276618 145.162 0 146.234 0C147.307 0 148.364 0.276618 149.32 0.80735L151.418 2.13051C152.316 2.77084 153.064 3.6333 153.6 4.648C154.136 5.6627 154.446 6.80111 154.504 7.97097V208.974C154.446 210.144 154.136 211.282 153.6 212.297C153.064 213.311 152.316 214.174 151.418 214.814L66.5636 268.331C65.6076 268.861 64.5503 269.138 63.478 269.138C62.4056 269.138 61.3484 268.861 60.3923 268.331Z" fill="#37474F"/>
<path d="M67.6204 64.1423L56.111 56.886C55.5574 57.8944 55.2468 59.0398 55.2085 60.215V261.167C55.2662 262.337 55.5757 263.476 56.1118 264.491C56.648 265.505 57.3956 266.368 58.2941 267.008L60.3923 268.331C61.3484 268.862 62.4056 269.138 63.478 269.138C64.5503 269.138 65.6076 268.862 66.5636 268.331L67.6127 267.673L67.6204 64.1423Z" fill="#263238"/>
<path d="M63.478 65.3894V266.409C63.478 268.567 64.8588 269.435 66.5637 268.356L151.418 214.839C152.316 214.199 153.064 213.337 153.6 212.322C154.136 211.307 154.446 210.169 154.504 208.999V7.9709C154.504 5.82181 153.123 4.95375 151.418 6.02408L66.5637 59.549C65.6643 60.1878 64.916 61.0499 64.3797 62.0649C63.8435 63.0799 63.5345 64.2191 63.478 65.3894Z" fill="#455A64"/>
<path d="M70.266 78.0986L147.407 29.4281C148.865 28.5095 150.053 29.2595 150.053 31.1137V191.452C150.003 192.455 149.737 193.431 149.278 194.301C148.818 195.171 148.177 195.91 147.407 196.458L70.266 245.121C68.8004 246.048 67.6201 245.298 67.6201 243.435V83.1047C67.668 82.1013 67.9328 81.1245 68.3927 80.2544C68.8526 79.3843 69.4945 78.6455 70.266 78.0986Z" fill="#FAFAFA"/>
<g opacity="0.4">
<path d="M109.268 90.7317C117.916 85.2789 124.928 89.7035 124.928 100.609C124.928 111.515 117.916 124.797 109.268 130.25C100.621 135.702 93.6089 131.286 93.6089 120.372C93.6089 109.458 100.621 96.1676 109.268 90.7317Z" fill="#0D1D77"/>
<path d="M140.132 149.094C140.132 131.168 128.615 123.204 114.406 132.171L105.519 137.776C91.3101 146.734 79.793 168.537 79.793 186.463V191.292L140.132 153.249V149.094Z" fill="#0D1D77"/>
</g>
<path d="M108.991 38.016C110.132 37.2912 111.058 37.8811 111.058 39.3223C111.02 40.1059 110.813 40.8686 110.453 41.5482C110.094 42.2278 109.593 42.805 108.991 43.2328C107.849 43.9576 106.923 43.3676 106.923 41.9265C106.962 41.1428 107.169 40.3801 107.528 39.7005C107.887 39.021 108.388 38.4438 108.991 38.016Z" fill="#263238"/>
<path d="M103.02 49.2924C107.225 46.764 114.723 41.8843 118.865 39.2211C119.567 38.766 120.138 39.0779 120.138 39.9122C120.107 40.3828 119.975 40.8388 119.753 41.243C119.53 41.6473 119.224 41.9883 118.857 42.2383L102.99 52.2505C102.28 52.6972 101.709 52.3854 101.709 51.5426C101.745 51.0796 101.883 50.6331 102.111 50.2412C102.34 49.8493 102.652 49.5237 103.02 49.2924Z" fill="#263238"/>
<path d="M99.0091 51.8294C99.6493 51.4248 100.174 51.7535 100.174 52.5626C100.151 53.0033 100.034 53.4321 99.8316 53.8142C99.6293 54.1963 99.3475 54.5211 99.0091 54.7622C98.3688 55.1668 97.8442 54.8381 97.8442 54.029C97.8669 53.5883 97.9842 53.1595 98.1865 52.7774C98.3889 52.3953 98.6706 52.0705 99.0091 51.8294Z" fill="#263238"/>
<path d="M108.991 225.956C111.305 224.515 113.133 225.686 113.133 228.568C113.056 230.138 112.64 231.665 111.92 233.025C111.201 234.386 110.197 235.541 108.991 236.398C106.676 237.839 104.856 236.667 104.856 233.785C104.934 232.217 105.349 230.691 106.067 229.331C106.785 227.97 107.787 226.814 108.991 225.956Z" fill="#263238"/>
<path d="M179.351 169.608L170.048 163.708L169.948 163.649C165.319 160.8 158.978 161.213 151.951 165.655C145.379 169.793 139.377 176.695 134.857 184.693C129.634 193.896 126.371 204.558 126.371 214.106C126.371 223.014 129.225 229.276 133.838 232.201L143.288 238.1C147.955 241.353 154.535 241.058 161.848 236.457C175.972 227.641 187.443 205.906 187.443 188.031C187.443 178.76 184.327 172.363 179.351 169.608Z" fill="#0D1D77"/>
<path opacity="0.1" d="M143.087 238.05L133.83 232.268C129.202 229.344 126.363 223.082 126.363 214.174C126.363 204.617 129.649 193.947 134.849 184.761L144.738 190.989C139.508 200.2 136.253 210.836 136.253 220.377C136.214 228.88 138.829 234.974 143.087 238.05Z" fill="black"/>
<path opacity="0.4" d="M179.189 169.49C174.622 167.071 168.536 167.686 161.855 171.892C155.175 176.097 149.251 182.974 144.722 190.972L134.833 184.744C139.353 176.746 145.355 169.844 151.927 165.706C158.947 161.273 165.296 160.851 169.924 163.7L170.025 163.759L179.189 169.49Z" fill="white"/>
<path d="M175.17 180.867L171.622 178.625L157.729 214.401L160.097 215.893L175.17 180.867Z" fill="white"/>
<path d="M155.006 206.412L151.457 204.178L147.646 212.985L151.195 215.219L155.006 206.412Z" fill="white"/>
<path d="M161.007 226.385L151.195 215.219L155.006 206.412L160.097 215.893L175.17 180.867L180.755 186.817L161.007 226.385Z" fill="#F5F5F5"/>
<path d="M147.646 212.985L151.195 215.219L161.007 226.386L157.466 224.169L147.646 212.985Z" fill="#E0E0E0"/>
<path d="M251.701 81.7733C255.719 81.7733 259.573 80.0294 262.414 76.9252C265.255 73.8211 266.852 69.611 266.852 65.2211V64.2434C266.853 62.4011 266.521 60.5766 265.877 58.8742C265.232 57.1717 264.287 55.6248 263.095 54.3216C261.903 53.0185 260.487 51.9848 258.929 51.2795C257.371 50.5742 255.702 50.2112 254.015 50.2112H249.387C245.98 50.2112 242.714 51.6896 240.305 54.3211C237.896 56.9527 236.543 60.5219 236.543 64.2434V65.2211C236.543 67.3954 236.935 69.5485 237.697 71.5573C238.459 73.566 239.575 75.3911 240.983 76.9282C242.391 78.4653 244.062 79.6844 245.901 80.5157C247.74 81.347 249.711 81.7744 251.701 81.7733Z" fill="#263238"/>
<path d="M236.072 245.5C234.305 247.525 232.368 249.365 230.287 250.995C229.969 251.227 229.706 251.535 229.515 251.897C229.245 252.52 228.821 254.054 231.405 255.04C232.712 255.535 234.101 255.716 235.478 255.57C236.854 255.425 238.186 254.957 239.381 254.197C241.511 252.748 241.603 249.731 243.609 248.003C245.09 246.73 246.941 246.402 248.145 244.733C248.978 243.57 248.762 242.028 248.322 240.115C247.852 238.024 247.628 236.448 246.995 236.609L247.103 237.569C246.332 238.943 242.22 239.348 240.4 238.412C240.369 238.395 237.222 244.126 236.072 245.5Z" fill="#263238"/>
<path d="M234.275 247.447C234.892 246.831 235.494 246.191 236.072 245.5C237.283 243.782 238.399 241.987 239.412 240.123C240.111 238.993 240.44 237.639 240.346 236.28C240.199 234.83 239.837 231.13 239.837 231.13L246.316 230.625L247.088 237.569C247.242 239.145 246.054 240.544 243.94 242.533C241.827 244.522 239.158 249.149 237.245 250.312C235.332 251.475 233.974 251.433 233.156 250.835C232.339 250.236 232.223 249.747 234.275 247.447Z" fill="#B16668"/>
<path d="M260.718 246.132V245.061C260.34 246.317 258.559 251.686 255.851 254.383C253.706 256.523 250.775 258.993 250.027 261.386C249.279 263.78 254.108 264.698 256.113 264.311C258.427 263.864 261.467 262.414 263.11 260.215C264.259 258.664 265 256.844 265.825 255.605C266.651 254.366 268.548 253.026 268.996 251.61C269.243 250.835 268.949 249.141 268.602 247.708C268.255 246.275 267.947 244.944 267.538 245.061V245.904C266.566 246.736 265.363 247.18 264.128 247.16C263.133 247.177 260.711 246.958 260.718 246.132Z" fill="#263238"/>
<path d="M253.908 256.296C254.571 255.647 255.242 255.015 255.851 254.408C257.741 252.529 259.184 249.351 260.009 247.16C260.481 245.918 260.725 244.586 260.727 243.241V239.027H267.538V245.938V246.124C267.214 247.674 264.082 251.787 262.308 254.467C261.12 256.262 258.86 258.555 256.137 258.951C253.553 259.271 252.241 258.386 253.908 256.296Z" fill="#B16668"/>
<path d="M266.18 130.452C271.464 143.052 265.987 187.449 265.987 187.449C266.149 189.497 268.302 193.526 269.073 202.527C270.014 213.162 267.592 239.862 267.592 239.862C266.553 240.522 265.383 240.895 264.182 240.948C262.981 241.001 261.787 240.732 260.703 240.165C260.703 240.165 254.216 199.939 252.989 189.371C251.925 180.142 249.904 158.449 249.904 158.449L244.596 189.565C245.579 192.476 246.274 195.493 246.671 198.566C247.219 204.794 246.81 233.558 246.81 233.558C246.81 233.558 244.496 235.496 240.014 234.78C240.014 234.78 232.3 195.388 231.691 187.904C231.336 183.438 235.995 128.606 235.995 128.606L266.18 130.452Z" fill="#0D1D77"/>
<path opacity="0.6" d="M266.18 130.452C271.464 143.052 265.987 187.449 265.987 187.449C266.149 189.497 268.302 193.526 269.073 202.527C270.014 213.162 267.592 239.862 267.592 239.862C266.553 240.522 265.383 240.895 264.182 240.948C262.981 241.001 261.787 240.732 260.703 240.165C260.703 240.165 254.216 199.939 252.989 189.371C251.925 180.142 249.904 158.449 249.904 158.449L244.596 189.565C245.579 192.476 246.274 195.493 246.671 198.566C247.219 204.794 246.81 233.558 246.81 233.558C246.81 233.558 244.496 235.496 240.014 234.78C240.014 234.78 232.3 195.388 231.691 187.904C231.336 183.438 235.995 128.606 235.995 128.606L266.18 130.452Z" fill="black"/>
<path opacity="0.3" d="M249.896 158.449L248.183 148.142C248.183 148.142 240.924 146.498 237.638 143.085C237.638 143.085 241.086 147.779 246.216 149.313L248.145 158.323L245.113 186.471L249.896 158.449Z" fill="black"/>
<path d="M274.789 124.974C274.735 124.131 273.316 115.324 272.344 110.385L262.848 113.563L264.537 122.648L272.529 129.66C275.044 129.12 274.843 125.8 274.789 124.974Z" fill="#B16668"/>
<path d="M228.86 106.365L224.37 115.358L231.359 121.898L237.754 110.815L228.86 106.365Z" fill="#B16668"/>
<path d="M245.707 86.3325C241.256 86.3831 236.35 88.1445 234.661 91.9623C232.971 95.7801 228.304 106.29 228.304 106.29C228.304 106.29 232.462 112.459 238.703 112.012L245.707 86.3325Z" fill="#0D1D77"/>
<path opacity="0.6" d="M245.707 86.3325C241.256 86.3831 236.35 88.1445 234.661 91.9623C232.971 95.7801 228.304 106.29 228.304 106.29C228.304 106.29 232.462 112.459 238.703 112.012L245.707 86.3325Z" fill="black"/>
<path d="M254.918 86.5011L258.628 86.6696C262.655 87.7231 264.113 90.7487 265.802 94.6507C267.041 97.664 267.157 101.086 266.126 104.191L261.405 119.108C261.405 119.108 263.611 124.94 266.18 130.452C254.339 137.675 239.551 133.874 235.987 128.606C235.841 127.485 236.041 122.454 235.756 116.723C235.455 110.605 234.684 103.702 235.563 99.9265C237.199 92.9146 240.253 86.3325 246.363 86.3325L254.918 86.5011Z" fill="#F5F5F5"/>
<path d="M258.644 86.6697C262.678 87.2933 268.618 88.1783 270.662 98.6709C272.737 109.307 273.131 111.843 273.131 111.843C273.131 111.843 269.598 115.695 262.894 115.661C262.879 115.661 256.97 94.7772 258.644 86.6697Z" fill="#0D1D77"/>
<path opacity="0.6" d="M258.644 86.6697C262.678 87.2933 268.618 88.1783 270.662 98.6709C272.737 109.307 273.131 111.843 273.131 111.843C273.131 111.843 269.598 115.695 262.894 115.661C262.879 115.661 256.97 94.7772 258.644 86.6697Z" fill="black"/>
<path d="M262.701 115.012C261.93 112.223 261.159 109.037 260.426 105.615C260.457 109.917 260.858 114.206 261.621 118.426L262.701 115.012Z" fill="#EBEBEB"/>
<path d="M241.488 56.9028C239.891 57.9395 237.916 62.3388 238.109 71.5588C238.271 79.3713 240.593 81.3013 241.758 81.8575C242.922 82.4138 245.167 82.0766 247.35 81.6805V86.3748C247.35 86.3748 244.334 90.201 244.519 92.3501C244.704 94.4992 248.878 95.0133 251.701 92.9064C253.529 91.4684 255.098 89.6741 256.329 87.6137V76.2699C256.329 76.2699 257.803 78.419 260.186 76.6744C262.57 74.9299 262.686 70.598 261.29 69.0388C259.893 67.4797 256.862 67.977 256.306 70.126C256.306 70.126 252.82 70.2693 248.183 67.4881C246.386 66.421 244.843 64.9069 243.68 63.0681C242.517 61.2292 241.766 59.1173 241.488 56.9028Z" fill="#B16668"/>
<path d="M246.093 69.595C246.09 69.7885 246.139 69.9786 246.235 70.1417C246.33 70.3047 246.468 70.4335 246.629 70.512C246.791 70.5904 246.971 70.6151 247.146 70.5829C247.32 70.5507 247.482 70.463 247.612 70.3308C247.741 70.1987 247.832 70.0278 247.873 69.8396C247.914 69.6514 247.904 69.4541 247.843 69.2723C247.782 69.0905 247.674 68.9323 247.531 68.8173C247.389 68.7024 247.219 68.6358 247.042 68.6258C246.921 68.6213 246.801 68.6428 246.688 68.6891C246.575 68.7354 246.472 68.8056 246.383 68.8956C246.295 68.9856 246.224 69.0937 246.174 69.2137C246.125 69.3337 246.097 69.4633 246.093 69.595Z" fill="#263238"/>
<path d="M245.854 76.2192L243.763 76.9525C243.799 77.1071 243.863 77.2523 243.951 77.3792C244.039 77.5061 244.15 77.6122 244.277 77.6909C244.404 77.7697 244.544 77.8196 244.689 77.8375C244.834 77.8554 244.981 77.841 245.121 77.7952C245.407 77.6893 245.644 77.465 245.781 77.1704C245.918 76.8759 245.944 76.5345 245.854 76.2192Z" fill="#9A4A4D"/>
<path d="M238.718 66.5778L240.539 65.2041C240.463 65.0648 240.361 64.9444 240.241 64.8505C240.12 64.7565 239.982 64.6912 239.837 64.6587C239.692 64.6262 239.542 64.6272 239.397 64.6616C239.252 64.696 239.116 64.7631 238.996 64.8586C238.758 65.0524 238.596 65.3384 238.545 65.658C238.493 65.9776 238.555 66.3066 238.718 66.5778Z" fill="#263238"/>
<path d="M239.135 68.8872C239.134 69.0804 239.184 69.2697 239.281 69.4317C239.377 69.5936 239.515 69.7211 239.677 69.7983C239.839 69.8755 240.018 69.8989 240.192 69.8657C240.367 69.8326 240.528 69.7442 240.657 69.6117C240.785 69.4792 240.875 69.3083 240.916 69.1202C240.956 68.9322 240.945 68.7353 240.884 68.554C240.823 68.3727 240.715 68.215 240.573 68.1004C240.43 67.9858 240.26 67.9195 240.084 67.9096C239.84 67.905 239.604 68.0046 239.427 68.1873C239.25 68.37 239.145 68.6212 239.135 68.8872Z" fill="#263238"/>
<path d="M243.377 68.3223L243.239 74.2386L240.392 73.2778L243.377 68.3223Z" fill="#9A4A4D"/>
<path d="M247.35 81.6805C249.664 81.3518 254.378 79.8685 255.118 77.8206C254.823 78.8563 254.244 79.7682 253.46 80.4332C252.048 81.7563 247.35 83.2481 247.35 83.2481V81.6805Z" fill="#9A4A4D"/>
<path d="M209.698 105.818L235.81 113.327L243.524 148.74L218.693 140.86L209.698 105.818Z" fill="#0D1D77"/>
<path opacity="0.15" d="M221.084 129.247C220.844 129.972 219.41 131.977 216.37 131.817L216 130.351L221.084 129.247Z" fill="black"/>
<path opacity="0.15" d="M226.923 130.351C227.039 131.295 228.813 133.048 231.814 134.135C235.231 135.382 240.469 134.725 240.469 134.725L239.999 132.963L226.923 130.351Z" fill="black"/>
<path opacity="0.15" d="M217.343 110.942C217.343 110.942 217.25 110.453 217.127 109.854C217.003 109.256 218.546 109.222 220.552 109.795L224.409 110.883C226.414 111.456 228.142 112.408 228.266 113.006L228.482 114.094L217.343 110.942Z" fill="black"/>
<path d="M215.537 106.837C215.46 106.458 216.077 106.365 216.918 106.618L218.461 107.073C218.461 107.073 218.006 104.722 221.385 105.548C224.763 106.374 225.504 109.037 225.504 109.037L227.132 109.543C228.034 109.821 228.844 110.385 228.952 110.731L229.145 111.405L215.692 107.537C215.692 107.537 215.607 107.208 215.537 106.837Z" fill="#37474F"/>
<path d="M217.389 108.009C218.623 108.338 219.132 108.515 219.317 109.442C219.526 110.504 219.611 111.279 219.611 111.279L225.566 112.964C225.566 112.964 225.28 111.624 225.188 111.102C225.095 110.579 225.296 110.259 226.245 110.537L226.322 110.124L216.988 107.562L217.389 108.009Z" fill="#37474F"/>
<path d="M217.18 111.043C217.18 111.043 217.088 110.554 216.964 109.955C216.841 109.357 218.384 109.332 220.389 109.896L224.247 110.992C226.252 111.557 227.98 112.509 228.104 113.107L228.32 114.195L217.18 111.043Z" fill="#37474F"/>
<path d="M272.529 129.66L264.53 122.648C264.53 122.648 246.849 126.087 244.766 126.263C243.667 126.296 242.585 125.965 241.661 125.314C240.738 124.663 240.016 123.722 239.59 122.614C238.819 120.381 237.407 120.659 237.407 120.659C237.407 120.659 238.016 123.482 238.178 124.384C238.34 125.286 233.396 126.07 230.634 125.008C227.872 123.946 223.869 125.471 226.345 129.576C228.821 133.68 233.642 134.16 236.983 134.16C238.383 134.149 239.782 134.048 241.171 133.857C242.251 133.705 243.331 133.587 244.419 133.503C251.308 132.964 269.443 130.722 272.529 129.66Z" fill="#B16668"/>
<path d="M212.359 116.167L213.516 120.684C213.74 121.527 216.771 123.128 218.692 123.71C220.613 124.291 222.711 124.966 221.778 127.924C220.945 130.629 217.782 131.244 216.178 131.168C214.573 131.093 212.367 129.415 211.503 126.71C210.392 123.255 210.986 119.563 210.546 117.549C210.107 115.535 211.395 114.962 212.359 116.167Z" fill="#B16668"/>
<path d="M264.923 99.9266C263.795 99.9277 262.678 99.6858 261.635 99.2149C260.592 98.744 259.645 98.0533 258.847 97.1821C258.049 96.311 257.416 95.2766 256.984 94.138C256.552 92.9994 256.33 91.7789 256.33 90.5464V77.3738C258.606 77.376 260.789 78.365 262.398 80.1236C264.008 81.8823 264.913 84.2668 264.915 86.7539L264.923 99.9266Z" fill="#263238"/>
</svg>
