<svg width="340" height="334" viewBox="0 0 340 334" fill="none" xmlns="http://www.w3.org/2000/svg">
<path d="M49.6881 306.926C115.955 342.353 223.409 342.353 289.705 306.926C356.002 271.498 355.98 214.139 289.705 178.741C223.431 143.343 115.985 143.343 49.718 178.741C-16.549 214.139 -16.5863 271.528 49.6881 306.926Z" fill="#F5F5F5"/>
<path d="M45.7123 243.203L43.8025 242.099C42.9852 241.566 42.3052 240.848 41.8178 240.002C41.3304 239.157 41.0494 238.209 40.9976 237.235V69.8254C41.0494 68.8511 41.3304 67.9029 41.8178 67.0577C42.3052 66.2125 42.9852 65.4943 43.8025 64.9615L121.013 20.3807C121.884 19.9396 122.846 19.7097 123.822 19.7097C124.798 19.7097 125.76 19.9396 126.631 20.3807L128.57 21.4848C129.388 22.0176 130.068 22.7358 130.555 23.5809C131.042 24.4261 131.323 25.3744 131.375 26.3487V193.758C131.323 194.732 131.042 195.681 130.555 196.526C130.068 197.371 129.388 198.089 128.57 198.622L51.3371 243.203C50.4652 243.644 49.5018 243.874 48.5247 243.874C47.5475 243.874 46.5841 243.644 45.7123 243.203Z" fill="#37474F"/>
<path d="M52.2919 73.1004L41.8479 67.0579C41.3433 67.8955 41.0608 68.8482 41.0273 69.8255V237.235C41.0792 238.209 41.3602 239.157 41.8476 240.003C42.335 240.848 43.015 241.566 43.8323 242.099L45.742 243.203C46.6139 243.644 47.5773 243.874 48.5545 243.874C49.5316 243.874 50.495 243.644 51.3669 243.203L52.3218 242.651L52.2919 73.1004Z" fill="#263238"/>
<path d="M48.5244 74.1745V241.584C48.5244 243.374 49.7852 244.098 51.3368 243.203L128.57 198.622C129.387 198.089 130.067 197.371 130.555 196.526C131.042 195.681 131.323 194.732 131.375 193.758V26.3486C131.375 24.5582 130.122 23.8346 128.57 24.7298L51.3368 69.3181C50.5212 69.8515 49.8419 70.5687 49.3535 71.4121C48.8651 72.2555 48.5811 73.2016 48.5244 74.1745Z" fill="#3F4753"/>
<path d="M54.7162 84.7529L124.922 44.2228C126.25 43.4768 127.332 44.0811 127.332 45.6179V179.151C127.286 179.988 127.044 180.802 126.625 181.528C126.207 182.253 125.623 182.87 124.922 183.329L54.7162 223.874C53.3809 224.62 52.3066 224.016 52.3066 222.479V88.9454C52.3472 88.1056 52.5869 87.2875 53.0059 86.5586C53.4248 85.8296 54.011 85.2107 54.7162 84.7529Z" fill="#FAFAFA"/>
<path d="M89.9421 51.3622C90.979 50.7654 91.822 51.2503 91.822 52.4513C91.7872 53.1043 91.5989 53.7399 91.2722 54.3063C90.9456 54.8728 90.4898 55.3542 89.9421 55.7113C88.8977 56.3156 88.0547 55.8232 88.0547 54.6296C88.0903 53.975 88.2797 53.3379 88.6077 52.7702C88.9356 52.2025 89.3928 51.7201 89.9421 51.3622Z" fill="#263238"/>
<path d="M84.5041 60.769C88.3311 58.6578 95.1495 54.5921 98.9243 52.3765C99.5658 51.9961 100.081 52.2572 100.081 52.9584C100.051 53.349 99.9304 53.7272 99.7283 54.0628C99.5262 54.3983 99.2483 54.6818 98.9168 54.8905L84.4743 63.2308C83.8327 63.6038 83.3105 63.3352 83.3105 62.6415C83.3435 62.2562 83.4693 61.8846 83.6772 61.5585C83.8851 61.2324 84.1688 60.9615 84.5041 60.769Z" fill="#263238"/>
<path d="M80.8264 62.8802C81.4083 62.5371 81.8783 62.8131 81.8783 63.4845C81.8598 63.8516 81.7548 64.2091 81.5721 64.528C81.3893 64.8469 81.1338 65.1181 80.8264 65.3196C80.2445 65.6553 79.7671 65.3793 79.7671 64.7079C79.7882 64.3416 79.895 63.9853 80.079 63.6679C80.263 63.3504 80.519 63.0806 80.8264 62.8802Z" fill="#263238"/>
<path d="M89.9421 207.872C92.016 206.671 93.6721 207.641 93.6721 210.043C93.6054 211.346 93.233 212.616 92.585 213.748C91.937 214.881 91.0317 215.845 89.9421 216.563C87.8608 217.764 86.1748 216.795 86.1748 214.392C86.2457 213.086 86.6238 211.815 87.2784 210.682C87.933 209.549 88.8456 208.586 89.9421 207.872Z" fill="#263238"/>
<path d="M168.481 234.773C168.022 234.46 167.644 234.044 167.375 233.558C167.107 233.073 166.957 232.53 166.937 231.976V142.919C166.967 142.346 167.132 141.789 167.419 141.292C167.705 140.796 168.105 140.374 168.585 140.061L282.835 74.1002C283.312 73.7996 283.862 73.6349 284.425 73.6239C284.989 73.6129 285.545 73.756 286.033 74.0377C286.521 74.3195 286.923 74.7292 287.196 75.2227C287.468 75.7162 287.601 76.2747 287.579 76.838V165.895C287.549 166.468 287.384 167.025 287.097 167.521C286.811 168.018 286.411 168.44 285.931 168.752L171.681 234.721C171.189 234.979 170.643 235.118 170.087 235.127C169.531 235.136 168.981 235.015 168.481 234.773Z" fill="#3F4753"/>
<path d="M287.564 76.5619C287.445 75.7114 286.759 75.3981 285.931 75.883L171.681 141.844C171.193 142.147 170.792 142.571 170.517 143.075L167.421 141.292C167.696 140.788 168.097 140.364 168.585 140.061L282.842 74.0926C283.298 73.8047 283.822 73.6416 284.361 73.6197C284.901 73.5978 285.436 73.7179 285.914 73.9679C286.392 74.2179 286.796 74.5891 287.086 75.0443C287.375 75.4996 287.54 76.0228 287.564 76.5619Z" fill="#37474F"/>
<path d="M171.293 234.885C171.257 234.908 171.216 234.923 171.174 234.93C171.101 234.966 171.023 234.991 170.943 235.004H170.816C170.738 235.027 170.658 235.042 170.577 235.049H170.383C170.098 235.087 169.81 235.087 169.525 235.049C169.162 235.012 168.809 234.903 168.488 234.728C168.027 234.417 167.647 234.002 167.377 233.516C167.107 233.03 166.957 232.487 166.937 231.931V142.911C166.957 142.339 167.124 141.782 167.421 141.292L170.517 143.075C170.22 143.567 170.053 144.127 170.032 144.701V233.766C170.007 233.982 170.045 234.201 170.141 234.396C170.238 234.59 170.389 234.753 170.577 234.863C170.659 234.903 170.747 234.929 170.838 234.937C170.94 234.952 171.043 234.952 171.144 234.937L171.293 234.885Z" fill="#263238"/>
<path d="M179.298 167.917V181.964C179.298 183.016 180.044 183.456 180.947 182.919L199.298 172.318C199.778 172.004 200.177 171.582 200.463 171.086C200.749 170.59 200.915 170.033 200.947 169.461V155.421C200.947 154.369 200.201 153.929 199.298 154.466L180.947 165.067C180.466 165.378 180.067 165.799 179.78 166.294C179.494 166.789 179.328 167.345 179.298 167.917Z" fill="#0B1F8E"/>
<path d="M203.861 156.723L176.028 172.805L176.402 173.451L204.234 157.369L203.861 156.723Z" fill="white"/>
<path d="M185.87 167.76H185.124V174.922H185.87V167.76Z" fill="white"/>
<path d="M195.15 162.434H194.404V169.58H195.15V162.434Z" fill="white"/>
<path d="M203.863 163.899L176.03 179.981L176.403 180.627L204.236 164.545L203.863 163.899Z" fill="white"/>
<path d="M180.044 156.548C179.962 156.503 179.924 156.384 179.924 156.19V148.394C179.919 148.22 179.961 148.047 180.044 147.894C180.136 147.739 180.271 147.612 180.431 147.529L183.759 145.604C184.587 145.127 185.213 144.985 185.631 145.186C186.049 145.388 186.258 145.88 186.258 146.678C186.253 147.107 186.164 147.53 185.997 147.924C185.837 148.33 185.602 148.702 185.303 149.021C186.049 148.871 186.467 149.304 186.467 150.326C186.46 150.838 186.359 151.344 186.168 151.818C185.956 152.366 185.648 152.871 185.258 153.31C184.83 153.794 184.326 154.204 183.766 154.526L180.439 156.443C180.267 156.6 180.133 156.6 180.044 156.548ZM183.438 149.416C183.728 149.257 183.972 149.026 184.147 148.745C184.312 148.473 184.397 148.16 184.393 147.842C184.393 147.484 184.318 147.275 184.161 147.208C184.005 147.141 183.766 147.208 183.415 147.394L181.774 148.349V150.363L183.438 149.416ZM183.624 153.034C183.924 152.867 184.173 152.622 184.346 152.325C184.52 152.029 184.61 151.692 184.609 151.348C184.609 150.975 184.512 150.744 184.326 150.669C184.188 150.637 184.045 150.635 183.907 150.665C183.769 150.694 183.639 150.755 183.527 150.841L181.797 151.848V154.086L183.624 153.034Z" fill="white"/>
<path d="M186.459 152.765C186.45 152.689 186.45 152.611 186.459 152.534L189.398 142.754C189.437 142.61 189.495 142.473 189.57 142.344C189.642 142.239 189.739 142.154 189.853 142.098L190.681 141.62C190.801 141.553 190.89 141.523 190.95 141.546C191.03 141.592 191.091 141.667 191.122 141.755L194.061 148.148C194.072 148.209 194.072 148.273 194.061 148.334C194.062 148.404 194.044 148.474 194.009 148.534C193.973 148.595 193.921 148.644 193.859 148.677L192.487 149.468C192.42 149.519 192.339 149.545 192.255 149.543C192.203 149.543 192.166 149.483 192.121 149.401L191.606 148.155L188.846 149.752L188.331 151.587C188.307 151.693 188.264 151.794 188.205 151.885C188.141 151.962 188.062 152.026 187.973 152.072L186.668 152.87C186.526 152.945 186.459 152.915 186.459 152.765ZM191.233 146.902L190.286 144.612L189.339 147.991L191.233 146.902Z" fill="white"/>
<path d="M195.195 147.805C195.113 147.76 195.076 147.641 195.076 147.454V139.666C195.07 139.494 195.111 139.324 195.195 139.173C195.291 139.013 195.431 138.884 195.598 138.8L196.299 138.398C196.386 138.338 196.486 138.299 196.59 138.286C196.671 138.297 196.745 138.337 196.799 138.398L199.977 141.74V136.853C199.971 136.677 200.012 136.502 200.096 136.346C200.191 136.192 200.325 136.066 200.484 135.981L201.335 135.488C201.529 135.376 201.655 135.346 201.737 135.399C201.82 135.451 201.849 135.57 201.849 135.772V143.538C201.855 143.709 201.816 143.878 201.737 144.03C201.639 144.186 201.499 144.312 201.335 144.395L200.589 144.813C200.505 144.87 200.407 144.904 200.305 144.91C200.225 144.901 200.152 144.864 200.096 144.806L196.911 141.479V146.372C196.915 146.541 196.877 146.708 196.799 146.857C196.701 147.015 196.561 147.144 196.396 147.23L195.546 147.715C195.404 147.827 195.27 147.849 195.195 147.805Z" fill="white"/>
<path d="M209.391 139.524C209.393 139.594 209.375 139.663 209.339 139.724C209.304 139.785 209.252 139.834 209.19 139.867L207.773 140.68C207.708 140.721 207.638 140.751 207.564 140.77C207.513 140.776 207.463 140.763 207.422 140.733L204.915 138.375V141.822C204.92 141.993 204.881 142.162 204.804 142.314C204.703 142.468 204.564 142.594 204.401 142.68L203.55 143.172C203.371 143.276 203.244 143.306 203.162 143.261C203.08 143.217 203.043 143.09 203.043 142.903V135.1C203.037 134.926 203.078 134.753 203.162 134.6C203.257 134.444 203.39 134.315 203.55 134.227L204.401 133.735C204.595 133.631 204.722 133.601 204.804 133.646C204.886 133.69 204.915 133.817 204.915 134.019V137.398V137.331L207.34 132.191C207.374 132.111 207.422 132.038 207.482 131.975C207.553 131.91 207.63 131.852 207.713 131.803L209.108 130.997C209.25 130.923 209.317 130.96 209.317 131.109C209.312 131.195 209.289 131.279 209.25 131.355L206.557 136.906L209.324 139.352C209.348 139.374 209.367 139.4 209.379 139.43C209.39 139.46 209.395 139.492 209.391 139.524Z" fill="white"/>
<path d="M215.292 135.339C214.546 134.958 214.203 134.018 214.203 132.511C214.185 131.083 214.551 129.677 215.263 128.438C216.001 127.21 217.047 126.197 218.299 125.499C218.768 125.215 219.269 124.987 219.791 124.82C220.157 124.693 220.548 124.655 220.932 124.708C220.949 124.71 220.965 124.715 220.98 124.723C220.994 124.732 221.007 124.743 221.018 124.756C221.028 124.769 221.036 124.784 221.04 124.8C221.045 124.817 221.046 124.833 221.044 124.85C221.038 124.94 221.015 125.029 220.977 125.111L220.574 126.141C220.546 126.232 220.492 126.312 220.417 126.372C220.358 126.403 220.29 126.416 220.223 126.409C219.616 126.408 219.021 126.587 218.515 126.924C217.753 127.356 217.124 127.988 216.695 128.752C216.255 129.577 216.034 130.502 216.053 131.437C216.053 132.467 216.277 133.116 216.725 133.369C217.031 133.485 217.362 133.52 217.685 133.469C218.008 133.418 218.312 133.283 218.567 133.078C219.254 132.697 219.863 132.191 220.365 131.586C220.42 131.512 220.485 131.447 220.559 131.393C220.611 131.393 220.664 131.392 220.716 131.445L221.156 132.071C221.183 132.108 221.198 132.152 221.201 132.198C221.18 132.3 221.134 132.395 221.066 132.474C220.33 133.432 219.396 134.221 218.329 134.787C217.031 135.533 216.009 135.712 215.292 135.339Z" fill="white"/>
<path d="M221.626 132.46C221.621 132.385 221.621 132.31 221.626 132.236L224.61 122.448C224.642 122.302 224.7 122.163 224.782 122.038C224.856 121.94 224.95 121.859 225.058 121.799L225.886 121.314C225.965 121.256 226.065 121.232 226.162 121.247C226.244 121.292 226.306 121.367 226.333 121.456L229.273 127.842C229.283 127.906 229.283 127.972 229.273 128.036C229.275 128.105 229.258 128.174 229.222 128.234C229.186 128.293 229.134 128.341 229.071 128.372L227.699 129.17C227.631 129.217 227.55 129.243 227.467 129.244C227.436 129.232 227.408 129.213 227.384 129.188C227.361 129.164 227.344 129.135 227.333 129.103L226.811 127.857L224.058 129.446L223.551 131.288C223.523 131.391 223.48 131.489 223.424 131.579C223.359 131.66 223.277 131.726 223.185 131.773L221.82 132.564C221.693 132.646 221.626 132.609 221.626 132.46ZM226.401 126.596L225.461 124.313L224.506 127.693L226.401 126.596Z" fill="white"/>
<path d="M230.354 127.506C230.279 127.461 230.234 127.342 230.234 127.148V119.375C230.233 119.201 230.274 119.029 230.354 118.875C230.452 118.721 230.588 118.595 230.749 118.509L233.621 116.853C235.536 115.739 236.496 116.152 236.501 118.091C236.505 118.7 236.389 119.304 236.158 119.867C235.923 120.45 235.581 120.984 235.151 121.441L236.344 123.768C236.356 123.822 236.356 123.879 236.344 123.933C236.344 124.011 236.322 124.088 236.279 124.154C236.237 124.22 236.177 124.273 236.105 124.306L234.852 125.052C234.782 125.103 234.7 125.136 234.613 125.149C234.554 125.149 234.509 125.104 234.472 125.022L233.427 122.784L232.077 123.53V126.096C232.089 126.273 232.047 126.45 231.956 126.604C231.866 126.757 231.731 126.879 231.57 126.954L230.719 127.446C230.57 127.506 230.436 127.551 230.354 127.506ZM233.338 121.225C233.727 121.017 234.06 120.717 234.308 120.352C234.53 119.999 234.644 119.59 234.636 119.173C234.636 118.718 234.531 118.427 234.337 118.345C234.143 118.263 233.845 118.345 233.45 118.539L232.107 119.3V121.918L233.338 121.225Z" fill="white"/>
<path d="M237.553 123.351C237.47 123.306 237.433 123.187 237.433 122.993V115.227C237.427 115.053 237.469 114.88 237.553 114.727C237.645 114.569 237.779 114.44 237.94 114.354L240.328 112.982C241.621 112.231 242.603 112.019 243.274 112.348C243.946 112.676 244.281 113.608 244.281 115.145C244.319 116.534 243.967 117.906 243.267 119.106C242.537 120.267 241.526 121.224 240.328 121.889L237.94 123.261C237.761 123.366 237.627 123.396 237.553 123.351ZM240.417 120.248C241.045 119.9 241.562 119.383 241.909 118.756C242.278 117.971 242.449 117.108 242.409 116.242C242.409 115.197 242.245 114.556 241.909 114.317C241.573 114.078 241.074 114.16 240.417 114.548L239.306 115.19V120.912L240.417 120.248Z" fill="white"/>
<path d="M179.298 194.713V198.047C179.298 199.099 180.044 199.539 180.947 199.002L199.298 188.402C199.775 188.086 200.171 187.664 200.455 187.167C200.738 186.671 200.902 186.115 200.932 185.545V182.21C200.932 181.158 200.186 180.718 199.283 181.255L180.932 191.856C180.454 192.17 180.057 192.593 179.773 193.089C179.49 193.585 179.327 194.142 179.298 194.713Z" fill="#EBEBEB"/>
<path d="M205.087 179.83V183.165C205.087 184.217 205.833 184.657 206.736 184.112L225.095 173.519C225.574 173.205 225.973 172.783 226.26 172.287C226.546 171.791 226.712 171.234 226.743 170.662V167.327C226.743 166.275 225.997 165.835 225.095 166.372L206.736 176.973C206.255 177.286 205.856 177.708 205.569 178.204C205.283 178.701 205.117 179.258 205.087 179.83Z" fill="#EBEBEB"/>
<path d="M230.869 164.94V168.275C230.869 169.327 231.615 169.767 232.517 169.23L250.869 158.629C251.349 158.318 251.749 157.897 252.035 157.402C252.322 156.907 252.487 156.351 252.518 155.779V152.437C252.518 151.385 251.772 150.945 250.869 151.49L232.517 162.083C232.038 162.397 231.639 162.819 231.352 163.315C231.066 163.811 230.9 164.368 230.869 164.94Z" fill="#EBEBEB"/>
<path d="M256.643 150.058V153.392C256.643 154.444 257.389 154.884 258.291 154.347L276.65 143.746C277.131 143.434 277.53 143.012 277.817 142.515C278.103 142.019 278.268 141.462 278.299 140.889V137.555C278.299 136.503 277.553 136.063 276.65 136.6L258.291 147.2C257.812 147.514 257.413 147.936 257.126 148.432C256.84 148.929 256.674 149.485 256.643 150.058Z" fill="#EBEBEB"/>
<path d="M268.027 154.086L263.819 156.518C263.532 156.705 263.294 156.957 263.122 157.254C262.951 157.551 262.853 157.884 262.834 158.226V159.517C262.834 160.143 263.275 160.405 263.819 160.084L268.027 157.659C268.316 157.472 268.557 157.219 268.729 156.921C268.902 156.622 269.001 156.288 269.019 155.943V154.653C269.019 154.026 268.579 153.773 268.027 154.086Z" fill="#0B1F8E"/>
<path d="M277.307 148.73L273.099 151.154C272.812 151.343 272.574 151.597 272.403 151.895C272.232 152.193 272.133 152.527 272.115 152.87V154.161C272.115 154.787 272.555 155.041 273.099 154.728L277.307 152.296C277.596 152.11 277.836 151.858 278.009 151.561C278.181 151.264 278.281 150.93 278.299 150.587V149.297C278.299 148.67 277.859 148.394 277.307 148.73Z" fill="#0B1F8E"/>
<path d="M224.184 188.327L276.568 158.092C277.478 157.562 278.217 157.995 278.217 159.047V160.591C278.186 161.163 278.021 161.72 277.735 162.217C277.448 162.713 277.049 163.135 276.568 163.448L224.184 193.691C223.274 194.221 222.536 193.795 222.536 192.743V191.192C222.566 190.618 222.731 190.06 223.018 189.562C223.304 189.065 223.704 188.642 224.184 188.327Z" fill="#0B1F8E"/>
<path d="M113.135 64.0962V140.8C113.166 141.36 113.328 141.904 113.608 142.39C113.888 142.876 114.278 143.29 114.747 143.597L117.581 145.231C118.082 145.485 118.635 145.617 119.196 145.617C119.758 145.617 120.311 145.485 120.812 145.231L169.093 117.36C169.563 117.054 169.954 116.641 170.236 116.155C170.517 115.669 170.68 115.124 170.711 114.563V37.8744C170.681 37.3136 170.518 36.7679 170.237 36.2817C169.956 35.7956 169.564 35.3828 169.093 35.0769L166.265 33.4432C165.765 33.1896 165.211 33.0574 164.65 33.0574C164.089 33.0574 163.536 33.1896 163.035 33.4432L114.747 61.3211C114.281 61.6265 113.892 62.0363 113.613 62.5181C113.333 62.9998 113.169 63.5402 113.135 64.0962Z" fill="#EBEBEB"/>
<path d="M170.697 37.6133C170.585 36.7778 169.906 36.4719 169.093 36.9419L120.812 64.8422C120.332 65.141 119.937 65.5569 119.663 66.0508L113.605 62.552C113.881 62.0617 114.273 61.6467 114.747 61.3435L163.035 33.4432C163.536 33.1896 164.089 33.0574 164.65 33.0574C165.212 33.0574 165.765 33.1896 166.265 33.4432L169.093 35.0769C169.527 35.3596 169.895 35.7325 170.171 36.1702C170.448 36.6079 170.627 37.1001 170.697 37.6133Z" fill="#F5F5F5"/>
<path d="M120.528 145.358C120.496 145.364 120.463 145.364 120.431 145.358C120.369 145.388 120.304 145.411 120.237 145.425L119.909 145.507C119.258 145.629 118.586 145.575 117.962 145.35C117.839 145.305 117.719 145.25 117.604 145.186L114.769 143.553C114.3 143.245 113.91 142.832 113.63 142.346C113.35 141.86 113.189 141.315 113.158 140.755V64.0963C113.177 63.5353 113.339 62.9885 113.628 62.5073L119.685 66.006C119.396 66.4872 119.234 67.0341 119.215 67.595V144.299C119.199 144.602 119.286 144.901 119.461 145.149C119.564 145.273 119.7 145.365 119.854 145.413C120.007 145.462 120.171 145.466 120.327 145.425L120.528 145.358Z" fill="#CFE6FC"/>
<path d="M152.233 94.5479C154.344 95.9578 157.052 96.0398 159.797 95.5251" stroke="#3F4753" stroke-width="1.25" stroke-miterlimit="10" stroke-linecap="round"/>
<path d="M145.317 79.7621C147.555 79.113 148.906 80.2171 149.144 83.3801C149.435 87.2743 149.346 90.9371 151.345 93.1826" stroke="#3F4753" stroke-width="1.25" stroke-miterlimit="10" stroke-linecap="round"/>
<path d="M141.64 100.65C139.954 96.5323 139.089 83.8205 143.878 80.5083" stroke="#3F4753" stroke-width="1.25" stroke-miterlimit="10" stroke-linecap="round"/>
<path d="M156.09 108.483C150.592 109.132 145.407 107.484 142.475 102.336" stroke="#3F4753" stroke-width="1.25" stroke-miterlimit="10" stroke-linecap="round"/>
<path d="M157.179 105.477C148.331 106.439 142.028 101.941 143.065 86.8714C143.169 85.454 143.952 83.8277 145.004 83.216H145.042C146.116 82.6267 147.205 83.3204 147.183 84.7528C147.026 95.5324 150.517 100.538 159.357 98.9715" stroke="#3F4753" stroke-width="1.25" stroke-miterlimit="10" stroke-linecap="round"/>
<path d="M154.031 112.079C142.968 112.825 137.045 105.477 137.918 89.9824C138.208 84.8649 140.156 79.1953 143.99 76.9797C144.042 76.943 144.097 76.9106 144.154 76.8827C148.048 74.7417 151.084 76.9872 151.487 82.239C151.875 87.2819 152.017 93.235 160.35 91.825" stroke="#3F4753" stroke-width="1.25" stroke-miterlimit="10" stroke-linecap="round"/>
<path d="M146.474 114.884C148.151 115.484 149.915 115.804 151.696 115.831" stroke="#3F4753" stroke-width="1.25" stroke-miterlimit="10" stroke-linecap="round"/>
<path d="M137.917 108.11C139.346 110.914 141.726 113.117 144.631 114.324" stroke="#3F4753" stroke-width="1.25" stroke-miterlimit="10" stroke-linecap="round"/>
<path d="M138.581 79.5608C133.807 88.371 135.023 100.188 137 105.887" stroke="#3F4753" stroke-width="1.25" stroke-miterlimit="10" stroke-linecap="round"/>
<path d="M153.934 81.6422C153.486 76.8603 152.27 73.5928 148.801 72.8245C146.034 72.2202 142.49 73.9733 139.678 77.8376" stroke="#3F4753" stroke-width="1.25" stroke-miterlimit="10" stroke-linecap="round"/>
<path d="M160.7 88.513C157.85 89.5126 154.822 88.8934 154.292 84.5667" stroke="#3F4753" stroke-width="1.25" stroke-miterlimit="10" stroke-linecap="round"/>
<path d="M160.902 85.223C157.918 85.305 156.538 83.9771 155.814 78.6283C154.702 70.4224 150.458 66.9087 143.878 70.7133C136.97 74.6969 132.822 84.5665 132.509 92.7277C131.905 108.088 136.724 114.198 144.296 117.293C145.986 117.968 147.756 118.422 149.562 118.644" stroke="#3F4753" stroke-width="1.25" stroke-miterlimit="10" stroke-linecap="round"/>
<path d="M157.157 74.0029C157.746 77.2331 158.059 81.7389 160.984 81.642" stroke="#3F4753" stroke-width="1.25" stroke-miterlimit="10" stroke-linecap="round"/>
<path d="M150.696 65.7971C153.524 66.3268 155.642 68.6767 156.716 72.1381" stroke="#3F4753" stroke-width="1.25" stroke-miterlimit="10" stroke-linecap="round"/>
<path d="M139.693 70.5864C142.677 67.4979 146.191 65.8194 149.145 65.6926" stroke="#3F4753" stroke-width="1.25" stroke-miterlimit="10" stroke-linecap="round"/>
<path d="M131.106 85.3048C132.374 80.4656 134.7 75.9683 137.917 72.1379" stroke="#3F4753" stroke-width="1.25" stroke-miterlimit="10" stroke-linecap="round"/>
<path d="M130.002 100.65C129.484 96.2692 129.632 91.8349 130.442 87.4983" stroke="#3F4753" stroke-width="1.25" stroke-miterlimit="10" stroke-linecap="round"/>
<path d="M133.792 113.258C132.057 110.154 130.881 106.771 130.315 103.261" stroke="#3F4753" stroke-width="1.25" stroke-miterlimit="10" stroke-linecap="round"/>
<path d="M145.153 121.933C141.647 120.501 137.738 118.412 135.254 115.07" stroke="#3F4753" stroke-width="1.25" stroke-miterlimit="10" stroke-linecap="round"/>
<path d="M141.252 124.172C130.741 119.875 127.078 108.543 127.078 95.9356C127.078 83.3282 133.046 69.751 143.856 63.8203C151.189 59.8069 160.969 64.1561 160.969 76.7634" stroke="#3F4753" stroke-width="1.25" stroke-miterlimit="10" stroke-linecap="round"/>
<path d="M154.68 102.396C156 102.462 157.323 102.409 158.634 102.239" stroke="#3F4753" stroke-width="1.25" stroke-miterlimit="10" stroke-linecap="round"/>
<path d="M147.458 98.4121C147.991 99.4129 148.745 100.279 149.663 100.945C150.581 101.61 151.638 102.058 152.755 102.254" stroke="#3F4753" stroke-width="1.25" stroke-miterlimit="10" stroke-linecap="round"/>
<path d="M145.228 85.6555C144.87 89.9823 145.414 93.9585 146.645 96.7858" stroke="#3F4753" stroke-width="1.25" stroke-miterlimit="10" stroke-linecap="round"/>
<path d="M148.48 58.3519C151.471 57.744 154.581 58.3189 157.156 59.9558" stroke="#3F4753" stroke-width="1.25" stroke-miterlimit="10" stroke-linecap="round"/>
<path d="M135.284 66.3341C138.247 63.0954 141.925 60.5943 146.027 59.0308" stroke="#3F4753" stroke-width="1.25" stroke-miterlimit="10" stroke-linecap="round"/>
<path d="M131.606 122.165C132.69 123.515 134.051 124.617 135.598 125.395" stroke="#3F4753" stroke-width="1.25" stroke-miterlimit="10" stroke-linecap="round"/>
<path d="M126.69 113.854C127.525 116.168 128.732 118.33 130.263 120.255" stroke="#3F4753" stroke-width="1.25" stroke-miterlimit="10" stroke-linecap="round"/>
<path d="M9.53809 157.674C9.56519 157.178 9.70818 156.694 9.95561 156.263C10.203 155.831 10.548 155.464 10.9629 155.19L84.1826 112.922C84.6268 112.697 85.1174 112.581 85.6149 112.581C86.1125 112.581 86.6031 112.697 87.0473 112.922L88.6586 113.854C89.0752 114.125 89.422 114.491 89.6708 114.921C89.9197 115.352 90.0636 115.835 90.0909 116.331V172.452C90.0636 172.95 89.9197 173.434 89.6709 173.865C89.4221 174.297 89.0753 174.664 88.6586 174.936L15.4389 217.205C14.9961 217.429 14.5067 217.546 14.0103 217.546C13.514 217.546 13.0246 217.429 12.5818 217.205L10.9704 216.28C10.5538 216.008 10.2071 215.643 9.95821 215.212C9.70936 214.782 9.56542 214.299 9.53809 213.803V157.674Z" fill="#0B1F8E"/>
<path opacity="0.4" d="M9.95605 156.264L14.0143 158.607L89.6734 114.921C89.4296 114.486 89.0808 114.12 88.6588 113.854L87.04 112.922C86.5972 112.698 86.1078 112.581 85.6114 112.581C85.1151 112.581 84.6257 112.698 84.1828 112.922L10.9706 155.19C10.5447 155.454 10.195 155.824 9.95605 156.264Z" fill="white"/>
<path opacity="0.1" d="M9.53076 157.674V213.796C9.55837 214.294 9.70314 214.778 9.95332 215.21C10.2035 215.642 10.552 216.008 10.9705 216.28L12.5819 217.212C12.7062 217.282 12.8359 217.342 12.9698 217.391C13.5262 217.573 14.1208 217.604 14.6931 217.481C14.787 217.464 14.8794 217.439 14.9691 217.406C15.029 217.392 15.0868 217.369 15.1407 217.339C15.0323 217.386 14.9155 217.41 14.7975 217.41C14.6795 217.41 14.5627 217.386 14.4543 217.339C14.3014 217.236 14.1794 217.094 14.1018 216.927C14.0242 216.76 13.9939 216.575 14.0142 216.392V160.255C13.9991 160.001 14.0625 159.747 14.1959 159.53C14.3293 159.312 14.5263 159.141 14.7602 159.039L14.0142 158.607L9.95598 156.264C9.69567 156.69 9.54924 157.175 9.53076 157.674Z" fill="black"/>
<path opacity="0.2" d="M14.0148 158.607L47.9204 171.289C49.0936 171.727 50.3811 171.752 51.5705 171.36C52.7599 170.968 53.7801 170.183 54.4628 169.133L59.9385 160.778L89.9723 114.764L60.9978 161.076L90.0917 172.467C90.0638 172.972 89.9099 173.462 89.6441 173.892L60.9157 161.21L54.5822 171.333C53.8803 172.457 52.7969 173.289 51.5308 173.678C50.2648 174.068 48.9008 173.987 47.6892 173.452L43.2132 171.46L14.4326 217.324C14.2796 217.222 14.1577 217.079 14.0801 216.912C14.0025 216.745 13.9722 216.56 13.9925 216.377V215.444L43.0192 171.43L14.0148 158.607Z" fill="black"/>
<path d="M272.712 2.92436C272.731 2.73067 272.701 2.53527 272.624 2.3565C272.547 2.17773 272.426 2.02146 272.272 1.90234H272.234L269.25 0.164163C269.069 0.07955 268.868 0.0452955 268.668 0.06498C268.469 0.0846645 268.278 0.157566 268.116 0.276064L221.82 26.8858L220.574 22.7306C220.475 22.3564 220.234 22.0354 219.903 21.8354L216.889 20.0823C216.661 19.95 216.401 19.8834 216.137 19.89C215.874 19.8966 215.618 19.9761 215.397 20.1196L195.538 31.5931C195.069 31.9006 194.679 32.314 194.399 32.7999C194.12 33.2858 193.958 33.8306 193.927 34.3905V100.65C193.91 100.844 193.941 101.038 194.018 101.217C194.095 101.395 194.215 101.552 194.367 101.672H194.404L197.388 103.41H197.426C197.606 103.481 197.802 103.506 197.995 103.483C198.187 103.459 198.371 103.388 198.53 103.276L271.056 61.4031C271.525 61.0956 271.915 60.6822 272.194 60.1963C272.474 59.7104 272.636 59.1655 272.667 58.6056L272.712 2.92436Z" fill="#0B1F8E"/>
<path opacity="0.4" d="M219.88 21.8129C219.654 21.6959 219.402 21.6405 219.148 21.6523C218.894 21.6641 218.647 21.7426 218.433 21.88L198.567 33.346C198.093 33.6492 197.701 34.0642 197.426 34.5545L194.397 32.8014C194.666 32.3063 195.059 31.8898 195.538 31.5929L215.404 20.1269C215.626 19.985 215.882 19.9064 216.145 19.8999C216.408 19.8933 216.668 19.9589 216.896 20.0896L219.88 21.8129Z" fill="white"/>
<path opacity="0.4" d="M272.152 1.81285C271.975 1.75581 271.788 1.74028 271.604 1.76745C271.42 1.79462 271.245 1.86376 271.093 1.96951L224.349 28.9373C224.159 29.0639 223.941 29.1424 223.714 29.1662C223.487 29.19 223.258 29.1584 223.045 29.074C222.833 28.9896 222.645 28.855 222.496 28.6818C222.348 28.5086 222.244 28.3019 222.193 28.0794L221.834 26.8858L268.086 0.216415C268.31 0.0769662 268.568 0.00209929 268.832 7.45389e-05C268.978 -0.0018662 269.122 0.0341207 269.25 0.104514L272.152 1.81285Z" fill="white"/>
<path opacity="0.1" d="M197.202 103.209C197.246 103.273 197.299 103.331 197.358 103.38L194.427 101.694C194.311 101.614 194.216 101.506 194.151 101.381C194.118 101.322 194.093 101.26 194.076 101.195C194.019 101.026 193.992 100.85 193.994 100.672V34.3905C193.99 34.3259 193.99 34.2611 193.994 34.1965C194.009 34.0611 194.032 33.9267 194.061 33.7937C194.061 33.7265 194.098 33.6594 194.113 33.5923C194.181 33.3878 194.264 33.1884 194.36 32.9955C194.39 32.9285 194.425 32.8637 194.464 32.8015L197.493 34.5546C197.203 35.0354 197.041 35.5824 197.023 36.1436V102.396C197.015 102.49 197.015 102.585 197.023 102.679C197.019 102.731 197.019 102.784 197.023 102.836V102.918L197.068 103.022C197.101 103.092 197.147 103.155 197.202 103.209Z" fill="black"/>
<path d="M148.473 211.61C148.435 210.916 148.234 210.242 147.887 209.64C147.539 209.039 147.055 208.528 146.474 208.148L144.848 207.208C144.227 206.898 143.542 206.737 142.848 206.737C142.154 206.737 141.47 206.898 140.849 207.208L86.8313 238.376C86.2498 238.756 85.7657 239.267 85.4184 239.868C85.0711 240.47 84.8702 241.144 84.832 241.838V248.201C84.8702 248.894 85.0711 249.569 85.4184 250.17C85.7657 250.772 86.2498 251.283 86.8313 251.662L88.465 252.602C89.0838 252.915 89.7673 253.078 90.4606 253.078C91.1538 253.078 91.8374 252.915 92.4561 252.602L146.474 221.435C147.056 221.056 147.541 220.545 147.888 219.943C148.236 219.342 148.436 218.667 148.473 217.973V211.61Z" fill="#37474F"/>
<path d="M84.832 248.201C84.869 248.895 85.0694 249.57 85.4168 250.171C85.7643 250.773 86.2489 251.284 86.8313 251.662L88.465 252.602C89.0289 252.884 89.6461 253.044 90.276 253.071C90.9059 253.098 91.5345 252.992 92.1204 252.759C91.173 253.117 90.4569 252.587 90.4569 251.446V245.09C90.4801 244.391 90.6831 243.711 91.0462 243.113L85.4214 239.868C85.0592 240.463 84.8562 241.141 84.832 241.838V248.201Z" fill="#263238"/>
<path d="M148.406 211.058C148.175 210.207 147.399 209.939 146.474 210.468L92.456 241.644C91.8629 242.008 91.3765 242.523 91.0461 243.136L85.4287 239.891C85.7585 239.28 86.2419 238.765 86.8312 238.399L140.841 207.223C141.462 206.913 142.147 206.752 142.841 206.752C143.535 206.752 144.219 206.913 144.84 207.223L146.474 208.171C146.975 208.496 147.404 208.919 147.737 209.416C148.069 209.912 148.297 210.471 148.406 211.058Z" fill="#3F4753"/>
<path d="M97.3353 242.39C98.3871 241.785 99.2376 242.278 99.2376 243.486C99.202 244.146 99.0111 244.787 98.6806 245.359C98.35 245.931 97.889 246.416 97.3353 246.776C96.2909 247.38 95.4404 246.888 95.4404 245.68C95.4763 245.021 95.6666 244.38 95.9957 243.809C96.3248 243.237 96.7837 242.751 97.3353 242.39Z" fill="#E6E6E6"/>
<path d="M103.617 238.787C104.661 238.182 105.511 238.675 105.511 239.883C105.476 240.542 105.286 241.183 104.957 241.754C104.628 242.326 104.169 242.812 103.617 243.173C102.565 243.777 101.722 243.285 101.722 242.076C101.757 241.418 101.947 240.777 102.276 240.205C102.605 239.634 103.065 239.148 103.617 238.787Z" fill="#E6E6E6"/>
<path d="M109.92 235.169C110.972 234.564 111.822 235.049 111.822 236.265C111.786 236.923 111.595 237.564 111.264 238.134C110.934 238.705 110.473 239.189 109.92 239.548C108.875 240.152 108.025 239.659 108.025 238.451C108.061 237.793 108.251 237.154 108.58 236.583C108.909 236.013 109.368 235.528 109.92 235.169Z" fill="#E6E6E6"/>
<path d="M116.171 231.543C117.216 230.939 118.066 231.431 118.066 232.64C118.03 233.297 117.84 233.937 117.511 234.507C117.182 235.077 116.723 235.562 116.171 235.922C115.119 236.526 114.269 236.041 114.269 234.825C114.305 234.167 114.496 233.527 114.827 232.956C115.157 232.386 115.618 231.902 116.171 231.543Z" fill="#E6E6E6"/>
<path d="M122.445 227.917C123.497 227.313 124.347 227.806 124.347 229.014C124.311 229.673 124.119 230.315 123.789 230.886C123.458 231.458 122.998 231.943 122.445 232.304C121.401 232.908 120.55 232.416 120.55 231.207C120.586 230.549 120.776 229.908 121.105 229.336C121.434 228.765 121.893 228.279 122.445 227.917Z" fill="#E6E6E6"/>
<path d="M128.727 224.292C129.771 223.687 130.621 224.18 130.621 225.388C130.585 226.047 130.395 226.688 130.066 227.259C129.737 227.831 129.278 228.317 128.727 228.678C127.675 229.282 126.824 228.79 126.824 227.582C126.86 226.922 127.051 226.28 127.381 225.709C127.712 225.137 128.173 224.652 128.727 224.292Z" fill="#E6E6E6"/>
<path d="M135 220.666C136.045 220.062 136.895 220.554 136.895 221.763C136.86 222.421 136.67 223.062 136.341 223.634C136.011 224.205 135.552 224.691 135 225.052C133.956 225.657 133.105 225.164 133.105 223.956C133.143 223.298 133.333 222.657 133.662 222.086C133.991 221.515 134.45 221.028 135 220.666Z" fill="#E6E6E6"/>
<path d="M141.252 217.026C142.304 216.422 143.154 216.906 143.154 218.122C143.118 218.781 142.927 219.421 142.596 219.992C142.266 220.562 141.805 221.046 141.252 221.405C140.207 222.009 139.357 221.517 139.357 220.308C139.393 219.651 139.583 219.011 139.912 218.441C140.241 217.87 140.7 217.386 141.252 217.026Z" fill="#E6E6E6"/>
<path d="M148.473 232.595C148.435 231.901 148.234 231.227 147.887 230.625C147.539 230.024 147.055 229.513 146.474 229.133L144.848 228.216C144.227 227.906 143.542 227.744 142.848 227.744C142.154 227.744 141.47 227.906 140.849 228.216L86.8313 259.383C86.2489 259.762 85.7643 260.273 85.4168 260.875C85.0694 261.476 84.869 262.151 84.832 262.845V269.208C84.8702 269.902 85.0711 270.576 85.4184 271.178C85.7657 271.779 86.2498 272.29 86.8313 272.67L88.465 273.61C89.0838 273.922 89.7673 274.085 90.4606 274.085C91.1538 274.085 91.8374 273.922 92.4561 273.61L146.474 242.39C147.056 242.011 147.541 241.5 147.888 240.899C148.236 240.297 148.436 239.622 148.473 238.928V232.595Z" fill="#37474F"/>
<path d="M84.832 269.186C84.8702 269.879 85.0711 270.554 85.4184 271.155C85.7657 271.757 86.2498 272.268 86.8313 272.647L88.465 273.587C89.0289 273.869 89.6461 274.029 90.276 274.056C90.9059 274.083 91.5345 273.977 92.1204 273.744C91.173 274.102 90.4569 273.572 90.4569 272.431V266.068C90.481 265.371 90.684 264.693 91.0462 264.098L85.4214 260.853C85.0592 261.448 84.8562 262.126 84.832 262.822V269.186Z" fill="#263238"/>
<path d="M148.406 232.028C148.175 231.177 147.399 230.909 146.474 231.438L92.456 262.614C91.8629 262.978 91.3765 263.493 91.0461 264.106L85.4287 260.861C85.7585 260.25 86.2419 259.735 86.8312 259.369L140.841 228.216C141.462 227.906 142.147 227.744 142.841 227.744C143.535 227.744 144.219 227.906 144.84 228.216L146.474 229.163C146.972 229.486 147.401 229.906 147.733 230.398C148.065 230.89 148.294 231.445 148.406 232.028Z" fill="#3F4753"/>
<path d="M97.3353 263.397C98.3871 262.792 99.2376 263.285 99.2376 264.493C99.2008 265.153 99.0095 265.794 98.679 266.365C98.3485 266.937 97.8882 267.423 97.3353 267.783C96.2909 268.387 95.4404 267.895 95.4404 266.687C95.4758 266.028 95.6657 265.387 95.9949 264.815C96.3241 264.244 96.7833 263.758 97.3353 263.397Z" fill="#E6E6E6"/>
<path d="M103.617 259.771C104.661 259.167 105.511 259.659 105.511 260.868C105.475 261.526 105.285 262.167 104.956 262.739C104.627 263.31 104.168 263.796 103.617 264.158C102.565 264.762 101.722 264.27 101.722 263.061C101.756 262.402 101.945 261.761 102.275 261.189C102.604 260.617 103.064 260.131 103.617 259.771Z" fill="#E6E6E6"/>
<path d="M109.92 256.153C110.972 255.542 111.822 256.034 111.822 257.242C111.787 257.902 111.596 258.544 111.266 259.116C110.935 259.687 110.474 260.173 109.92 260.532C108.875 261.137 108.025 260.644 108.025 259.436C108.061 258.778 108.251 258.138 108.58 257.568C108.909 256.998 109.368 256.513 109.92 256.153Z" fill="#E6E6E6"/>
<path d="M116.171 252.528C117.216 251.924 118.066 252.409 118.066 253.625C118.03 254.282 117.84 254.922 117.511 255.492C117.182 256.062 116.723 256.547 116.171 256.907C115.119 257.511 114.269 257.026 114.269 255.81C114.305 255.152 114.496 254.512 114.827 253.941C115.157 253.371 115.618 252.887 116.171 252.528Z" fill="#E6E6E6"/>
<path d="M122.445 248.902C123.497 248.298 124.347 248.79 124.347 249.999C124.311 250.657 124.12 251.298 123.79 251.868C123.459 252.438 122.998 252.923 122.445 253.281C121.401 253.886 120.55 253.401 120.55 252.192C120.586 251.534 120.776 250.893 121.105 250.321C121.434 249.749 121.893 249.263 122.445 248.902Z" fill="#E6E6E6"/>
<path d="M128.727 245.277C129.771 244.672 130.621 245.165 130.621 246.373C130.584 247.031 130.394 247.672 130.065 248.243C129.735 248.814 129.277 249.301 128.727 249.663C127.675 250.267 126.824 249.775 126.824 248.566C126.859 247.907 127.05 247.265 127.38 246.693C127.711 246.121 128.172 245.636 128.727 245.277Z" fill="#E6E6E6"/>
<path d="M135 241.644C136.045 241.039 136.895 241.532 136.895 242.74C136.859 243.399 136.669 244.04 136.34 244.611C136.011 245.182 135.552 245.669 135 246.03C133.956 246.634 133.105 246.142 133.105 244.933C133.141 244.275 133.332 243.634 133.661 243.063C133.99 242.491 134.449 242.005 135 241.644Z" fill="#E6E6E6"/>
<path d="M141.252 238.033C142.304 237.421 143.154 237.914 143.154 239.122C143.116 239.778 142.923 240.415 142.593 240.983C142.262 241.551 141.803 242.033 141.252 242.39C140.207 242.994 139.357 242.502 139.357 241.293C139.396 240.64 139.588 240.004 139.917 239.438C140.246 238.872 140.703 238.391 141.252 238.033Z" fill="#E6E6E6"/>
<path d="M83.0641 249.342C83.0253 248.649 82.8242 247.975 82.4769 247.373C82.1297 246.772 81.646 246.261 81.0648 245.881L79.4311 244.941C78.8124 244.628 78.1288 244.465 77.4355 244.465C76.7423 244.465 76.0587 244.628 75.44 244.941L50.4714 259.384C49.8891 259.762 49.4044 260.273 49.057 260.875C48.7095 261.476 48.5092 262.151 48.4722 262.845V290.216C48.5109 290.909 48.7121 291.583 49.0593 292.185C49.4066 292.786 49.8903 293.297 50.4714 293.677L52.0977 294.61C52.7186 294.919 53.403 295.081 54.097 295.081C54.7909 295.081 55.4754 294.919 56.0963 294.61L81.0574 280.167C81.6411 279.789 82.1272 279.279 82.476 278.677C82.8247 278.075 83.0263 277.4 83.0641 276.706V249.342Z" fill="#0B1F8E"/>
<path opacity="0.2" d="M48.4722 290.216C48.5109 290.909 48.7121 291.583 49.0593 292.185C49.4066 292.786 49.8903 293.297 50.4714 293.677L52.0977 294.61C52.6616 294.892 53.2787 295.051 53.9087 295.078C54.5386 295.105 55.1672 294.999 55.7531 294.766C54.8132 295.124 54.097 294.595 54.097 293.453V266.09C54.1218 265.395 54.322 264.718 54.6789 264.121L49.0541 260.875C48.6963 261.472 48.496 262.15 48.4722 262.845V290.216Z" fill="black"/>
<path opacity="0.3" d="M82.9895 248.775C82.7508 247.932 81.9824 247.656 81.0574 248.193L56.0963 262.629C55.5029 262.993 55.0165 263.508 54.6863 264.121L49.0615 260.875C49.3961 260.266 49.8816 259.752 50.4715 259.383L75.4251 244.948C76.046 244.638 76.7304 244.477 77.4244 244.477C78.1183 244.477 78.8028 244.638 79.4236 244.948L81.0574 245.888C81.5584 246.213 81.9882 246.637 82.3203 247.133C82.6525 247.629 82.8802 248.188 82.9895 248.775Z" fill="white"/>
<path d="M68.2037 260.048C70.6058 258.66 72.5528 259.779 72.5528 262.554C72.4711 264.064 72.0347 265.532 71.279 266.841C70.5234 268.151 69.4698 269.263 68.2037 270.089C65.8015 271.476 63.8545 270.35 63.8545 267.575C63.935 266.066 64.371 264.598 65.1268 263.29C65.8826 261.982 66.9369 260.871 68.2037 260.048Z" fill="#FAFAFA"/>
<path d="M76.7756 274.833C76.7756 270.275 73.5753 268.432 69.629 270.708L67.1597 272.133C63.2208 274.408 60.0205 279.951 60.0205 284.509V285.732C62.2585 286.478 74.463 279.406 76.7756 275.892V274.833Z" fill="#FAFAFA"/>
<path d="M307.759 195.586L298.665 190.364C298.307 190.17 297.777 190.304 297.173 190.789C296.838 191.043 296.502 191.289 296.159 191.535L295.786 191.774L295.114 192.199L294.629 192.468C294.435 192.58 294.234 192.699 294.033 192.803C293.831 192.908 293.667 192.982 293.481 193.072C293.294 193.161 293.122 193.258 292.936 193.341L292.324 193.602L291.817 193.811C291.593 193.9 291.369 193.982 291.146 194.057L290.683 194.228L289.937 194.445L289.512 194.571C289.258 194.646 288.997 194.706 288.766 194.765L288.385 194.855L287.565 195.019L287.229 195.079L286.356 195.206H286.073C285.767 195.206 285.461 195.273 285.155 195.288H284.916C284.596 195.288 284.282 195.288 283.962 195.325H283.738C283.41 195.325 283.081 195.325 282.753 195.325H282.604C282.261 195.325 281.925 195.28 281.582 195.25H281.485L280.433 195.116H280.381L279.501 194.944C279.316 194.742 279.103 194.568 278.866 194.43L278.762 194.37L269.81 189.193C269.064 188.768 268.378 189.073 267.945 190.163C262.074 204.724 249.579 219.495 241.253 223.188C241.087 223.256 240.928 223.339 240.776 223.434C240.671 223.494 240.582 223.561 240.477 223.628C240.373 223.695 240.395 223.688 240.351 223.725C240.225 223.816 240.105 223.916 239.992 224.023C239.873 224.143 239.754 224.262 239.642 224.396C239.046 225.043 238.716 225.89 238.717 226.769L239.918 259.488C239.918 269.022 243.976 279.093 252.257 283.905L261.343 289.127L261.462 289.194C265.666 291.525 270.498 292.47 275.271 291.894C277.055 291.603 278.709 290.779 280.015 289.529C298.18 270.738 307.035 245.262 307.035 231.2L308.236 196.988C308.259 196.228 308.08 195.772 307.759 195.586Z" fill="#0B1F8E"/>
<path opacity="0.15" d="M261.081 289.007L252.211 283.882C243.938 279.071 239.873 269 239.873 259.466L238.664 226.724C238.673 226.155 238.812 225.596 239.071 225.089C239.33 224.582 239.701 224.141 240.156 223.8C239.957 223.968 239.773 224.153 239.604 224.352L248.69 229.574C248.089 230.223 247.759 231.076 247.765 231.961L248.959 264.673C248.951 274.169 252.95 284.166 261.081 289.007Z" fill="black"/>
<path opacity="0.3" d="M307.744 195.571C307.393 195.384 306.871 195.526 306.252 196.011C298.046 202.263 285.849 202.27 279.627 195.026L279.515 194.9C282.583 195.495 285.742 195.434 288.784 194.72C291.826 194.007 294.683 192.657 297.165 190.759C297.807 190.267 298.329 190.14 298.657 190.334L307.744 195.571Z" fill="white"/>
<path opacity="0.5" d="M278.761 194.325C278.068 193.997 277.434 194.325 277.023 195.355C271.16 209.924 258.657 224.687 250.324 228.38C249.697 228.665 249.14 229.082 248.69 229.603L239.604 224.381C239.773 224.183 239.957 223.998 240.156 223.829L240.357 223.665C240.43 223.62 240.5 223.57 240.566 223.516L240.79 223.382C240.933 223.293 241.083 223.216 241.238 223.15C249.563 219.458 262.066 204.687 267.93 190.118C268.243 189.372 268.676 188.976 269.175 188.976C269.394 188.978 269.608 189.04 269.795 189.155L278.761 194.325Z" fill="white"/>
<path d="M323.357 226.992L318.508 224.188L299.493 269L302.738 270.872L323.357 226.992Z" fill="#3F4753"/>
<path d="M294.554 257.078L289.697 254.281L284.483 265.314L289.339 268.112L294.554 257.078Z" fill="#3F4753"/>
<path d="M303.984 284.009L289.34 268.112L294.554 257.078L302.738 270.872L323.357 226.992L331.004 234.452L303.984 284.009Z" fill="#37474F"/>
<path d="M284.483 265.314L289.339 268.112L303.983 284.009L299.134 281.241L284.483 265.314Z" fill="#263238"/>
</svg>
