<svg width="546" height="326" viewBox="0 0 546 326" fill="none" xmlns="http://www.w3.org/2000/svg">
<g clip-path="url(#clip0_712_10593)">
<path d="M417.478 322.313C410.497 316.415 406.256 307.096 407.368 298.024C408.48 288.953 415.368 280.613 424.302 278.687C433.236 276.76 443.421 282.093 446.134 290.82C447.628 273.994 449.349 256.463 458.295 242.134C466.395 229.159 480.425 219.876 495.63 218.215C510.835 216.554 526.844 222.827 536.327 234.828C545.809 246.829 548.131 264.276 541.49 278.055C536.597 288.205 527.583 295.759 518.139 301.904C487.621 321.595 451.019 329.602 415.067 324.453L417.478 322.313Z" fill="#E4E4E4"/>
<path d="M521.291 223.175C508.744 233.393 497.235 244.823 486.928 257.297C470.798 276.751 457.745 298.564 448.224 321.974C447.527 323.682 450.301 324.425 450.99 322.736C466.567 284.69 491.435 251.156 523.318 225.202C524.75 224.037 522.71 222.018 521.291 223.175Z" fill="white"/>
<path d="M175.534 320.711C185.122 312.609 190.946 299.81 189.419 287.35C187.892 274.89 178.431 263.435 166.16 260.789C153.889 258.143 139.901 265.468 136.174 277.455C134.122 254.344 131.759 230.265 119.472 210.584C108.346 192.764 89.076 180.012 68.1918 177.731C47.3076 175.45 25.3192 184.066 12.2945 200.549C-0.730262 217.033 -3.91931 240.997 5.20286 259.921C11.9228 273.863 24.3034 284.238 37.2752 292.678C78.6596 319.607 129.997 330.838 178.845 323.649" fill="#E4E4E4"/>
<path d="M32.9465 184.543C50.1786 198.579 65.9872 214.277 80.1437 231.41C94.3024 248.525 106.768 266.974 117.364 286.496C123.287 297.447 128.608 308.713 133.303 320.244C134.26 322.59 130.451 323.611 129.505 321.292C121.189 300.962 110.901 281.497 98.7879 263.174C86.7338 244.918 72.9372 227.875 57.592 212.283C48.9127 203.468 39.7553 195.138 30.1612 187.329C28.1947 185.727 30.9963 182.955 32.9465 184.543L32.9465 184.543Z" fill="white"/>
<path d="M391.409 325.286H162.643V90.5663C162.643 40.6278 203.271 0 253.209 0H300.843C350.781 0 391.409 40.6278 391.409 90.5663V325.286Z" fill="#E4E4E4"/>
<path d="M343.776 325.286H162.643V90.5662C162.593 71.431 168.653 52.7793 179.939 37.3269C180.355 36.7598 180.77 36.2001 181.198 35.6464C186.657 28.4864 193.154 22.1807 200.473 16.9374C200.887 16.6366 201.302 16.341 201.723 16.0453C207.848 11.8068 214.473 8.34195 221.449 5.72955C221.863 5.57255 222.284 5.41525 222.706 5.26437C229.015 3.01311 235.554 1.47101 242.204 0.666534C242.616 0.61022 243.039 0.566154 243.462 0.522086C249.942 -0.170774 256.478 -0.170774 262.958 0.522086C263.38 0.566154 263.803 0.610215 264.22 0.667137C270.868 1.47166 277.406 3.01357 283.713 5.2644C284.134 5.41528 284.556 5.57257 284.972 5.72987C291.861 8.30932 298.408 11.7225 304.468 15.8932C304.889 16.1824 305.31 16.4781 305.725 16.7737C309.828 19.7024 313.682 22.9651 317.247 26.5285C320.106 29.3868 322.771 32.4336 325.222 35.6483C325.649 36.2001 326.064 36.7598 326.479 37.326C337.766 52.7786 343.826 71.4306 343.776 90.5662V325.286Z" fill="#515151"/>
<path d="M329.047 220.305C334.585 220.305 339.075 215.815 339.075 210.277C339.075 204.738 334.585 200.249 329.047 200.249C323.509 200.249 319.019 204.738 319.019 210.277C319.019 215.815 323.509 220.305 329.047 220.305Z" fill="#1A33B2"/>
<path d="M329.047 220.305C334.585 220.305 339.075 215.815 339.075 210.277C339.075 204.738 334.585 200.249 329.047 200.249C323.509 200.249 319.019 204.738 319.019 210.277C319.019 215.815 323.509 220.305 329.047 220.305Z" fill="black" fill-opacity="0.2"/>
<path d="M372.668 318.256H364.984L361.329 288.618L372.67 288.619L372.668 318.256Z" fill="#FFB8B8"/>
<path d="M359.496 316.06H374.315V325.391H350.165C350.165 324.166 350.407 322.952 350.876 321.82C351.345 320.688 352.032 319.66 352.898 318.793C353.765 317.927 354.793 317.24 355.925 316.771C357.057 316.302 358.271 316.06 359.496 316.06Z" fill="#2F2E41"/>
<path d="M410.901 318.256H403.217L399.561 288.618L410.902 288.619L410.901 318.256Z" fill="#FFB8B8"/>
<path d="M397.728 316.06H412.547V325.391H388.398C388.398 324.166 388.639 322.952 389.108 321.82C389.577 320.688 390.264 319.66 391.13 318.793C391.997 317.927 393.025 317.24 394.157 316.771C395.289 316.302 396.503 316.06 397.728 316.06Z" fill="#2F2E41"/>
<path d="M334.122 212.263C333.569 211.449 333.202 210.523 333.046 209.551C332.889 208.579 332.948 207.585 333.217 206.638C333.487 205.692 333.961 204.816 334.605 204.072C335.25 203.328 336.05 202.735 336.949 202.334L363.07 130.34L375.923 137.354L346.099 206.154C346.672 207.709 346.656 209.42 346.052 210.963C345.449 212.507 344.3 213.775 342.824 214.528C341.348 215.281 339.646 215.467 338.043 215.049C336.439 214.632 335.044 213.64 334.122 212.263Z" fill="#FFB8B8"/>
<path d="M406.976 225.791C406.122 225.302 405.385 224.631 404.819 223.826C404.252 223.021 403.869 222.102 403.696 221.133C403.523 220.163 403.565 219.168 403.818 218.217C404.072 217.266 404.53 216.382 405.162 215.627L397.07 139.471L411.698 140.139L415.061 215.049C416.258 216.195 416.994 217.74 417.128 219.392C417.262 221.043 416.786 222.687 415.789 224.011C414.793 225.335 413.345 226.248 411.721 226.576C410.096 226.904 408.408 226.625 406.976 225.791Z" fill="#FFB8B8"/>
<path d="M383.641 117.005C392.143 117.005 399.035 110.113 399.035 101.611C399.035 93.1096 392.143 86.2175 383.641 86.2175C375.139 86.2175 368.247 93.1096 368.247 101.611C368.247 110.113 375.139 117.005 383.641 117.005Z" fill="#FFB8B8"/>
<path d="M406.877 208.471H360.468L360.524 208.11C360.607 207.57 368.795 153.933 362.756 136.386C362.15 134.662 362.204 132.774 362.906 131.087C363.608 129.399 364.91 128.031 366.56 127.246H366.56C375.192 123.181 391.761 118.176 405.745 130.323C407.803 132.14 409.41 134.41 410.439 136.955C411.468 139.5 411.891 142.25 411.674 144.986L406.877 208.471Z" fill="#1A33B2"/>
<path d="M406.877 208.471H360.468L360.524 208.11C360.607 207.57 368.795 153.933 362.756 136.386C362.15 134.662 362.204 132.774 362.906 131.087C363.608 129.399 364.91 128.031 366.56 127.246H366.56C375.192 123.181 391.761 118.176 405.745 130.323C407.803 132.14 409.41 134.41 410.439 136.955C411.468 139.5 411.891 142.25 411.674 144.986L406.877 208.471Z" fill="black" fill-opacity="0.2"/>
<path d="M369.381 161.86L348.487 157.621L358.281 134.413C358.867 132.165 360.321 130.241 362.323 129.064C364.326 127.886 366.714 127.551 368.963 128.132C371.212 128.712 373.14 130.161 374.322 132.161C375.504 134.161 375.845 136.548 375.27 138.798L369.381 161.86Z" fill="#1A33B2"/>
<path d="M369.381 161.86L348.487 157.621L358.281 134.413C358.867 132.165 360.321 130.241 362.323 129.064C364.326 127.886 366.714 127.551 368.963 128.132C371.212 128.712 373.14 130.161 374.322 132.161C375.504 134.161 375.845 136.548 375.27 138.798L369.381 161.86Z" fill="black" fill-opacity="0.2"/>
<path d="M396.141 169.731L394.885 140.937C393.933 135.524 397.031 130.407 401.797 129.571C406.564 128.737 411.218 132.491 412.175 137.944L416.896 164.849L396.141 169.731Z" fill="#1A33B2"/>
<path d="M396.141 169.731L394.885 140.937C393.933 135.524 397.031 130.407 401.797 129.571C406.564 128.737 411.218 132.491 412.175 137.944L416.896 164.849L396.141 169.731Z" fill="black" fill-opacity="0.2"/>
<path d="M405.333 205.024C412.801 233.464 413.615 269.623 411.601 309.065L401.573 307.812L383.397 232.601L373.369 309.065L362.087 308.438C358.717 267.054 355.435 231.526 360.834 208.157L405.333 205.024Z" fill="#2F2E41"/>
<path d="M393.784 113.508C390.912 116.567 385.579 114.925 385.205 110.746C385.175 110.421 385.177 110.095 385.211 109.771C385.404 107.92 386.474 106.239 386.217 104.284C386.159 103.798 385.978 103.334 385.691 102.938C383.402 99.8731 378.031 104.308 375.871 101.534C374.546 99.833 376.103 97.1548 375.087 95.2536C373.746 92.7444 369.773 93.9822 367.281 92.608C364.509 91.079 364.675 86.826 366.5 84.2391C368.725 81.0843 372.627 79.4009 376.48 79.1582C380.333 78.9156 384.16 79.9572 387.757 81.3591C391.844 82.9519 395.897 85.1531 398.412 88.747C401.471 93.1175 401.765 98.9931 400.235 104.104C399.305 107.212 396.129 111.01 393.784 113.508Z" fill="#2F2E41"/>
<path d="M526.464 325.69H63.7333C63.5357 325.689 63.3465 325.61 63.207 325.47C63.0675 325.33 62.9892 325.141 62.9892 324.943C62.9892 324.746 63.0675 324.556 63.207 324.416C63.3465 324.277 63.5357 324.198 63.7333 324.197H526.464C526.661 324.198 526.85 324.277 526.99 324.416C527.129 324.556 527.208 324.746 527.208 324.943C527.208 325.141 527.129 325.33 526.99 325.47C526.85 325.61 526.661 325.689 526.464 325.69Z" fill="#3F3D56"/>
<path d="M293.949 257.283H212.47C211.397 257.289 210.366 256.869 209.602 256.115C208.838 255.362 208.405 254.336 208.396 253.263V71.3971C208.405 70.3241 208.838 69.2981 209.602 68.5444C210.366 67.7906 211.397 67.3705 212.47 67.3763H293.949C295.022 67.3705 296.053 67.7906 296.817 68.5444C297.581 69.2981 298.014 70.3241 298.022 71.3971V253.263C298.014 254.336 297.581 255.362 296.817 256.115C296.053 256.869 295.022 257.289 293.949 257.283Z" fill="white"/>
<path d="M298.022 126.222H208.396V127.476H298.022V126.222Z" fill="#515151"/>
<path d="M298.336 197.742H208.71V198.995H298.336V197.742Z" fill="#515151"/>
<path d="M237.854 67.3762H236.6V257.91H237.854V67.3762Z" fill="#515151"/>
<path d="M269.192 67.3762H267.938V257.91H269.192V67.3762Z" fill="#515151"/>
</g>
<defs>
<clipPath id="clip0_712_10593">
<rect width="545.278" height="326" fill="white"/>
</clipPath>
</defs>
</svg>
